if (_typeface_js && _typeface_js.loadFace) _typeface_js.loadFace({"glyphs":{"0":{"ha":836,"x_min":66,"x_max":770,"o":"m 326 -20 q 130 64 194 -20 q 66 315 66 149 q 76 455 66 382 q 104 600 86 528 q 148 734 123 672 q 201 844 173 797 q 262 927 230 892 q 334 985 295 962 q 412 1019 370 1007 q 508 1031 455 1031 q 625 1010 576 1031 q 705 947 673 989 q 753 845 736 906 q 770 697 770 784 q 760 554 770 629 q 732 412 749 479 q 689 280 714 342 q 635 169 664 218 q 574 85 606 120 q 503 26 541 50 q 422 -7 466 5 q 326 -20 378 -20 m 340 92 q 444 126 398 92 q 490 173 471 146 q 522 227 509 201 q 565 333 545 271 q 601 462 585 394 q 624 597 616 532 q 632 717 632 662 q 624 811 632 774 q 599 873 616 849 q 555 908 582 897 q 496 920 529 920 q 441 911 468 920 q 392 886 415 903 q 348 842 368 868 q 313 785 328 816 q 270 682 290 741 q 234 551 250 623 q 210 410 218 476 q 203 291 203 343 q 212 196 203 232 q 238 138 220 160 q 280 104 254 117 q 340 92 306 92 m 373 272 q 365 273 368 272 q 343 301 349 279 q 337 357 337 323 q 337 374 337 366 q 338 392 338 382 q 342 439 340 418 q 346 477 344 460 q 352 510 349 495 q 358 541 355 526 q 363 562 360 549 q 371 592 366 575 q 383 627 376 608 q 398 664 390 646 q 433 721 416 703 q 465 739 450 739 q 468 739 467 739 q 473 737 469 739 q 494 716 486 734 q 503 657 503 699 q 502 648 502 653 q 502 638 502 644 q 499 593 500 612 q 496 558 498 573 q 492 531 494 543 q 487 509 490 519 q 479 477 484 494 q 468 441 474 460 q 456 403 463 422 q 442 367 449 384 q 408 297 425 321 q 373 272 391 272 z "},"1":{"ha":836,"x_min":83,"x_max":664,"o":"m 106 115 l 318 115 l 468 889 l 229 838 l 253 962 l 492 1013 l 629 1013 l 454 115 l 664 115 l 642 0 l 83 0 l 106 115 z "},"2":{"ha":836,"x_min":4,"x_max":764,"o":"m 22 92 q 30 115 24 106 q 44 131 35 123 l 237 301 l 264 325 q 420 471 353 404 q 534 595 488 538 q 604 699 581 652 q 628 787 628 746 q 617 839 628 815 q 585 881 606 863 q 533 908 564 899 q 464 917 503 917 q 397 911 431 917 q 330 895 362 905 q 255 866 296 884 q 172 825 215 848 l 200 964 q 278 994 241 981 q 347 1014 315 1006 q 419 1027 386 1023 q 481 1031 452 1031 q 598 1014 547 1031 q 687 966 650 997 q 744 890 724 935 q 764 789 764 846 q 758 732 764 760 q 739 671 753 703 q 660 542 712 605 q 647 527 654 534 q 630 509 640 519 q 608 487 621 499 q 579 460 596 475 q 464 356 512 397 q 399 301 416 315 l 175 115 l 646 115 l 624 0 l 4 0 l 22 92 z "},"3":{"ha":836,"x_min":-12,"x_max":747,"o":"m 260 -20 q 189 -16 221 -20 q 121 -7 156 -13 q 54 8 85 0 q -12 31 23 17 l 14 167 q 77 136 47 148 q 140 114 106 123 q 204 100 173 104 q 270 96 236 96 q 384 112 335 96 q 470 159 433 128 q 527 231 507 191 q 546 322 546 271 q 533 394 546 364 q 498 444 521 425 q 355 485 450 485 l 252 485 l 273 597 l 378 597 q 473 610 429 597 q 548 648 516 623 q 595 706 578 671 q 611 785 611 741 q 600 845 611 821 q 569 884 589 869 q 441 916 527 916 q 382 912 412 916 q 319 902 352 909 q 248 885 281 895 q 176 861 216 875 l 201 987 q 241 997 220 992 q 281 1007 261 1002 q 318 1015 300 1011 q 351 1021 336 1019 q 412 1028 379 1025 q 473 1031 444 1031 q 587 1016 536 1031 q 674 972 637 1002 q 728 902 709 943 q 747 805 747 860 q 732 713 747 756 q 687 635 718 670 q 616 577 659 602 q 517 542 574 553 q 637 473 593 529 q 670 410 659 444 q 681 328 681 375 q 653 189 681 252 q 568 77 625 125 q 437 5 512 29 q 260 -20 361 -20 z "},"4":{"ha":836,"x_min":17,"x_max":737,"o":"m 447 241 l 17 241 l 41 371 l 574 1013 l 732 1013 l 603 353 l 737 353 l 717 241 l 582 241 l 534 0 l 400 0 l 447 241 m 468 353 l 571 869 l 147 353 l 468 353 z "},"5":{"ha":836,"x_min":3,"x_max":751,"o":"m 248 -20 q 181 -17 216 -20 q 115 -9 147 -14 q 3 24 52 2 l 31 163 q 91 131 62 144 q 147 111 120 119 q 209 98 178 102 q 268 94 239 94 q 385 114 331 94 q 480 173 439 134 q 540 260 517 209 q 562 370 562 311 q 508 507 562 458 q 356 557 454 557 q 303 553 330 557 q 248 543 276 550 q 193 527 219 536 q 140 504 166 517 l 239 1013 l 751 1013 l 729 897 l 342 897 l 293 648 q 355 665 324 659 q 386 668 370 667 q 415 669 401 669 q 532 650 480 669 q 621 593 583 630 q 679 504 659 556 q 699 389 699 452 q 663 227 699 305 q 562 89 627 147 q 499 42 533 63 q 426 7 466 22 q 344 -13 387 -6 q 248 -20 301 -20 z "},"6":{"ha":836,"x_min":62,"x_max":765,"o":"m 349 -20 q 231 -1 286 -20 q 137 59 176 18 q 81 155 100 97 q 62 294 62 213 q 69 399 62 340 q 89 519 75 458 q 121 635 102 578 q 161 740 140 693 q 239 869 196 815 q 332 958 282 924 q 574 1031 435 1031 q 625 1028 600 1031 q 674 1021 651 1026 q 719 1008 695 1016 q 765 990 743 1000 l 741 864 q 655 903 701 889 q 608 912 632 909 q 559 916 583 916 q 438 891 492 916 q 342 819 385 867 q 220 529 258 722 q 271 591 244 566 q 330 634 298 616 q 396 661 361 652 q 472 669 431 669 q 578 652 532 669 q 656 602 625 635 q 705 519 690 568 q 721 409 721 470 q 715 332 721 372 q 694 248 709 292 q 661 173 680 205 q 621 111 643 140 q 500 13 568 45 q 431 -11 469 -3 q 349 -20 394 -20 m 353 87 q 441 110 399 87 q 518 178 484 132 q 567 279 550 223 q 583 395 583 336 q 574 469 583 437 q 544 522 565 500 q 495 552 524 542 q 433 562 467 562 q 340 540 382 562 q 265 477 297 517 q 215 379 232 434 q 199 267 199 325 q 209 190 199 222 q 239 134 219 157 q 291 99 261 111 q 353 87 321 87 z "},"7":{"ha":836,"x_min":118,"x_max":822,"o":"m 646 897 l 165 897 l 187 1013 l 822 1013 l 811 949 l 265 0 l 118 0 l 646 897 z "},"8":{"ha":836,"x_min":28,"x_max":764,"o":"m 328 -20 q 204 -2 260 -20 q 108 50 149 15 q 50 129 71 81 q 28 240 28 176 q 47 348 28 299 q 99 433 66 396 q 180 498 132 471 q 292 538 229 525 q 227 570 253 551 q 182 613 200 589 q 154 669 163 639 q 146 733 146 699 q 172 849 146 794 q 245 945 197 903 q 360 1009 296 988 q 492 1031 424 1031 q 601 1016 551 1031 q 688 970 651 1000 q 744 901 724 941 q 764 808 764 860 q 747 716 764 760 q 698 635 730 671 q 621 571 666 598 q 524 530 576 543 q 652 454 608 510 q 685 389 674 425 q 696 309 696 353 q 670 178 696 239 q 593 73 644 117 q 477 4 545 28 q 328 -20 410 -20 m 430 587 q 571 646 514 587 q 614 712 600 676 q 628 788 628 748 q 618 846 628 822 q 587 888 608 870 q 479 925 547 925 q 399 911 434 925 q 338 871 363 897 q 282 733 282 816 q 322 626 282 665 q 430 587 361 587 m 335 86 q 425 102 384 86 q 496 149 465 118 q 542 221 526 180 q 557 311 557 262 q 546 383 557 353 q 512 436 534 414 q 388 481 467 481 q 229 414 290 481 q 182 338 198 380 q 167 247 167 295 q 178 178 167 206 q 212 129 189 151 q 265 97 235 107 q 335 86 295 86 z "},"9":{"ha":836,"x_min":43,"x_max":746,"o":"m 233 -20 q 134 -9 181 -20 q 89 2 112 -5 q 43 21 66 9 l 66 147 q 107 125 86 134 q 152 109 129 116 q 248 96 199 96 q 465 193 380 96 q 587 482 549 290 q 478 378 542 414 q 408 350 444 358 q 334 342 372 342 q 230 359 275 342 q 152 410 184 376 q 86 603 86 477 q 93 686 86 646 q 113 764 100 726 q 145 838 127 804 q 186 900 164 873 q 242 957 211 931 q 307 998 273 982 q 458 1031 374 1031 q 581 1010 527 1031 q 671 951 635 990 q 746 718 746 873 q 740 612 746 671 q 720 492 733 553 q 688 376 706 431 q 647 272 669 321 q 570 143 612 196 q 477 54 528 90 q 361 -2 422 15 q 233 -20 300 -20 m 374 449 q 467 471 425 449 q 542 534 510 494 q 591 629 574 575 q 608 744 608 684 q 598 824 608 791 q 568 878 587 857 q 519 912 548 900 q 455 924 490 924 q 364 900 406 924 q 290 833 321 877 q 241 733 259 790 q 224 615 224 676 q 233 544 224 576 q 263 490 241 512 q 312 459 283 469 q 374 449 340 449 z "},"\u0000":{"ha":0,"x_min":0,"x_max":0,"o":""},"\r":{"ha":836,"x_min":0,"x_max":0,"o":""}," ":{"ha":836,"x_min":0,"x_max":0,"o":""},"Ă":{"ha":836,"x_min":-72,"x_max":784,"o":"m 538 1093 q 357 1232 357 1093 q 358 1244 357 1238 q 359 1257 358 1251 l 439 1257 q 470 1201 440 1221 q 557 1182 500 1182 q 703 1257 668 1182 l 784 1257 q 699 1135 760 1176 q 538 1093 637 1093 m 433 1013 l 600 1013 l 713 0 l 576 0 l 553 264 l 200 264 l 75 0 l -72 0 l 433 1013 m 543 374 l 498 899 l 252 374 l 543 374 z "},"Â":{"ha":836,"x_min":-72,"x_max":729,"o":"m 477 1257 l 622 1257 l 729 1077 l 639 1077 l 545 1198 l 403 1077 l 300 1077 l 477 1257 m 433 1013 l 600 1013 l 713 0 l 576 0 l 553 264 l 200 264 l 75 0 l -72 0 l 433 1013 m 543 374 l 498 899 l 252 374 l 543 374 z "},"Ä":{"ha":836,"x_min":-72,"x_max":744,"o":"m 339 1099 q 324 1105 329 1099 q 321 1121 319 1111 l 340 1218 q 361 1236 342 1236 l 459 1236 q 477 1220 477 1236 q 477 1214 477 1216 l 457 1117 q 435 1099 453 1099 l 339 1099 m 604 1099 q 589 1105 594 1099 q 586 1121 584 1111 l 605 1218 q 627 1236 608 1236 l 724 1236 q 739 1230 734 1236 q 742 1214 744 1224 l 723 1117 q 701 1099 720 1099 l 604 1099 m 433 1013 l 600 1013 l 713 0 l 576 0 l 553 264 l 200 264 l 75 0 l -72 0 l 433 1013 m 543 374 l 498 899 l 252 374 l 543 374 z "},"À":{"ha":836,"x_min":-72,"x_max":713,"o":"m 374 1257 l 497 1257 l 597 1078 l 503 1078 l 374 1257 m 433 1013 l 600 1013 l 713 0 l 576 0 l 553 264 l 200 264 l 75 0 l -72 0 l 433 1013 m 543 374 l 498 899 l 252 374 l 543 374 z "},"Ā":{"ha":836,"x_min":-72,"x_max":766,"o":"m 360 1221 l 766 1221 l 746 1120 l 340 1120 l 360 1221 m 433 1013 l 600 1013 l 713 0 l 576 0 l 553 264 l 200 264 l 75 0 l -72 0 l 433 1013 m 543 374 l 498 899 l 252 374 l 543 374 z "},"Ą":{"ha":836,"x_min":-72,"x_max":726,"o":"m 640 -184 q 682 -179 659 -184 q 726 -164 704 -174 l 709 -254 q 614 -268 662 -268 q 512 -241 548 -268 q 475 -166 475 -214 q 500 -88 475 -128 q 578 0 526 -47 l 576 0 l 553 264 l 200 264 l 75 0 l -72 0 l 433 1013 l 600 1013 l 713 0 l 659 0 q 596 -73 618 -39 q 574 -136 574 -107 q 591 -172 574 -159 q 640 -184 607 -184 m 543 374 l 498 899 l 252 374 l 543 374 z "},"Å":{"ha":836,"x_min":-72,"x_max":713,"o":"m 407 960 q 355 1020 373 983 q 338 1101 338 1057 q 352 1175 338 1141 q 391 1235 366 1209 q 450 1275 416 1261 q 524 1289 484 1289 q 597 1275 564 1289 q 656 1235 630 1261 q 695 1177 681 1210 q 710 1101 710 1144 q 703 1049 710 1072 q 683 1005 696 1025 q 608 940 655 961 l 713 0 l 576 0 l 553 264 l 200 264 l 75 0 l -72 0 l 407 960 m 524 1000 q 565 1008 546 1000 q 597 1030 583 1017 q 627 1103 627 1060 q 618 1144 627 1126 q 597 1176 610 1162 q 562 1199 581 1192 q 523 1206 543 1206 q 451 1177 480 1206 q 421 1103 421 1147 q 451 1029 421 1059 q 483 1008 464 1017 q 524 1000 501 1000 m 543 374 l 498 899 l 252 374 l 543 374 z "},"Ã":{"ha":836,"x_min":-72,"x_max":785,"o":"m 300 1103 q 366 1215 323 1176 q 411 1243 387 1234 q 464 1252 436 1252 q 488 1250 477 1252 q 509 1244 498 1248 q 554 1220 532 1237 l 578 1202 q 602 1189 591 1193 q 613 1185 608 1187 q 627 1184 618 1184 q 653 1189 642 1184 q 673 1202 664 1194 q 700 1252 693 1221 l 785 1252 q 720 1141 764 1179 q 675 1113 701 1123 q 618 1103 649 1103 q 595 1105 604 1103 q 576 1111 585 1107 q 556 1120 565 1115 q 536 1133 547 1125 l 513 1149 l 511 1150 q 456 1172 482 1172 q 416 1155 433 1172 q 385 1103 398 1139 l 300 1103 m 433 1013 l 600 1013 l 713 0 l 576 0 l 553 264 l 200 264 l 75 0 l -72 0 l 433 1013 m 543 374 l 498 899 l 252 374 l 543 374 z "},"Æ":{"ha":836,"x_min":-98,"x_max":886,"o":"m 376 1013 l 886 1013 l 864 897 l 635 897 l 576 597 l 785 597 l 762 482 l 554 482 l 482 115 l 724 115 l 701 0 l 334 0 l 385 260 l 146 260 l 26 0 l -98 0 l 376 1013 m 407 374 l 509 897 l 439 897 l 197 374 l 407 374 z "},"B":{"ha":836,"x_min":16,"x_max":791,"o":"m 212 1013 l 513 1013 q 721 959 651 1013 q 774 892 756 932 q 791 799 791 853 q 729 626 791 696 q 561 542 667 555 q 691 473 645 526 q 725 411 714 446 q 736 330 736 376 q 709 194 736 256 q 628 88 682 133 q 322 0 520 0 l 16 0 l 212 1013 m 433 595 q 595 644 536 595 q 653 779 653 693 q 616 871 653 843 q 493 900 578 900 l 328 900 l 268 595 l 433 595 m 343 113 q 534 172 468 113 q 584 244 568 201 q 600 336 600 287 q 589 405 600 379 q 554 449 577 431 q 411 484 508 484 l 248 484 l 175 113 l 343 113 z "},"C":{"ha":836,"x_min":78,"x_max":822,"o":"m 405 -20 q 264 4 325 -20 q 163 70 204 28 q 100 178 121 113 q 78 334 78 243 q 90 473 78 401 q 125 619 102 546 q 180 752 149 694 q 250 859 211 810 q 328 937 288 905 q 411 989 367 968 q 606 1031 499 1031 q 664 1027 637 1031 q 718 1017 690 1024 q 822 975 772 1002 l 794 835 q 703 899 751 877 q 600 920 656 920 q 481 892 535 920 q 378 808 427 865 q 314 713 343 768 q 264 595 286 659 q 232 463 242 528 q 221 341 221 397 q 274 153 221 214 q 334 109 297 127 q 426 92 372 92 q 546 113 484 92 q 667 176 606 134 l 640 36 q 583 12 612 22 q 526 -6 555 1 q 469 -16 500 -12 q 405 -20 437 -20 z "},"Ć":{"ha":836,"x_min":78,"x_max":825,"o":"m 684 1261 l 825 1261 l 616 1082 l 508 1082 l 684 1261 m 405 -20 q 264 4 325 -20 q 163 70 204 28 q 100 178 121 113 q 78 334 78 243 q 90 473 78 401 q 125 619 102 546 q 180 752 149 694 q 250 859 211 810 q 328 937 288 905 q 411 989 367 968 q 606 1031 499 1031 q 664 1027 637 1031 q 718 1017 690 1024 q 822 975 772 1002 l 794 835 q 703 899 751 877 q 600 920 656 920 q 481 892 535 920 q 378 808 427 865 q 314 713 343 768 q 264 595 286 659 q 232 463 242 528 q 221 341 221 397 q 274 153 221 214 q 334 109 297 127 q 426 92 372 92 q 546 113 484 92 q 667 176 606 134 l 640 36 q 583 12 612 22 q 526 -6 555 1 q 469 -16 500 -12 q 405 -20 437 -20 z "},"Č":{"ha":836,"x_min":78,"x_max":848,"o":"m 418 1262 l 510 1262 l 604 1141 l 746 1262 l 848 1262 l 669 1082 l 525 1082 l 418 1262 m 405 -20 q 264 4 325 -20 q 163 70 204 28 q 100 178 121 113 q 78 334 78 243 q 90 473 78 401 q 125 619 102 546 q 180 752 149 694 q 250 859 211 810 q 328 937 288 905 q 411 989 367 968 q 606 1031 499 1031 q 664 1027 637 1031 q 718 1017 690 1024 q 822 975 772 1002 l 794 835 q 703 899 751 877 q 600 920 656 920 q 481 892 535 920 q 378 808 427 865 q 314 713 343 768 q 264 595 286 659 q 232 463 242 528 q 221 341 221 397 q 274 153 221 214 q 334 109 297 127 q 426 92 372 92 q 546 113 484 92 q 667 176 606 134 l 640 36 q 583 12 612 22 q 526 -6 555 1 q 469 -16 500 -12 q 405 -20 437 -20 z "},"Ç":{"ha":836,"x_min":78,"x_max":822,"o":"m 718 1017 q 822 975 772 1002 l 794 835 q 703 899 751 877 q 600 920 656 920 q 481 892 535 920 q 378 808 427 865 q 314 713 343 768 q 264 595 286 659 q 232 463 242 528 q 221 341 221 397 q 274 153 221 214 q 334 109 297 127 q 426 92 372 92 q 546 113 484 92 q 667 176 606 134 l 640 36 q 583 12 612 22 q 526 -6 555 1 q 493 -13 510 -9 q 456 -17 475 -16 q 472 -48 466 -34 q 484 -75 479 -62 q 496 -134 496 -106 q 484 -188 496 -163 q 448 -231 472 -212 q 319 -268 401 -268 q 289 -267 305 -268 q 258 -263 273 -266 q 194 -248 227 -258 l 211 -160 q 239 -172 224 -167 q 263 -180 254 -177 q 310 -186 286 -186 q 349 -181 331 -186 q 380 -165 368 -176 q 399 -141 393 -155 q 406 -111 406 -127 q 403 -86 406 -99 q 396 -63 400 -74 q 388 -45 393 -57 q 376 -19 383 -33 q 253 9 306 -14 q 163 70 200 32 q 100 178 121 113 q 78 334 78 243 q 90 473 78 401 q 125 619 102 546 q 180 752 149 694 q 250 859 211 810 q 328 937 288 905 q 411 989 367 968 q 606 1031 499 1031 q 664 1027 637 1031 q 718 1017 690 1024 z "},"Ċ":{"ha":836,"x_min":78,"x_max":822,"o":"m 548 1103 q 531 1111 537 1103 q 526 1130 524 1118 l 545 1227 q 551 1238 546 1234 q 564 1242 557 1242 l 660 1242 q 677 1235 671 1242 q 682 1216 684 1227 l 663 1119 q 656 1107 662 1112 q 644 1103 651 1103 l 548 1103 m 406 -20 q 267 2 328 -20 q 164 69 205 24 q 100 181 122 114 q 78 338 78 248 q 91 480 78 408 q 126 620 103 552 q 180 749 149 688 q 250 859 212 810 q 409 988 319 945 q 605 1031 499 1031 q 715 1017 663 1031 q 822 975 767 1004 l 794 835 q 600 920 709 920 q 479 891 534 920 q 378 808 424 863 q 314 712 343 767 q 265 596 286 658 q 233 470 244 535 q 221 345 221 406 q 274 153 221 215 q 425 92 326 92 q 546 113 484 92 q 667 176 607 135 l 640 36 q 406 -20 527 -20 z "},"D":{"ha":836,"x_min":-5,"x_max":766,"o":"m 192 1013 l 397 1013 q 675 928 583 1013 q 744 822 722 886 q 766 669 766 758 q 759 562 766 618 q 738 447 752 506 q 703 333 723 386 q 661 240 683 281 q 581 128 625 174 q 486 56 536 83 q 200 0 380 0 l -5 0 l 192 1013 m 220 113 q 421 155 345 113 q 543 293 498 197 q 576 376 560 328 q 604 479 591 423 q 621 583 615 534 q 627 673 627 633 q 613 780 627 738 q 571 848 600 823 q 385 900 515 900 l 307 900 l 154 113 l 220 113 z "},"Ð":{"ha":836,"x_min":-5,"x_max":766,"o":"m 87 481 l 1 481 l 21 582 l 109 582 l 192 1013 l 397 1013 q 675 928 583 1013 q 744 822 722 886 q 766 669 766 758 q 759 562 766 618 q 738 447 752 506 q 703 333 723 386 q 661 240 683 281 q 581 128 625 174 q 486 56 536 83 q 200 0 380 0 l -5 0 l 87 481 m 220 113 q 335 124 287 113 q 421 155 384 135 q 492 213 464 179 q 543 293 520 246 q 576 375 560 329 q 604 479 591 421 q 621 583 615 534 q 627 673 627 633 q 613 780 627 738 q 571 848 600 823 q 385 900 515 900 l 307 900 l 245 582 l 427 582 l 407 481 l 227 481 l 154 113 l 220 113 z "},"Ď":{"ha":836,"x_min":-5,"x_max":766,"o":"m 328 1262 l 420 1262 l 515 1141 l 656 1262 l 759 1262 l 580 1082 l 435 1082 l 328 1262 m 192 1013 l 397 1013 q 676 927 585 1013 q 766 667 766 842 q 759 561 766 616 q 739 449 752 505 q 705 340 725 393 q 661 240 686 287 q 583 129 627 175 q 484 55 540 83 q 358 13 428 26 q 200 0 288 0 l -5 0 l 192 1013 m 220 113 q 333 123 283 113 q 422 156 382 134 q 491 212 461 178 q 543 293 521 245 q 576 377 561 330 q 603 476 591 425 q 620 579 614 528 q 627 675 627 631 q 613 779 627 736 q 571 848 600 821 q 496 887 542 875 q 385 900 450 900 l 307 900 l 154 113 l 220 113 z "},"Đ":{"ha":836,"x_min":-5,"x_max":766,"o":"m 87 481 l 1 481 l 21 582 l 109 582 l 192 1013 l 397 1013 q 676 927 585 1013 q 766 667 766 842 q 759 561 766 616 q 739 449 752 505 q 705 340 725 393 q 661 240 686 287 q 583 129 627 175 q 484 55 540 83 q 358 13 428 26 q 200 0 288 0 l -5 0 l 87 481 m 220 113 q 333 123 283 113 q 422 156 382 134 q 491 212 461 178 q 543 293 521 245 q 576 377 561 330 q 603 476 591 425 q 620 579 614 528 q 627 675 627 631 q 613 779 627 736 q 571 848 600 821 q 496 887 542 875 q 385 900 450 900 l 307 900 l 245 582 l 427 582 l 407 481 l 227 481 l 154 113 l 220 113 z "},"E":{"ha":836,"x_min":36,"x_max":833,"o":"m 233 1013 l 833 1013 l 811 897 l 347 897 l 289 597 l 732 597 l 710 482 l 267 482 l 196 115 l 672 115 l 650 0 l 36 0 l 233 1013 z "},"É":{"ha":836,"x_min":36,"x_max":833,"o":"m 631 1261 l 772 1261 l 564 1082 l 455 1082 l 631 1261 m 233 1013 l 833 1013 l 811 897 l 347 897 l 289 597 l 732 597 l 710 482 l 267 482 l 196 115 l 672 115 l 650 0 l 36 0 l 233 1013 z "},"Ě":{"ha":836,"x_min":36,"x_max":833,"o":"m 397 1262 l 490 1262 l 584 1141 l 726 1262 l 828 1262 l 649 1082 l 505 1082 l 397 1262 m 233 1013 l 833 1013 l 811 897 l 347 897 l 289 597 l 732 597 l 710 482 l 267 482 l 196 115 l 672 115 l 650 0 l 36 0 l 233 1013 z "},"Ê":{"ha":836,"x_min":36,"x_max":833,"o":"m 508 1262 l 652 1262 l 760 1082 l 669 1082 l 575 1202 l 433 1082 l 330 1082 l 508 1262 m 233 1013 l 833 1013 l 811 897 l 347 897 l 289 597 l 732 597 l 710 482 l 267 482 l 196 115 l 672 115 l 650 0 l 36 0 l 233 1013 z "},"Ë":{"ha":836,"x_min":36,"x_max":833,"o":"m 370 1103 q 354 1109 359 1103 q 351 1126 349 1116 l 370 1223 q 392 1241 373 1241 l 490 1241 q 508 1225 508 1241 q 507 1219 508 1221 l 488 1122 q 466 1103 484 1103 l 370 1103 m 635 1103 q 620 1109 625 1103 q 616 1126 614 1116 l 635 1223 q 657 1241 638 1241 l 754 1241 q 769 1235 764 1241 q 772 1219 774 1229 l 753 1122 q 732 1103 750 1103 l 635 1103 m 233 1013 l 833 1013 l 811 897 l 347 897 l 289 597 l 732 597 l 710 482 l 267 482 l 196 115 l 672 115 l 650 0 l 36 0 l 233 1013 z "},"Ė":{"ha":836,"x_min":36,"x_max":833,"o":"m 509 1103 q 492 1111 498 1103 q 488 1130 486 1118 l 506 1227 q 513 1238 507 1234 q 526 1242 518 1242 l 621 1242 q 639 1235 632 1242 q 644 1216 646 1227 l 625 1119 q 618 1107 623 1112 q 605 1103 612 1103 l 509 1103 m 233 1013 l 833 1013 l 811 897 l 347 897 l 289 597 l 732 597 l 710 482 l 267 482 l 196 115 l 672 115 l 650 0 l 36 0 l 233 1013 z "},"È":{"ha":836,"x_min":36,"x_max":833,"o":"m 404 1254 l 528 1254 l 627 1075 l 533 1075 l 404 1254 m 233 1013 l 833 1013 l 811 897 l 347 897 l 289 597 l 732 597 l 710 482 l 267 482 l 196 115 l 672 115 l 650 0 l 36 0 l 233 1013 z "},"Ē":{"ha":836,"x_min":36,"x_max":833,"o":"m 372 1221 l 778 1221 l 758 1120 l 353 1120 l 372 1221 m 233 1013 l 833 1013 l 811 897 l 347 897 l 289 597 l 732 597 l 710 482 l 267 482 l 196 115 l 672 115 l 650 0 l 36 0 l 233 1013 z "},"Ę":{"ha":836,"x_min":36,"x_max":833,"o":"m 347 897 l 289 597 l 732 597 l 710 482 l 267 482 l 196 115 l 672 115 l 650 0 l 585 0 q 522 -73 543 -39 q 500 -136 500 -107 q 516 -172 500 -159 q 565 -184 532 -184 q 607 -179 585 -184 q 651 -164 629 -174 l 634 -254 q 540 -268 587 -268 q 437 -241 473 -268 q 401 -166 401 -214 q 426 -88 401 -128 q 504 0 451 -47 l 36 0 l 233 1013 l 833 1013 l 811 897 l 347 897 z "},"F":{"ha":836,"x_min":62,"x_max":856,"o":"m 260 1013 l 856 1013 l 833 897 l 375 897 l 317 592 l 732 592 l 710 477 l 294 477 l 200 0 l 62 0 l 260 1013 z "},"G":{"ha":836,"x_min":53,"x_max":798,"o":"m 382 -20 q 239 4 300 -20 q 137 72 178 27 q 74 184 94 119 q 53 331 53 249 q 56 395 53 363 q 64 462 59 427 q 78 532 70 493 q 97 606 87 571 q 123 681 109 644 q 153 749 137 717 q 187 810 170 783 q 222 859 205 837 q 297 934 256 901 q 384 989 338 967 q 579 1031 472 1031 q 637 1027 610 1031 q 692 1017 665 1024 q 798 975 747 1002 l 770 835 q 722 873 746 858 q 677 899 699 889 q 574 920 629 920 q 508 912 540 920 q 449 892 477 905 q 393 857 420 878 q 345 808 366 835 q 288 720 314 772 q 262 662 274 692 q 241 602 251 633 q 221 527 230 564 q 207 456 212 490 q 198 392 201 421 q 195 335 195 363 q 248 155 195 217 q 313 107 275 123 q 401 92 351 92 q 446 95 426 92 q 483 104 465 98 q 517 120 503 111 q 545 140 532 129 l 596 407 l 449 407 l 469 519 l 747 519 l 657 65 q 528 2 599 24 q 458 -14 494 -9 q 382 -20 422 -20 z "},"Ğ":{"ha":836,"x_min":53,"x_max":798,"o":"m 534 1098 q 406 1139 453 1098 q 368 1188 383 1159 q 345 1262 352 1217 l 422 1262 q 460 1202 433 1220 q 492 1188 473 1193 q 539 1184 511 1184 q 591 1189 567 1184 q 633 1203 614 1194 q 687 1262 669 1222 l 769 1262 q 684 1142 747 1186 q 534 1098 621 1098 m 382 -20 q 239 4 300 -20 q 137 72 178 27 q 74 184 94 119 q 53 331 53 249 q 56 395 53 363 q 64 462 59 427 q 78 531 70 494 q 97 606 86 569 q 123 683 109 646 q 153 749 138 721 q 190 814 172 787 q 222 859 209 842 q 297 934 256 901 q 384 989 338 967 q 579 1031 472 1031 q 637 1027 610 1031 q 692 1017 665 1024 q 798 975 747 1002 l 770 835 q 722 873 746 858 q 677 899 699 889 q 574 920 629 920 q 508 912 540 920 q 449 892 477 905 q 393 857 420 878 q 345 808 366 835 q 288 720 314 772 q 263 663 275 692 q 241 602 252 634 q 221 526 229 562 q 207 456 212 489 q 198 392 201 421 q 195 335 195 363 q 248 155 195 217 q 313 107 275 123 q 401 92 351 92 q 446 95 426 92 q 483 104 465 98 q 517 120 503 111 q 545 140 532 129 l 596 407 l 449 407 l 469 519 l 747 519 l 657 65 q 528 2 599 24 q 458 -14 494 -9 q 382 -20 422 -20 z "},"Ǧ":{"ha":836,"x_min":53,"x_max":798,"o":"m 359 1262 l 451 1262 l 545 1141 l 687 1262 l 789 1262 l 610 1082 l 466 1082 l 359 1262 m 382 -20 q 240 3 302 -20 q 137 71 179 26 q 74 181 96 116 q 53 330 53 246 q 64 465 53 394 q 97 606 76 535 q 151 747 121 686 q 222 859 182 808 q 578 1031 362 1031 q 688 1018 635 1031 q 798 975 741 1004 l 770 835 q 573 920 682 920 q 449 891 507 920 q 345 808 391 863 q 286 716 311 768 q 241 602 261 664 q 221 526 230 564 q 207 454 212 489 q 198 388 201 419 q 195 330 195 356 q 248 154 195 216 q 402 92 302 92 q 483 104 447 92 q 545 140 519 117 l 596 407 l 449 407 l 469 519 l 747 519 l 657 65 q 529 2 599 23 q 382 -20 459 -20 z "},"Ģ":{"ha":836,"x_min":53,"x_max":798,"o":"m 382 -20 q 240 3 302 -20 q 137 71 179 26 q 74 181 96 116 q 53 330 53 246 q 64 465 53 394 q 97 606 76 535 q 151 747 121 686 q 222 859 182 808 q 578 1031 362 1031 q 688 1018 635 1031 q 798 975 741 1004 l 770 835 q 573 920 682 920 q 449 891 507 920 q 345 808 391 863 q 286 716 311 768 q 241 602 261 664 q 221 526 230 564 q 207 454 212 489 q 198 388 201 419 q 195 330 195 356 q 248 154 195 216 q 402 92 302 92 q 483 104 447 92 q 545 140 519 117 l 596 407 l 449 407 l 469 519 l 747 519 l 657 65 q 529 2 599 23 q 382 -20 459 -20 m 314 -155 l 476 -155 l 304 -389 l 205 -389 l 314 -155 z "},"Ġ":{"ha":836,"x_min":53,"x_max":798,"o":"m 531 1103 q 514 1111 520 1103 q 509 1130 507 1118 l 528 1227 q 534 1238 529 1234 q 547 1242 540 1242 l 643 1242 q 661 1235 654 1242 q 665 1216 667 1227 l 646 1119 q 640 1107 645 1112 q 627 1103 634 1103 l 531 1103 m 382 -20 q 240 3 302 -20 q 137 71 179 26 q 74 181 96 116 q 53 330 53 246 q 64 465 53 394 q 97 606 76 535 q 151 747 121 686 q 222 859 182 808 q 578 1031 362 1031 q 688 1018 635 1031 q 798 975 741 1004 l 770 835 q 573 920 682 920 q 449 891 507 920 q 345 808 391 863 q 286 716 311 768 q 241 602 261 664 q 221 526 230 564 q 207 454 212 489 q 198 388 201 419 q 195 330 195 356 q 248 154 195 216 q 402 92 302 92 q 483 104 447 92 q 545 140 519 117 l 596 407 l 449 407 l 469 519 l 747 519 l 657 65 q 529 2 599 23 q 382 -20 459 -20 z "},"H":{"ha":836,"x_min":-5,"x_max":842,"o":"m 192 1013 l 329 1013 l 249 597 l 624 597 l 704 1013 l 842 1013 l 644 0 l 507 0 l 602 482 l 225 482 l 132 0 l -5 0 l 192 1013 z "},"Ħ":{"ha":836,"x_min":-5,"x_max":903,"o":"m 140 749 l 50 749 l 71 861 l 162 861 l 191 1013 l 328 1013 l 299 861 l 675 861 l 704 1013 l 841 1013 l 812 861 l 903 861 l 882 749 l 790 749 l 644 0 l 507 0 l 601 482 l 225 482 l 132 0 l -5 0 l 140 749 m 623 597 l 653 749 l 277 749 l 248 597 l 623 597 z "},"I":{"ha":836,"x_min":39,"x_max":798,"o":"m 61 115 l 273 115 l 425 897 l 212 897 l 235 1013 l 798 1013 l 775 897 l 562 897 l 411 115 l 624 115 l 602 0 l 39 0 l 61 115 z "},"Í":{"ha":836,"x_min":39,"x_max":798,"o":"m 604 1261 l 745 1261 l 537 1082 l 429 1082 l 604 1261 m 61 115 l 273 115 l 425 897 l 212 897 l 235 1013 l 798 1013 l 775 897 l 562 897 l 411 115 l 624 115 l 602 0 l 39 0 l 61 115 z "},"Î":{"ha":836,"x_min":39,"x_max":798,"o":"m 481 1262 l 626 1262 l 733 1082 l 643 1082 l 549 1202 l 407 1082 l 304 1082 l 481 1262 m 61 115 l 273 115 l 425 897 l 212 897 l 235 1013 l 798 1013 l 775 897 l 562 897 l 411 115 l 624 115 l 602 0 l 39 0 l 61 115 z "},"Ï":{"ha":836,"x_min":39,"x_max":798,"o":"m 343 1103 q 328 1109 333 1103 q 325 1126 323 1116 l 344 1223 q 366 1241 347 1241 l 463 1241 q 481 1225 481 1241 q 481 1219 481 1221 l 461 1122 q 439 1103 457 1103 l 343 1103 m 608 1103 q 593 1109 598 1103 q 590 1126 588 1116 l 609 1223 q 631 1241 612 1241 l 728 1241 q 743 1235 738 1241 q 746 1219 748 1229 l 727 1122 q 705 1103 724 1103 l 608 1103 m 61 115 l 273 115 l 425 897 l 212 897 l 235 1013 l 798 1013 l 775 897 l 562 897 l 411 115 l 624 115 l 602 0 l 39 0 l 61 115 z "},"İ":{"ha":836,"x_min":39,"x_max":798,"o":"m 482 1103 q 464 1120 464 1103 q 465 1126 464 1124 l 484 1224 q 506 1242 487 1242 l 602 1242 q 617 1236 612 1242 q 621 1220 623 1230 l 602 1122 q 580 1103 598 1103 l 482 1103 m 61 115 l 273 115 l 425 897 l 212 897 l 235 1013 l 798 1013 l 775 897 l 562 897 l 411 115 l 624 115 l 602 0 l 39 0 l 61 115 z "},"Ì":{"ha":836,"x_min":39,"x_max":798,"o":"m 378 1261 l 501 1261 l 601 1082 l 507 1082 l 378 1261 m 61 115 l 273 115 l 425 897 l 212 897 l 235 1013 l 798 1013 l 775 897 l 562 897 l 411 115 l 624 115 l 602 0 l 39 0 l 61 115 z "},"Ī":{"ha":836,"x_min":39,"x_max":798,"o":"m 360 1221 l 766 1221 l 746 1120 l 340 1120 l 360 1221 m 61 115 l 273 115 l 425 897 l 212 897 l 235 1013 l 798 1013 l 775 897 l 562 897 l 411 115 l 624 115 l 602 0 l 39 0 l 61 115 z "},"Į":{"ha":836,"x_min":63,"x_max":822,"o":"m 587 897 l 435 115 l 648 115 l 626 0 l 414 0 q 351 -73 372 -39 q 329 -136 329 -107 q 345 -172 329 -159 q 394 -184 361 -184 q 436 -179 414 -184 q 480 -164 458 -174 l 463 -254 q 369 -268 416 -268 q 266 -241 302 -268 q 230 -166 230 -214 q 255 -88 230 -128 q 333 0 280 -47 l 63 0 l 85 115 l 298 115 l 450 897 l 237 897 l 259 1013 l 822 1013 l 800 897 l 587 897 z "},"Ĩ":{"ha":836,"x_min":39,"x_max":798,"o":"m 304 1103 q 370 1215 328 1177 q 467 1252 412 1252 q 512 1245 490 1252 q 558 1220 534 1238 l 582 1202 q 631 1184 606 1184 q 678 1202 659 1184 q 704 1252 696 1221 l 789 1252 q 723 1140 767 1177 q 623 1103 679 1103 q 582 1110 601 1103 q 540 1133 562 1116 l 517 1149 l 515 1150 q 461 1172 486 1172 q 389 1103 414 1172 l 304 1103 m 61 115 l 273 115 l 425 897 l 212 897 l 235 1013 l 798 1013 l 775 897 l 562 897 l 411 115 l 624 115 l 602 0 l 39 0 l 61 115 z "},"J":{"ha":836,"x_min":-17,"x_max":747,"o":"m 254 -20 q 185 -16 218 -20 q 118 -4 153 -12 q 50 15 82 4 q -17 41 17 26 l 14 201 q 67 153 39 173 q 125 120 94 134 q 186 99 155 106 q 258 92 218 92 q 401 141 354 92 q 442 209 423 163 q 476 330 461 254 l 587 897 l 329 897 l 351 1013 l 747 1013 l 614 330 q 565 163 594 229 q 494 58 536 97 q 393 -1 452 18 q 254 -20 334 -20 z "},"K":{"ha":836,"x_min":-5,"x_max":918,"o":"m 192 1013 l 329 1013 l 243 574 l 746 1013 l 918 1013 l 441 593 l 732 0 l 583 0 l 339 503 l 208 389 l 132 0 l -5 0 l 192 1013 z "},"Ķ":{"ha":836,"x_min":-5,"x_max":918,"o":"m 192 1013 l 329 1013 l 243 574 l 746 1013 l 918 1013 l 441 593 l 732 0 l 583 0 l 339 503 l 208 389 l 132 0 l -5 0 l 192 1013 m 298 -135 l 460 -135 l 288 -369 l 189 -369 l 298 -135 z "},"L":{"ha":836,"x_min":53,"x_max":701,"o":"m 250 1013 l 387 1013 l 212 115 l 701 115 l 679 0 l 53 0 l 250 1013 z "},"Ĺ":{"ha":836,"x_min":53,"x_max":710,"o":"m 569 1261 l 710 1261 l 502 1082 l 393 1082 l 569 1261 m 250 1013 l 387 1013 l 212 115 l 701 115 l 679 0 l 53 0 l 250 1013 z "},"Ľ":{"ha":836,"x_min":53,"x_max":750,"o":"m 250 1013 l 387 1013 l 212 115 l 701 115 l 679 0 l 53 0 l 250 1013 m 602 1012 l 750 1012 l 609 757 l 503 757 l 602 1012 z "},"Ļ":{"ha":836,"x_min":53,"x_max":701,"o":"m 250 1013 l 387 1013 l 212 115 l 701 115 l 679 0 l 53 0 l 250 1013 m 300 -135 l 463 -135 l 290 -369 l 191 -369 l 300 -135 z "},"Ł":{"ha":836,"x_min":-20,"x_max":704,"o":"m 132 382 l 31 311 l -20 379 l 157 501 l 252 1011 l 389 1011 l 311 610 l 513 751 l 562 684 l 292 494 l 215 114 l 704 114 l 682 0 l 56 0 l 132 382 z "},"M":{"ha":836,"x_min":-40,"x_max":876,"o":"m 155 1013 l 338 1013 l 412 500 l 693 1013 l 876 1013 l 679 0 l 553 0 l 728 900 l 433 361 l 338 361 l 260 900 l 86 0 l -40 0 l 155 1013 z "},"N":{"ha":836,"x_min":-4,"x_max":840,"o":"m 193 1013 l 367 1013 l 546 179 l 708 1013 l 840 1013 l 643 0 l 469 0 l 290 833 l 127 0 l -4 0 l 193 1013 z "},"Ń":{"ha":836,"x_min":-4,"x_max":840,"o":"m 615 1265 l 756 1265 l 548 1086 l 439 1086 l 615 1265 m 193 1013 l 367 1013 l 546 179 l 708 1013 l 840 1013 l 643 0 l 469 0 l 290 833 l 127 0 l -4 0 l 193 1013 z "},"Ň":{"ha":836,"x_min":-4,"x_max":840,"o":"m 362 1262 l 454 1262 l 549 1141 l 690 1262 l 793 1262 l 614 1082 l 469 1082 l 362 1262 m 193 1013 l 367 1013 l 546 179 l 708 1013 l 840 1013 l 643 0 l 469 0 l 290 833 l 127 0 l -4 0 l 193 1013 z "},"Ņ":{"ha":836,"x_min":-4,"x_max":840,"o":"m 193 1013 l 367 1013 l 546 179 l 708 1013 l 840 1013 l 643 0 l 469 0 l 290 833 l 127 0 l -4 0 l 193 1013 m 254 -135 l 416 -135 l 244 -369 l 145 -369 l 254 -135 z "},"Ŋ":{"ha":836,"x_min":27,"x_max":810,"o":"m 256 -183 l 369 -183 q 469 -140 432 -183 q 526 0 507 -97 l 659 684 q 670 782 670 739 q 638 887 670 854 q 543 921 607 921 q 382 849 448 921 q 288 635 316 778 l 164 0 l 27 0 l 224 1013 l 348 1013 l 335 878 q 456 993 387 954 q 612 1032 526 1032 q 810 814 810 1032 q 795 677 810 752 l 661 -14 q 623 -131 648 -80 q 561 -217 597 -182 q 477 -271 524 -252 q 374 -289 430 -289 l 235 -289 l 256 -183 z "},"Ñ":{"ha":836,"x_min":-4,"x_max":840,"o":"m 297 1103 q 363 1215 320 1176 q 409 1243 384 1234 q 461 1252 433 1252 q 485 1250 475 1252 q 507 1244 496 1248 q 551 1220 529 1237 l 575 1202 q 600 1189 588 1193 q 610 1185 605 1187 q 624 1184 616 1184 q 650 1189 640 1184 q 671 1202 661 1194 q 697 1252 690 1221 l 782 1252 q 718 1141 761 1179 q 672 1113 698 1123 q 615 1103 646 1103 q 592 1105 602 1103 q 573 1111 583 1107 q 553 1120 562 1115 q 533 1133 544 1125 l 510 1149 l 509 1150 q 454 1172 479 1172 q 413 1155 431 1172 q 382 1103 395 1139 l 297 1103 m 193 1013 l 367 1013 l 546 179 l 708 1013 l 840 1013 l 643 0 l 469 0 l 290 833 l 127 0 l -4 0 l 193 1013 z "},"O":{"ha":836,"x_min":56,"x_max":781,"o":"m 324 -20 q 121 64 187 -20 q 56 321 56 146 q 59 402 56 364 q 71 483 63 440 q 89 572 79 530 q 114 661 98 613 q 135 722 125 695 q 157 774 145 748 q 182 824 170 803 q 205 862 194 844 q 340 990 264 949 q 416 1020 374 1009 q 511 1031 457 1031 q 629 1011 578 1031 q 715 947 680 991 q 781 694 781 865 q 777 614 781 654 q 766 530 773 574 q 721 350 751 443 q 700 290 710 316 q 679 238 690 264 q 656 194 669 218 q 629 149 644 170 q 569 76 603 109 q 496 22 534 43 q 324 -20 422 -20 m 338 92 q 395 100 367 92 q 448 126 422 109 q 494 172 475 146 q 528 224 513 197 q 552 278 541 249 q 574 338 564 307 q 593 401 585 370 q 609 464 602 433 q 632 601 625 534 q 640 724 640 669 q 631 817 640 782 q 605 874 623 852 q 561 908 587 896 q 498 920 534 920 q 440 911 468 920 q 388 885 412 903 q 344 842 364 867 q 309 787 324 817 q 263 680 285 742 q 226 548 241 618 q 202 414 210 480 q 195 291 195 348 q 197 238 195 261 q 204 196 199 214 q 215 163 208 178 q 231 138 222 149 q 278 102 250 113 q 338 92 305 92 z "},"Ó":{"ha":836,"x_min":56,"x_max":781,"o":"m 608 1261 l 749 1261 l 541 1082 l 433 1082 l 608 1261 m 324 -20 q 121 64 187 -20 q 56 321 56 146 q 59 402 56 364 q 71 483 63 440 q 89 572 79 530 q 114 661 98 613 q 135 722 125 695 q 157 774 145 748 q 182 824 170 803 q 205 862 194 844 q 340 990 264 949 q 416 1020 374 1009 q 511 1031 457 1031 q 629 1011 578 1031 q 715 947 680 991 q 781 694 781 865 q 777 614 781 654 q 766 530 773 574 q 721 350 751 443 q 700 290 710 316 q 679 238 690 264 q 656 194 669 218 q 629 149 644 170 q 569 76 603 109 q 496 22 534 43 q 324 -20 422 -20 m 338 92 q 395 100 367 92 q 448 126 422 109 q 494 172 475 146 q 528 224 513 197 q 552 278 541 249 q 574 338 564 307 q 593 401 585 370 q 609 464 602 433 q 632 601 625 534 q 640 724 640 669 q 631 817 640 782 q 605 874 623 852 q 561 908 587 896 q 498 920 534 920 q 440 911 468 920 q 388 885 412 903 q 344 842 364 867 q 309 787 324 817 q 263 680 285 742 q 226 548 241 618 q 202 414 210 480 q 195 291 195 348 q 197 238 195 261 q 204 196 199 214 q 215 163 208 178 q 231 138 222 149 q 278 102 250 113 q 338 92 305 92 z "},"Ô":{"ha":836,"x_min":56,"x_max":781,"o":"m 472 1262 l 616 1262 l 724 1082 l 633 1082 l 539 1202 l 397 1082 l 294 1082 l 472 1262 m 324 -20 q 121 64 187 -20 q 56 321 56 146 q 59 402 56 364 q 71 483 63 440 q 89 572 79 530 q 114 661 98 613 q 135 722 125 695 q 157 774 145 748 q 182 824 170 803 q 205 862 194 844 q 340 990 264 949 q 416 1020 374 1009 q 511 1031 457 1031 q 629 1011 578 1031 q 715 947 680 991 q 781 694 781 865 q 777 614 781 654 q 766 530 773 574 q 721 350 751 443 q 700 290 710 316 q 679 238 690 264 q 656 194 669 218 q 629 149 644 170 q 569 76 603 109 q 496 22 534 43 q 324 -20 422 -20 m 338 92 q 395 100 367 92 q 448 126 422 109 q 494 172 475 146 q 528 224 513 197 q 552 278 541 249 q 574 338 564 307 q 593 401 585 370 q 609 464 602 433 q 632 601 625 534 q 640 724 640 669 q 631 817 640 782 q 605 874 623 852 q 561 908 587 896 q 498 920 534 920 q 440 911 468 920 q 388 885 412 903 q 344 842 364 867 q 309 787 324 817 q 263 680 285 742 q 226 548 241 618 q 202 414 210 480 q 195 291 195 348 q 197 238 195 261 q 204 196 199 214 q 215 163 208 178 q 231 138 222 149 q 278 102 250 113 q 338 92 305 92 z "},"Ö":{"ha":836,"x_min":56,"x_max":781,"o":"m 334 1103 q 318 1109 323 1103 q 315 1126 313 1116 l 334 1223 q 356 1241 337 1241 l 454 1241 q 472 1225 472 1241 q 471 1219 472 1221 l 452 1122 q 430 1103 448 1103 l 334 1103 m 599 1103 q 584 1109 589 1103 q 581 1126 578 1116 l 600 1223 q 621 1241 602 1241 l 718 1241 q 733 1235 728 1241 q 736 1219 739 1229 l 718 1122 q 696 1103 714 1103 l 599 1103 m 324 -20 q 121 64 187 -20 q 56 321 56 146 q 59 402 56 364 q 71 483 63 440 q 89 572 79 530 q 114 661 98 613 q 135 722 125 695 q 157 774 145 748 q 182 824 170 803 q 205 862 194 844 q 340 990 264 949 q 416 1020 374 1009 q 511 1031 457 1031 q 629 1011 578 1031 q 715 947 680 991 q 781 694 781 865 q 777 614 781 654 q 766 530 773 574 q 721 350 751 443 q 700 290 710 316 q 679 238 690 264 q 656 194 669 218 q 629 149 644 170 q 569 76 603 109 q 496 22 534 43 q 324 -20 422 -20 m 338 92 q 395 100 367 92 q 448 126 422 109 q 494 172 475 146 q 528 224 513 197 q 552 278 541 249 q 574 338 564 307 q 593 401 585 370 q 609 464 602 433 q 632 601 625 534 q 640 724 640 669 q 631 817 640 782 q 605 874 623 852 q 561 908 587 896 q 498 920 534 920 q 440 911 468 920 q 388 885 412 903 q 344 842 364 867 q 309 787 324 817 q 263 680 285 742 q 226 548 241 618 q 202 414 210 480 q 195 291 195 348 q 197 238 195 261 q 204 196 199 214 q 215 163 208 178 q 231 138 222 149 q 278 102 250 113 q 338 92 305 92 z "},"Ò":{"ha":836,"x_min":56,"x_max":781,"o":"m 368 1261 l 492 1261 l 591 1082 l 497 1082 l 368 1261 m 324 -20 q 121 64 187 -20 q 56 321 56 146 q 59 402 56 364 q 71 483 63 440 q 89 572 79 530 q 114 661 98 613 q 135 722 125 695 q 157 774 145 748 q 182 824 170 803 q 205 862 194 844 q 340 990 264 949 q 416 1020 374 1009 q 511 1031 457 1031 q 629 1011 578 1031 q 715 947 680 991 q 781 694 781 865 q 777 614 781 654 q 766 530 773 574 q 721 350 751 443 q 700 290 710 316 q 679 238 690 264 q 656 194 669 218 q 629 149 644 170 q 569 76 603 109 q 496 22 534 43 q 324 -20 422 -20 m 338 92 q 395 100 367 92 q 448 126 422 109 q 494 172 475 146 q 528 224 513 197 q 552 278 541 249 q 574 338 564 307 q 593 401 585 370 q 609 464 602 433 q 632 601 625 534 q 640 724 640 669 q 631 817 640 782 q 605 874 623 852 q 561 908 587 896 q 498 920 534 920 q 440 911 468 920 q 388 885 412 903 q 344 842 364 867 q 309 787 324 817 q 263 680 285 742 q 226 548 241 618 q 202 414 210 480 q 195 291 195 348 q 197 238 195 261 q 204 196 199 214 q 215 163 208 178 q 231 138 222 149 q 278 102 250 113 q 338 92 305 92 z "},"Ơ":{"ha":836,"x_min":20,"x_max":928,"o":"m 927 1056 q 928 1038 928 1046 q 928 1023 928 1030 q 927 990 928 1004 q 923 964 925 976 q 872 845 909 886 q 774 803 836 803 q 736 808 753 803 q 745 703 745 761 q 741 618 745 663 q 729 528 736 574 q 710 438 721 483 q 686 350 699 393 q 642 236 665 286 q 593 149 618 186 q 460 21 535 62 q 290 -20 385 -20 q 20 311 20 -20 q 36 490 20 398 q 77 661 52 581 q 122 777 98 727 q 170 863 146 826 q 302 989 227 947 q 473 1031 376 1031 q 694 925 627 1031 q 733 904 716 910 q 767 897 751 897 q 814 916 795 897 q 841 971 833 935 q 844 1006 844 990 q 837 1056 844 1029 l 927 1056 m 492 226 q 524 296 509 258 q 551 377 538 335 q 573 464 563 420 q 590 553 583 509 q 601 640 597 597 q 604 719 604 682 q 598 801 604 764 q 575 864 591 838 q 532 905 559 890 q 462 920 505 920 q 401 910 429 920 q 351 884 374 901 q 309 842 328 867 q 273 786 290 817 q 226 676 247 738 q 190 548 205 614 q 167 415 175 481 q 159 293 159 349 q 165 209 159 246 q 189 145 172 171 q 232 105 205 119 q 301 92 260 92 q 362 101 334 92 q 413 127 390 110 q 455 169 436 144 q 492 226 475 194 z "},"Ő":{"ha":836,"x_min":56,"x_max":862,"o":"m 519 1261 l 646 1261 l 456 1082 l 351 1082 l 519 1261 m 736 1261 l 862 1261 l 672 1082 l 568 1082 l 736 1261 m 326 -20 q 56 311 56 -20 q 72 490 56 398 q 113 661 87 581 q 158 777 134 727 q 206 863 182 826 q 338 989 263 947 q 509 1031 412 1031 q 713 950 646 1031 q 781 703 781 869 q 777 618 781 663 q 765 528 772 574 q 746 438 757 483 q 722 350 735 393 q 677 236 701 286 q 629 149 654 186 q 496 21 571 62 q 326 -20 420 -20 m 337 92 q 398 101 370 92 q 449 127 426 110 q 491 169 472 144 q 528 226 511 194 q 559 296 545 258 q 587 377 574 335 q 609 464 599 420 q 626 553 619 509 q 636 640 633 597 q 640 719 640 682 q 634 801 640 764 q 611 864 627 838 q 568 905 595 890 q 498 920 541 920 q 437 910 465 920 q 387 884 410 901 q 345 842 364 867 q 309 786 326 817 q 262 676 283 738 q 226 548 241 614 q 203 415 211 481 q 195 293 195 349 q 201 209 195 246 q 224 145 208 171 q 268 105 241 119 q 337 92 296 92 z "},"Ō":{"ha":836,"x_min":56,"x_max":781,"o":"m 360 1221 l 766 1221 l 746 1120 l 340 1120 l 360 1221 m 326 -20 q 56 311 56 -20 q 72 490 56 398 q 113 661 87 581 q 158 777 134 727 q 206 863 182 826 q 338 989 263 947 q 509 1031 412 1031 q 713 950 646 1031 q 781 703 781 869 q 777 618 781 663 q 765 528 772 574 q 746 438 757 483 q 722 350 735 393 q 677 236 701 286 q 629 149 654 186 q 496 21 571 62 q 326 -20 420 -20 m 337 92 q 398 101 370 92 q 449 127 426 110 q 491 169 472 144 q 528 226 511 194 q 559 296 545 258 q 587 377 574 335 q 609 464 599 420 q 626 553 619 509 q 636 640 633 597 q 640 719 640 682 q 634 801 640 764 q 611 864 627 838 q 568 905 595 890 q 498 920 541 920 q 437 910 465 920 q 387 884 410 901 q 345 842 364 867 q 309 786 326 817 q 262 676 283 738 q 226 548 241 614 q 203 415 211 481 q 195 293 195 349 q 201 209 195 246 q 224 145 208 171 q 268 105 241 119 q 337 92 296 92 z "},"Ø":{"ha":836,"x_min":9,"x_max":814,"o":"m 9 -4 l 90 111 q 74 155 81 132 q 63 199 67 177 q 54 307 54 245 q 63 440 54 371 q 90 583 72 510 q 129 710 106 649 q 182 825 151 770 q 243 912 210 873 q 323 980 277 951 q 411 1018 365 1006 q 509 1031 458 1031 q 562 1027 536 1031 q 608 1017 587 1024 q 649 999 628 1010 q 689 972 671 987 l 746 1057 l 814 1014 l 742 907 q 760 862 753 884 q 771 817 766 841 q 778 766 776 793 q 781 705 781 739 q 772 572 781 641 q 745 430 763 503 q 702 291 726 351 q 652 187 677 231 q 587 95 622 133 q 513 32 553 57 q 425 -6 473 7 q 325 -20 378 -20 q 271 -16 296 -20 q 223 -4 246 -12 q 182 14 203 3 q 140 43 160 25 l 77 -47 l 9 -4 m 614 864 q 592 887 605 876 q 564 905 578 898 q 532 916 550 912 q 493 920 513 920 q 424 906 456 920 q 363 864 392 893 q 268 690 309 808 q 253 644 260 669 q 238 592 245 618 q 225 538 231 565 q 214 487 219 511 q 200 393 205 439 q 195 310 195 347 l 196 284 q 197 274 197 277 q 197 269 197 271 q 197 267 197 268 q 197 264 197 266 l 614 864 m 340 92 q 471 147 416 92 q 519 212 494 171 q 567 321 543 254 q 583 368 575 343 q 597 419 590 393 q 609 470 604 445 q 619 519 615 496 q 637 703 637 619 l 637 734 q 637 744 637 736 q 636 757 637 751 l 218 155 q 264 109 231 126 q 299 96 279 100 q 340 92 318 92 z "},"Ǿ":{"ha":836,"x_min":9,"x_max":814,"o":"m 602 1261 l 743 1261 l 534 1082 l 426 1082 l 602 1261 m 9 -4 l 90 111 q 63 198 72 151 q 54 307 54 245 q 63 441 54 372 q 89 579 73 511 q 129 711 106 648 q 182 825 153 774 q 322 980 241 929 q 508 1031 404 1031 q 608 1016 564 1031 q 689 972 652 1002 l 746 1057 l 814 1014 l 742 907 q 771 818 762 866 q 781 705 781 769 q 771 569 781 640 q 745 431 762 499 q 705 300 728 363 q 653 187 682 237 q 509 30 592 79 q 326 -20 427 -20 q 225 -5 271 -20 q 140 43 179 10 l 77 -47 l 9 -4 m 614 864 q 564 905 594 890 q 492 920 533 920 q 361 862 415 920 q 268 690 308 805 q 238 592 252 644 q 215 490 224 540 q 200 395 205 440 q 195 318 195 351 q 196 287 195 300 q 197 264 197 274 l 614 864 m 340 92 q 412 105 379 92 q 472 148 444 119 q 523 219 499 176 q 567 321 546 262 q 596 417 583 367 q 619 517 610 467 q 633 615 628 567 q 637 707 637 664 q 637 733 637 721 q 636 757 637 745 l 218 155 q 264 108 232 125 q 340 92 296 92 z "},"Õ":{"ha":836,"x_min":56,"x_max":781,"o":"m 294 1103 q 360 1215 317 1176 q 406 1243 381 1234 q 458 1252 431 1252 q 483 1250 472 1252 q 504 1244 493 1248 q 549 1220 526 1237 l 572 1202 q 597 1189 585 1193 q 608 1185 602 1187 q 621 1184 613 1184 q 648 1189 637 1184 q 668 1202 659 1194 q 694 1252 688 1221 l 779 1252 q 715 1141 758 1179 q 669 1113 695 1123 q 612 1103 644 1103 q 589 1105 599 1103 q 570 1111 580 1107 q 550 1120 559 1115 q 530 1133 541 1125 l 507 1149 l 506 1150 q 451 1172 477 1172 q 410 1155 428 1172 q 379 1103 393 1139 l 294 1103 m 324 -20 q 121 64 187 -20 q 56 321 56 146 q 59 402 56 364 q 71 483 63 440 q 89 572 79 530 q 114 661 98 613 q 135 722 125 695 q 157 774 145 748 q 182 824 170 803 q 205 862 194 844 q 340 990 264 949 q 416 1020 374 1009 q 511 1031 457 1031 q 629 1011 578 1031 q 715 947 680 991 q 781 694 781 865 q 777 614 781 654 q 766 530 773 574 q 721 350 751 443 q 700 290 710 316 q 679 238 690 264 q 656 194 669 218 q 629 149 644 170 q 569 76 603 109 q 496 22 534 43 q 324 -20 422 -20 m 338 92 q 395 100 367 92 q 448 126 422 109 q 494 172 475 146 q 528 224 513 197 q 552 278 541 249 q 574 338 564 307 q 593 401 585 370 q 609 464 602 433 q 632 601 625 534 q 640 724 640 669 q 631 817 640 782 q 605 874 623 852 q 561 908 587 896 q 498 920 534 920 q 440 911 468 920 q 388 885 412 903 q 344 842 364 867 q 309 787 324 817 q 263 680 285 742 q 226 548 241 618 q 202 414 210 480 q 195 291 195 348 q 197 238 195 261 q 204 196 199 214 q 215 163 208 178 q 231 138 222 149 q 278 102 250 113 q 338 92 305 92 z "},"Œ":{"ha":836,"x_min":24,"x_max":917,"o":"m 317 0 q 188 17 243 0 q 96 70 132 35 q 41 161 58 106 q 24 288 24 216 q 29 386 24 330 q 46 503 35 441 q 73 622 58 565 q 104 724 87 679 q 173 860 135 805 q 257 947 210 914 q 514 1013 350 1013 l 917 1013 l 895 897 l 652 897 l 593 597 l 815 597 l 793 482 l 571 482 l 498 115 l 749 115 l 726 0 l 317 0 m 366 115 l 518 897 l 476 897 q 340 861 395 897 q 288 813 308 840 q 252 750 267 785 q 243 731 248 741 q 236 710 239 721 q 228 684 232 699 q 218 652 223 670 q 201 582 209 616 q 184 505 193 547 q 172 438 177 469 q 163 377 167 408 q 157 325 159 349 q 155 282 155 300 q 166 210 155 241 q 198 156 176 178 q 253 125 220 134 q 323 115 285 115 l 366 115 z "},"P":{"ha":836,"x_min":20,"x_max":802,"o":"m 218 1013 l 516 1013 q 640 997 586 1013 q 730 950 693 981 q 784 874 766 920 q 802 764 802 828 q 774 616 802 682 q 694 504 747 551 q 567 432 641 457 q 395 407 494 407 l 237 407 l 158 0 l 20 0 l 218 1013 m 418 519 q 597 585 530 519 q 647 660 630 617 q 663 753 663 703 q 654 818 663 789 q 621 865 644 846 q 491 900 579 900 l 333 900 l 259 519 l 418 519 z "},"Þ":{"ha":836,"x_min":35,"x_max":786,"o":"m 232 1013 l 370 1011 l 335 825 l 498 825 q 713 766 639 825 q 768 693 749 736 q 786 588 786 650 q 759 450 786 513 q 677 340 732 387 q 378 248 568 248 l 221 248 l 172 0 l 35 0 l 232 1013 m 400 354 q 578 416 511 354 q 629 489 612 448 q 646 578 646 530 q 634 644 646 619 q 604 685 623 669 q 473 718 562 718 l 313 718 l 241 354 l 400 354 z "},"Q":{"ha":836,"x_min":56,"x_max":781,"o":"m 342 -18 l 335 -18 q 208 2 260 -18 q 123 63 157 22 q 72 166 89 104 q 56 320 56 229 q 59 402 56 365 q 71 483 63 440 q 78 524 74 504 q 87 565 82 544 q 99 610 92 587 q 114 661 105 633 q 135 722 125 695 q 157 774 145 748 q 167 795 161 784 q 179 819 173 807 q 193 843 186 831 q 205 863 199 854 q 266 935 231 901 q 340 990 300 968 q 420 1021 378 1011 q 511 1031 462 1031 q 630 1010 580 1031 q 715 947 681 990 q 764 845 747 907 q 781 698 781 783 q 778 633 781 665 q 771 569 776 601 q 759 501 766 537 q 742 427 751 465 q 721 354 732 391 q 700 290 710 317 q 677 234 689 260 q 653 186 665 207 q 617 131 638 159 q 569 75 597 102 q 523 37 548 55 q 468 7 497 18 l 628 -183 l 468 -183 l 342 -18 m 338 92 q 395 100 367 92 q 448 126 422 109 q 494 172 475 146 q 528 224 513 197 q 552 278 541 249 q 574 338 564 307 q 593 401 585 370 q 609 464 602 433 q 632 601 625 534 q 640 724 640 669 q 631 817 640 782 q 605 874 623 852 q 561 908 587 896 q 498 920 534 920 q 440 911 468 920 q 388 885 412 903 q 344 842 364 867 q 309 787 324 817 q 263 680 285 742 q 226 548 241 618 q 202 414 210 480 q 195 291 195 348 q 197 238 195 261 q 204 196 199 214 q 215 163 208 178 q 231 138 222 149 q 278 102 250 113 q 338 92 305 92 z "},"R":{"ha":836,"x_min":-5,"x_max":767,"o":"m 191 1013 l 473 1013 q 690 952 612 1013 q 749 877 730 921 q 767 776 767 833 q 750 667 767 719 q 697 575 732 616 q 615 510 663 535 q 506 478 568 486 q 550 462 529 474 q 585 433 570 450 q 615 378 598 416 q 650 277 631 340 l 732 0 l 596 0 l 524 256 q 458 395 494 361 q 410 420 439 412 q 346 428 381 428 l 216 428 l 132 0 l -5 0 l 191 1013 m 387 541 q 564 599 497 541 q 629 752 629 656 q 587 865 629 829 q 452 900 545 900 l 307 900 l 238 541 l 387 541 z "},"Ŕ":{"ha":836,"x_min":-5,"x_max":767,"o":"m 569 1261 l 710 1261 l 502 1082 l 393 1082 l 569 1261 m 191 1013 l 473 1013 q 690 952 613 1013 q 767 773 767 892 q 749 665 767 715 q 696 575 730 614 q 614 511 663 536 q 506 478 566 486 q 550 462 530 474 q 585 433 571 450 q 615 376 599 414 q 650 277 632 338 l 732 0 l 596 0 l 524 256 q 493 342 509 309 q 457 395 477 376 q 410 421 437 414 q 346 428 383 428 l 216 428 l 132 0 l -5 0 l 191 1013 m 387 541 q 487 555 441 541 q 563 598 532 570 q 612 666 595 627 q 629 754 629 705 q 587 865 629 829 q 452 900 544 900 l 307 900 l 238 541 l 387 541 z "},"Ř":{"ha":836,"x_min":-5,"x_max":767,"o":"m 297 1262 l 389 1262 l 484 1141 l 625 1262 l 728 1262 l 549 1082 l 404 1082 l 297 1262 m 191 1013 l 473 1013 q 690 952 613 1013 q 767 773 767 892 q 749 665 767 715 q 696 575 730 614 q 614 511 663 536 q 506 478 566 486 q 550 462 530 474 q 585 433 571 450 q 615 376 599 414 q 650 277 632 338 l 732 0 l 596 0 l 524 256 q 493 342 509 309 q 457 395 477 376 q 410 421 437 414 q 346 428 383 428 l 216 428 l 132 0 l -5 0 l 191 1013 m 387 541 q 487 555 441 541 q 563 598 532 570 q 612 666 595 627 q 629 754 629 705 q 587 865 629 829 q 452 900 544 900 l 307 900 l 238 541 l 387 541 z "},"Ŗ":{"ha":836,"x_min":-5,"x_max":767,"o":"m 191 1013 l 473 1013 q 690 952 613 1013 q 767 773 767 892 q 749 665 767 715 q 696 575 730 614 q 614 511 663 536 q 506 478 566 486 q 550 462 530 474 q 585 433 571 450 q 615 376 599 414 q 650 277 632 338 l 732 0 l 596 0 l 524 256 q 493 342 509 309 q 457 395 477 376 q 410 421 437 414 q 346 428 383 428 l 216 428 l 132 0 l -5 0 l 191 1013 m 387 541 q 487 555 441 541 q 563 598 532 570 q 612 666 595 627 q 629 754 629 705 q 587 865 629 829 q 452 900 544 900 l 307 900 l 238 541 l 387 541 m 298 -135 l 460 -135 l 288 -369 l 189 -369 l 298 -135 z "},"S":{"ha":836,"x_min":17,"x_max":778,"o":"m 295 -20 q 222 -16 256 -20 q 153 -4 188 -12 q 17 41 83 12 l 45 183 q 180 114 111 137 q 250 97 214 102 q 322 92 286 92 q 425 106 380 92 q 505 151 470 121 q 575 301 575 211 q 568 352 575 331 q 545 389 560 373 q 499 419 528 406 q 425 447 470 433 l 357 469 q 257 508 302 487 q 182 559 212 529 q 145 616 157 584 q 132 695 132 648 q 160 826 132 764 q 244 936 187 888 q 374 1007 300 983 q 531 1031 447 1031 q 593 1027 564 1031 q 652 1017 622 1024 q 714 1001 684 1010 q 778 978 744 991 l 751 839 q 637 899 696 879 q 515 920 578 920 q 411 905 457 920 q 332 864 365 890 q 281 802 300 838 q 262 724 262 766 q 271 679 262 698 q 296 644 279 659 q 342 615 313 629 q 416 587 372 602 l 498 561 q 595 522 556 543 q 661 471 633 500 q 699 407 686 442 q 711 321 711 371 q 684 183 711 246 q 599 74 656 121 q 465 4 542 27 q 295 -20 389 -20 z "},"Ś":{"ha":836,"x_min":17,"x_max":778,"o":"m 615 1265 l 756 1265 l 548 1086 l 439 1086 l 615 1265 m 295 -20 q 153 -4 220 -20 q 17 41 85 11 l 45 183 q 182 113 113 134 q 318 92 252 92 q 426 107 378 92 q 507 152 473 123 q 557 220 540 180 q 575 307 575 259 q 568 354 575 334 q 544 390 562 374 q 498 419 527 406 q 425 447 469 433 l 357 469 q 251 511 294 490 q 181 559 208 533 q 143 618 155 585 q 132 693 132 650 q 162 829 132 767 q 245 936 192 891 q 371 1006 298 981 q 530 1031 444 1031 q 649 1018 589 1031 q 778 978 709 1005 l 751 839 q 515 920 641 920 q 412 905 458 920 q 333 864 366 890 q 281 802 299 838 q 262 723 262 766 q 270 678 262 697 q 295 644 277 659 q 343 615 313 629 q 416 587 372 602 l 498 561 q 597 519 557 542 q 664 467 638 496 q 700 402 689 438 q 711 320 711 366 q 682 182 711 244 q 599 75 653 119 q 468 5 545 30 q 295 -20 391 -20 z "},"Š":{"ha":836,"x_min":17,"x_max":778,"o":"m 332 1262 l 424 1262 l 518 1141 l 660 1262 l 762 1262 l 583 1082 l 439 1082 l 332 1262 m 295 -20 q 222 -16 256 -20 q 153 -4 188 -12 q 17 41 83 12 l 45 183 q 180 114 111 137 q 250 97 214 102 q 322 92 286 92 q 425 106 380 92 q 505 151 470 121 q 575 301 575 211 q 568 352 575 331 q 545 389 560 373 q 499 419 528 406 q 425 447 470 433 l 357 469 q 257 508 302 487 q 182 559 212 529 q 145 616 157 584 q 132 695 132 648 q 160 826 132 764 q 244 936 187 888 q 374 1007 300 983 q 531 1031 447 1031 q 593 1027 564 1031 q 652 1017 622 1024 q 714 1001 685 1010 q 778 978 744 991 l 751 839 q 637 899 696 879 q 515 920 578 920 q 411 905 457 920 q 332 864 365 890 q 281 802 300 838 q 262 724 262 766 q 271 679 262 698 q 296 644 279 659 q 342 615 313 629 q 416 587 372 602 l 498 561 q 595 522 556 543 q 661 471 633 500 q 699 407 686 442 q 711 321 711 371 q 684 183 711 246 q 599 74 656 121 q 465 4 542 27 q 295 -20 389 -20 z "},"Ş":{"ha":836,"x_min":17,"x_max":778,"o":"m 332 864 q 281 802 300 838 q 262 724 262 766 q 271 679 262 698 q 296 644 279 659 q 342 615 313 629 q 416 587 372 602 l 498 561 q 595 522 556 543 q 661 471 633 500 q 699 407 686 442 q 711 321 711 371 q 684 183 711 246 q 599 74 656 121 q 502 17 556 39 q 385 -14 448 -5 q 402 -48 395 -33 q 414 -75 410 -64 q 422 -106 420 -92 q 425 -134 425 -121 q 413 -188 425 -163 q 378 -231 401 -212 q 248 -268 331 -268 q 219 -267 235 -268 q 187 -263 203 -266 q 123 -248 157 -258 l 140 -160 q 169 -172 154 -167 q 193 -180 183 -177 q 239 -186 216 -186 q 279 -181 260 -186 q 310 -165 297 -176 q 329 -141 323 -155 q 335 -111 335 -127 q 332 -86 335 -99 q 326 -63 330 -74 q 318 -45 323 -57 q 306 -20 313 -33 l 295 -20 q 222 -16 256 -20 q 153 -4 188 -12 q 17 41 83 12 l 45 183 q 180 114 111 137 q 250 97 214 102 q 322 92 286 92 q 425 106 380 92 q 505 151 470 121 q 575 301 575 211 q 568 352 575 331 q 545 389 560 373 q 499 419 528 406 q 425 447 470 433 l 357 469 q 257 508 302 487 q 182 559 212 529 q 145 616 157 584 q 132 695 132 648 q 160 826 132 764 q 244 936 187 888 q 374 1007 300 983 q 531 1031 447 1031 q 593 1027 564 1031 q 652 1017 622 1024 q 714 1001 685 1010 q 778 978 744 991 l 751 839 q 637 899 696 879 q 515 920 578 920 q 411 905 457 920 q 332 864 365 890 z "},"Ș":{"ha":836,"x_min":17,"x_max":778,"o":"m 295 -20 q 153 -4 220 -20 q 17 41 85 11 l 45 183 q 182 113 113 134 q 318 92 252 92 q 426 107 378 92 q 507 152 473 123 q 557 220 540 180 q 575 307 575 259 q 568 354 575 334 q 544 390 562 374 q 498 419 527 406 q 425 447 469 433 l 357 469 q 251 511 294 490 q 181 559 208 533 q 143 618 155 585 q 132 693 132 650 q 162 829 132 767 q 245 936 192 891 q 371 1006 298 981 q 530 1031 444 1031 q 649 1018 589 1031 q 778 978 709 1005 l 751 839 q 515 920 641 920 q 412 905 458 920 q 333 864 366 890 q 281 802 299 838 q 262 723 262 766 q 270 678 262 697 q 295 644 277 659 q 343 615 313 629 q 416 587 372 602 l 498 561 q 597 519 557 542 q 664 467 638 496 q 700 402 689 438 q 711 320 711 366 q 682 182 711 244 q 599 75 653 119 q 468 5 545 30 q 295 -20 391 -20 m 227 -134 l 389 -134 l 217 -368 l 118 -368 l 227 -134 z "},"T":{"ha":836,"x_min":109,"x_max":904,"o":"m 427 897 l 109 897 l 131 1013 l 904 1013 l 882 897 l 564 897 l 390 0 l 252 0 l 427 897 z "},"Ŧ":{"ha":836,"x_min":108,"x_max":903,"o":"m 328 391 l 148 391 l 170 507 l 350 507 l 426 897 l 108 897 l 130 1013 l 903 1013 l 880 897 l 564 897 l 488 507 l 667 507 l 645 391 l 465 391 l 389 0 l 252 0 l 328 391 z "},"Ť":{"ha":836,"x_min":109,"x_max":904,"o":"m 345 1262 l 437 1262 l 531 1141 l 673 1262 l 775 1262 l 596 1082 l 452 1082 l 345 1262 m 427 897 l 109 897 l 131 1013 l 904 1013 l 882 897 l 564 897 l 390 0 l 252 0 l 427 897 z "},"Ț":{"ha":836,"x_min":109,"x_max":904,"o":"m 904 1013 l 882 897 l 564 897 l 390 0 l 376 0 q 414 -76 402 -45 q 425 -134 425 -106 q 413 -189 425 -164 q 377 -231 400 -213 q 322 -258 355 -248 q 248 -268 289 -268 q 188 -263 219 -268 q 123 -248 156 -258 l 140 -160 q 192 -179 168 -173 q 241 -186 217 -186 q 310 -165 285 -186 q 335 -110 335 -144 q 325 -63 335 -90 q 296 0 315 -37 l 252 0 l 427 897 l 109 897 l 131 1013 l 904 1013 z "},"U":{"ha":836,"x_min":54,"x_max":835,"o":"m 323 -20 q 125 41 195 -20 q 54 214 54 102 q 56 245 54 230 q 60 283 57 260 q 64 310 62 298 q 68 334 66 322 q 72 359 70 346 q 78 389 75 372 l 199 1013 l 336 1013 l 215 389 q 213 377 214 384 q 210 361 212 370 q 194 272 199 311 q 189 212 189 233 q 199 160 189 183 q 227 123 209 138 q 340 92 262 92 q 394 96 370 92 q 440 112 418 101 q 481 138 463 123 q 513 172 499 153 q 527 199 520 183 q 543 245 534 215 q 559 306 551 269 q 576 389 567 342 l 697 1013 l 835 1013 l 714 389 q 698 312 706 345 q 683 252 690 278 q 668 207 675 226 q 654 172 661 187 q 616 107 637 135 q 568 58 595 80 q 516 24 545 39 q 458 1 488 10 q 323 -20 396 -20 z "},"Ú":{"ha":836,"x_min":54,"x_max":835,"o":"m 603 1261 l 744 1261 l 536 1082 l 427 1082 l 603 1261 m 323 -20 q 125 41 195 -20 q 54 214 54 102 q 56 245 54 230 q 60 283 57 260 q 64 310 62 298 q 68 334 66 322 q 72 359 70 346 q 78 389 75 372 l 199 1013 l 336 1013 l 215 389 q 213 377 214 384 q 210 361 212 370 q 194 272 199 311 q 189 212 189 233 q 199 160 189 183 q 227 123 209 138 q 340 92 262 92 q 394 96 370 92 q 440 112 418 101 q 481 138 463 123 q 513 172 499 153 q 527 199 520 183 q 543 245 534 215 q 559 306 551 269 q 576 389 567 342 l 697 1013 l 835 1013 l 714 389 q 698 312 706 345 q 683 252 690 278 q 668 207 675 226 q 654 172 661 187 q 616 107 637 135 q 568 58 595 80 q 516 24 545 39 q 458 1 488 10 q 323 -20 396 -20 z "},"Û":{"ha":836,"x_min":54,"x_max":835,"o":"m 480 1262 l 625 1262 l 732 1082 l 642 1082 l 547 1202 l 406 1082 l 302 1082 l 480 1262 m 323 -20 q 125 41 195 -20 q 54 214 54 102 q 56 245 54 230 q 60 283 57 260 q 64 310 62 298 q 68 334 66 322 q 72 359 70 346 q 78 389 75 372 l 199 1013 l 336 1013 l 215 389 q 213 377 214 384 q 210 361 212 370 q 194 272 199 311 q 189 212 189 233 q 199 160 189 183 q 227 123 209 138 q 340 92 262 92 q 394 96 370 92 q 440 112 418 101 q 481 138 463 123 q 513 172 499 153 q 527 199 520 183 q 543 245 534 215 q 559 306 551 269 q 576 389 567 342 l 697 1013 l 835 1013 l 714 389 q 698 312 706 345 q 683 252 690 278 q 668 207 675 226 q 654 172 661 187 q 616 107 637 135 q 568 58 595 80 q 516 24 545 39 q 458 1 488 10 q 323 -20 396 -20 z "},"Ü":{"ha":836,"x_min":54,"x_max":835,"o":"m 342 1103 q 327 1109 332 1103 q 323 1126 321 1116 l 342 1223 q 364 1241 345 1241 l 462 1241 q 480 1225 480 1241 q 479 1219 480 1221 l 460 1122 q 438 1103 456 1103 l 342 1103 m 607 1103 q 592 1109 597 1103 q 589 1126 587 1116 l 608 1223 q 629 1241 610 1241 l 726 1241 q 742 1235 736 1241 q 745 1219 747 1229 l 726 1122 q 704 1103 722 1103 l 607 1103 m 323 -20 q 125 41 195 -20 q 54 214 54 102 q 56 245 54 230 q 60 283 57 260 q 64 310 62 298 q 68 334 66 322 q 72 359 70 346 q 78 389 75 372 l 199 1013 l 336 1013 l 215 389 q 213 377 214 384 q 210 361 212 370 q 194 272 199 311 q 189 212 189 233 q 199 160 189 183 q 227 123 209 138 q 340 92 262 92 q 394 96 370 92 q 440 112 418 101 q 481 138 463 123 q 513 172 499 153 q 527 199 520 183 q 543 245 534 215 q 559 306 551 269 q 576 389 567 342 l 697 1013 l 835 1013 l 714 389 q 698 312 706 345 q 683 252 690 278 q 668 207 675 226 q 654 172 661 187 q 616 107 637 135 q 568 58 595 80 q 516 24 545 39 q 458 1 488 10 q 323 -20 396 -20 z "},"Ù":{"ha":836,"x_min":54,"x_max":835,"o":"m 376 1261 l 500 1261 l 600 1082 l 505 1082 l 376 1261 m 323 -20 q 125 41 195 -20 q 54 214 54 102 q 56 245 54 230 q 60 283 57 260 q 64 310 62 298 q 68 334 66 322 q 72 359 70 346 q 78 389 75 372 l 199 1013 l 336 1013 l 215 389 q 213 377 214 384 q 210 361 212 370 q 194 272 199 311 q 189 212 189 233 q 199 160 189 183 q 227 123 209 138 q 340 92 262 92 q 394 96 370 92 q 440 112 418 101 q 481 138 463 123 q 513 172 499 153 q 527 199 520 183 q 543 245 534 215 q 559 306 551 269 q 576 389 567 342 l 697 1013 l 835 1013 l 714 389 q 698 312 706 345 q 683 252 690 278 q 668 207 675 226 q 654 172 661 187 q 616 107 637 135 q 568 58 595 80 q 516 24 545 39 q 458 1 488 10 q 323 -20 396 -20 z "},"Ư":{"ha":836,"x_min":-5,"x_max":941,"o":"m 939 1056 q 940 1038 940 1046 q 941 1023 941 1030 q 939 990 941 1004 q 935 964 937 976 q 885 845 921 886 q 787 803 848 803 q 737 812 760 803 l 655 389 q 627 264 641 316 q 595 173 612 212 q 557 107 578 134 q 509 58 536 80 q 398 0 460 19 q 265 -20 336 -20 q 150 -4 200 -20 q 65 42 100 12 q 13 115 31 72 q -5 211 -5 157 q 1 283 -5 241 q 19 389 7 325 l 140 1013 l 277 1013 l 156 389 q 155 383 155 385 q 154 380 155 382 q 153 374 154 378 q 151 361 153 370 q 135 272 140 311 q 130 212 130 233 q 167 123 130 154 q 277 92 204 92 q 328 96 302 92 q 377 109 353 100 q 420 134 400 119 q 454 172 439 149 q 469 200 461 184 q 484 245 476 217 q 500 307 492 271 q 517 389 509 344 l 638 1013 l 776 1013 l 754 901 q 767 898 761 899 q 779 897 773 897 q 827 916 808 897 q 853 971 846 935 q 857 1006 857 990 q 849 1056 857 1029 l 939 1056 l 939 1056 z "},"Ű":{"ha":836,"x_min":54,"x_max":862,"o":"m 519 1261 l 646 1261 l 456 1082 l 351 1082 l 519 1261 m 736 1261 l 862 1261 l 672 1082 l 568 1082 l 736 1261 m 324 -20 q 209 -4 259 -20 q 124 42 159 12 q 72 115 90 72 q 54 211 54 157 q 60 283 54 241 q 78 389 66 325 l 199 1013 l 336 1013 l 215 389 q 214 383 214 385 q 213 380 214 382 q 212 374 213 378 q 210 361 212 370 q 194 272 199 311 q 189 212 189 233 q 226 123 189 154 q 336 92 263 92 q 387 96 361 92 q 436 109 412 100 q 479 134 459 119 q 513 172 498 149 q 528 200 520 184 q 543 245 535 217 q 559 307 551 271 q 576 389 568 344 l 697 1013 l 835 1013 l 714 389 q 686 264 700 316 q 654 173 671 212 q 616 107 637 134 q 568 58 595 80 q 457 0 519 19 q 324 -20 395 -20 z "},"Ū":{"ha":836,"x_min":54,"x_max":835,"o":"m 360 1221 l 766 1221 l 746 1120 l 340 1120 l 360 1221 m 324 -20 q 209 -4 259 -20 q 124 42 159 12 q 72 115 90 72 q 54 211 54 157 q 60 283 54 241 q 78 389 66 325 l 199 1013 l 336 1013 l 215 389 q 214 383 214 385 q 213 380 214 382 q 212 374 213 378 q 210 361 212 370 q 194 272 199 311 q 189 212 189 233 q 226 123 189 154 q 336 92 263 92 q 387 96 361 92 q 436 109 412 100 q 479 134 459 119 q 513 172 498 149 q 528 200 520 184 q 543 245 535 217 q 559 307 551 271 q 576 389 568 344 l 697 1013 l 835 1013 l 714 389 q 686 264 700 316 q 654 173 671 212 q 616 107 637 134 q 568 58 595 80 q 457 0 519 19 q 324 -20 395 -20 z "},"Ų":{"ha":836,"x_min":54,"x_max":835,"o":"m 835 1013 l 714 389 q 686 264 700 316 q 654 173 671 212 q 616 107 637 134 q 568 58 595 80 q 457 0 519 19 q 324 -20 395 -20 l 309 -20 q 252 -88 271 -56 q 233 -146 233 -120 q 249 -183 233 -170 q 298 -195 265 -195 q 340 -190 317 -195 q 384 -175 362 -185 l 367 -265 q 273 -279 320 -279 q 170 -252 206 -279 q 134 -177 134 -224 q 159 -99 134 -139 q 237 -11 184 -58 q 101 65 148 8 q 54 211 54 123 q 60 283 54 241 q 78 389 66 325 l 199 1013 l 336 1013 l 215 389 q 214 383 214 385 q 213 380 214 382 q 212 374 213 378 q 210 361 212 370 q 194 272 199 311 q 189 212 189 233 q 226 123 189 154 q 336 92 263 92 q 387 96 361 92 q 436 109 412 100 q 479 134 459 119 q 513 172 498 149 q 528 200 520 184 q 543 245 535 217 q 559 307 551 271 q 576 389 568 344 l 697 1013 l 835 1013 z "},"Ů":{"ha":836,"x_min":54,"x_max":835,"o":"m 515 917 q 443 931 477 917 q 384 971 409 946 q 344 1030 359 996 q 330 1103 330 1064 q 344 1177 330 1143 q 384 1236 359 1211 q 443 1275 409 1261 q 515 1289 477 1289 q 588 1275 554 1289 q 648 1236 623 1261 q 687 1177 673 1211 q 702 1103 702 1143 q 687 1030 702 1064 q 648 971 673 996 q 588 931 623 946 q 515 917 554 917 m 515 1000 q 556 1008 537 1000 q 588 1030 574 1017 q 610 1062 602 1044 q 618 1103 618 1081 q 610 1143 618 1124 q 588 1176 602 1162 q 556 1198 574 1190 q 515 1206 537 1206 q 475 1198 494 1206 q 443 1176 456 1190 q 421 1144 429 1162 q 413 1103 413 1125 q 421 1063 413 1082 q 443 1030 429 1044 q 475 1008 456 1016 q 515 1000 494 1000 m 324 -20 q 209 -4 259 -20 q 124 42 159 12 q 72 115 90 72 q 54 211 54 157 q 60 283 54 241 q 78 389 66 325 l 199 1013 l 336 1013 l 215 389 q 214 383 214 385 q 213 380 214 382 q 212 374 213 378 q 210 361 212 370 q 194 272 199 311 q 189 212 189 233 q 226 123 189 154 q 336 92 263 92 q 387 96 361 92 q 436 109 412 100 q 479 134 459 119 q 513 172 498 149 q 528 200 520 184 q 543 245 535 217 q 559 307 551 271 q 576 389 568 344 l 697 1013 l 835 1013 l 714 389 q 686 264 700 316 q 654 173 671 212 q 616 107 637 134 q 568 58 595 80 q 457 0 519 19 q 324 -20 395 -20 z "},"Ũ":{"ha":836,"x_min":54,"x_max":835,"o":"m 302 1103 q 368 1215 326 1177 q 465 1252 410 1252 q 511 1245 488 1252 q 557 1220 533 1238 l 581 1202 q 629 1184 605 1184 q 676 1202 658 1184 q 703 1252 695 1221 l 787 1252 q 722 1140 766 1177 q 621 1103 677 1103 q 580 1110 600 1103 q 538 1133 561 1116 l 515 1149 l 514 1150 q 460 1172 485 1172 q 387 1103 413 1172 l 302 1103 m 324 -20 q 209 -4 259 -20 q 124 42 159 12 q 72 115 90 72 q 54 211 54 157 q 60 283 54 241 q 78 389 66 325 l 199 1013 l 336 1013 l 215 389 q 214 383 214 385 q 213 380 214 382 q 212 374 213 378 q 210 361 212 370 q 194 272 199 311 q 189 212 189 233 q 226 123 189 154 q 336 92 263 92 q 387 96 361 92 q 436 109 412 100 q 479 134 459 119 q 513 172 498 149 q 528 200 520 184 q 543 245 535 217 q 559 307 551 271 q 576 389 568 344 l 697 1013 l 835 1013 l 714 389 q 686 264 700 316 q 654 173 671 212 q 616 107 637 134 q 568 58 595 80 q 457 0 519 19 q 324 -20 395 -20 z "},"V":{"ha":836,"x_min":135,"x_max":897,"o":"m 135 1013 l 269 1013 l 346 129 l 751 1013 l 897 1013 l 410 0 l 235 0 l 135 1013 z "},"W":{"ha":836,"x_min":56,"x_max":933,"o":"m 98 1013 l 228 1013 l 167 192 l 390 734 l 533 734 l 543 191 l 799 1013 l 933 1013 l 587 0 l 456 0 l 435 590 l 183 0 l 56 0 l 98 1013 z "},"Ẃ":{"ha":836,"x_min":56,"x_max":933,"o":"m 593 1265 l 734 1265 l 526 1086 l 417 1086 l 593 1265 m 98 1013 l 228 1013 l 167 192 l 390 734 l 533 734 l 543 191 l 799 1013 l 933 1013 l 587 0 l 456 0 l 435 590 l 183 0 l 56 0 l 98 1013 z "},"Ŵ":{"ha":836,"x_min":56,"x_max":933,"o":"m 500 1267 l 644 1267 l 751 1086 l 661 1086 l 567 1207 l 425 1086 l 322 1086 l 500 1267 m 98 1013 l 228 1013 l 167 192 l 390 734 l 533 734 l 543 191 l 799 1013 l 933 1013 l 587 0 l 456 0 l 435 590 l 183 0 l 56 0 l 98 1013 z "},"Ẅ":{"ha":836,"x_min":78,"x_max":956,"o":"m 361 1086 q 343 1094 350 1086 q 338 1113 336 1101 l 357 1208 q 363 1219 358 1215 q 376 1223 369 1223 l 471 1223 q 489 1216 482 1223 q 493 1197 495 1208 l 475 1102 q 468 1090 473 1095 q 455 1086 463 1086 l 361 1086 m 626 1086 q 608 1094 615 1086 q 604 1113 602 1101 l 622 1208 q 629 1219 623 1215 q 642 1223 634 1223 l 736 1223 q 754 1216 747 1223 q 758 1197 760 1208 l 740 1102 q 733 1090 739 1095 q 720 1086 728 1086 l 626 1086 m 121 1013 l 250 1013 l 189 192 l 412 734 l 555 734 l 566 191 l 821 1013 l 956 1013 l 610 0 l 478 0 l 457 590 l 205 0 l 78 0 l 121 1013 z "},"Ẁ":{"ha":836,"x_min":56,"x_max":933,"o":"m 359 1265 l 483 1265 l 583 1086 l 488 1086 l 359 1265 m 98 1013 l 228 1013 l 167 192 l 390 734 l 533 734 l 543 191 l 799 1013 l 933 1013 l 587 0 l 456 0 l 435 590 l 183 0 l 56 0 l 98 1013 z "},"X":{"ha":836,"x_min":-75,"x_max":918,"o":"m 370 541 l 175 1013 l 311 1013 l 463 652 l 761 1013 l 918 1013 l 513 525 l 733 0 l 597 0 l 425 415 l 81 0 l -75 0 l 370 541 z "},"Y":{"ha":836,"x_min":132,"x_max":914,"o":"m 345 454 l 132 1013 l 269 1013 l 429 571 l 766 1013 l 914 1013 l 484 454 l 396 0 l 256 0 l 345 454 z "},"Ý":{"ha":836,"x_min":132,"x_max":914,"o":"m 625 1261 l 766 1261 l 557 1082 l 449 1082 l 625 1261 m 345 454 l 132 1013 l 269 1013 l 429 571 l 766 1013 l 914 1013 l 484 454 l 396 0 l 256 0 l 345 454 z "},"Ŷ":{"ha":836,"x_min":132,"x_max":914,"o":"m 498 1267 l 643 1267 l 750 1086 l 660 1086 l 566 1207 l 424 1086 l 321 1086 l 498 1267 m 345 454 l 132 1013 l 269 1013 l 429 571 l 766 1013 l 914 1013 l 484 454 l 396 0 l 256 0 l 345 454 z "},"Ÿ":{"ha":836,"x_min":132,"x_max":914,"o":"m 343 1103 q 328 1109 333 1103 q 325 1126 323 1116 l 344 1223 q 366 1241 347 1241 l 463 1241 q 481 1225 481 1241 q 481 1219 481 1221 l 461 1122 q 439 1103 457 1103 l 343 1103 m 608 1103 q 593 1109 598 1103 q 590 1126 588 1116 l 609 1223 q 631 1241 612 1241 l 728 1241 q 743 1235 738 1241 q 746 1219 748 1229 l 727 1122 q 705 1103 724 1103 l 608 1103 m 345 454 l 132 1013 l 269 1013 l 429 571 l 766 1013 l 914 1013 l 484 454 l 396 0 l 256 0 l 345 454 z "},"Ỳ":{"ha":836,"x_min":132,"x_max":914,"o":"m 366 1265 l 490 1265 l 589 1086 l 495 1086 l 366 1265 m 345 454 l 132 1013 l 269 1013 l 429 571 l 766 1013 l 914 1013 l 484 454 l 396 0 l 256 0 l 345 454 z "},"Z":{"ha":836,"x_min":2,"x_max":870,"o":"m 22 104 l 684 897 l 191 897 l 213 1013 l 870 1013 l 850 908 l 186 115 l 711 115 l 688 0 l 2 0 l 22 104 z "},"Ź":{"ha":836,"x_min":-4,"x_max":864,"o":"m 615 1265 l 756 1265 l 548 1086 l 439 1086 l 615 1265 m 16 104 l 677 897 l 184 897 l 207 1013 l 864 1013 l 844 908 l 180 115 l 705 115 l 682 0 l -4 0 l 16 104 z "},"Ž":{"ha":836,"x_min":-4,"x_max":864,"o":"m 366 1262 l 458 1262 l 552 1141 l 694 1262 l 796 1262 l 617 1082 l 473 1082 l 366 1262 m 16 104 l 677 897 l 184 897 l 207 1013 l 864 1013 l 844 908 l 180 115 l 705 115 l 682 0 l -4 0 l 16 104 z "},"Ż":{"ha":836,"x_min":-4,"x_max":864,"o":"m 531 1103 q 514 1111 520 1103 q 509 1130 507 1118 l 528 1227 q 534 1238 529 1234 q 547 1242 540 1242 l 643 1242 q 661 1235 654 1242 q 665 1216 667 1227 l 646 1119 q 640 1107 645 1112 q 627 1103 634 1103 l 531 1103 m 16 104 l 677 897 l 184 897 l 207 1013 l 864 1013 l 844 908 l 180 115 l 705 115 l 682 0 l -4 0 l 16 104 z "},"a":{"ha":836,"x_min":49,"x_max":737,"o":"m 276 -20 q 184 -6 226 -20 q 111 37 142 8 q 64 104 79 66 q 49 190 49 143 q 75 307 49 252 q 153 400 102 361 q 277 459 205 439 q 437 479 349 479 l 604 479 l 612 521 l 614 534 q 615 541 615 537 q 615 545 615 544 q 603 606 615 584 q 572 642 591 628 q 523 664 553 656 q 451 672 493 672 q 390 668 422 672 q 325 655 359 664 q 255 633 290 646 q 182 603 220 621 l 205 725 q 277 748 242 739 q 345 765 311 758 q 409 775 378 772 q 470 778 441 778 q 583 764 532 778 q 668 722 633 751 q 719 657 701 696 q 737 569 737 618 q 733 511 737 547 q 727 471 730 490 q 721 433 724 452 l 636 0 l 525 0 l 533 113 q 418 15 484 49 q 349 -11 384 -3 q 276 -20 315 -20 m 313 85 q 404 103 361 85 q 482 157 446 121 q 545 245 520 195 q 581 354 569 296 l 586 382 l 469 382 q 399 381 429 382 q 349 377 369 380 q 312 370 330 374 q 281 359 294 365 q 243 339 263 352 q 207 300 224 326 q 179 208 179 258 q 190 154 179 176 q 214 118 200 132 q 255 94 231 102 q 313 85 279 85 z "},"á":{"ha":836,"x_min":49,"x_max":766,"o":"m 618 1135 l 766 1135 l 498 880 l 393 880 l 618 1135 m 276 -20 q 184 -6 226 -20 q 111 37 142 8 q 64 104 79 66 q 49 190 49 143 q 75 307 49 252 q 153 400 102 361 q 277 459 205 439 q 437 479 349 479 l 604 479 l 612 521 l 614 534 q 615 541 615 537 q 615 545 615 544 q 603 606 615 584 q 572 642 591 628 q 523 664 553 656 q 451 672 493 672 q 390 668 422 672 q 325 655 359 664 q 255 633 290 646 q 182 603 220 621 l 205 725 q 277 748 242 739 q 345 765 311 758 q 409 775 378 772 q 470 778 441 778 q 583 764 532 778 q 668 722 633 751 q 719 657 701 696 q 737 569 737 618 q 733 511 737 547 q 727 471 730 490 q 721 433 724 452 l 636 0 l 525 0 l 533 113 q 418 15 484 49 q 349 -11 384 -3 q 276 -20 315 -20 m 313 85 q 404 103 361 85 q 482 157 446 121 q 545 245 520 195 q 581 354 569 296 l 586 382 l 469 382 q 399 381 429 382 q 349 377 369 380 q 312 370 330 374 q 281 359 294 365 q 243 339 263 352 q 207 300 224 326 q 179 208 179 258 q 190 154 179 176 q 214 118 200 132 q 255 94 231 102 q 313 85 279 85 z "},"ă":{"ha":836,"x_min":49,"x_max":745,"o":"m 507 880 q 367 923 416 880 q 318 1046 318 966 q 318 1063 318 1058 q 320 1074 319 1069 l 401 1074 l 401 1063 q 431 995 401 1018 q 516 972 460 972 q 609 998 574 972 q 664 1074 644 1023 l 745 1074 q 662 928 722 977 q 507 880 601 880 m 274 -20 q 181 -5 223 -20 q 110 37 140 9 q 65 104 81 64 q 49 192 49 143 q 76 309 49 256 q 154 399 103 361 q 276 458 204 437 q 437 479 348 479 l 604 479 l 612 521 q 614 534 614 527 q 615 547 615 541 q 573 642 615 611 q 451 672 530 672 q 182 603 332 672 l 205 725 q 345 765 279 751 q 470 778 410 778 q 583 763 533 778 q 667 722 633 749 q 719 656 701 695 q 737 569 737 618 q 733 511 737 546 q 721 433 729 476 l 636 0 l 525 0 l 533 113 q 419 15 484 50 q 274 -20 354 -20 m 313 85 q 401 103 358 85 q 479 155 444 121 q 541 239 515 189 q 581 354 568 290 l 586 382 l 469 382 q 402 381 431 382 q 352 377 374 380 q 312 370 330 374 q 281 359 295 366 q 207 300 235 340 q 179 208 179 261 q 214 118 179 151 q 313 85 248 85 z "},"â":{"ha":836,"x_min":49,"x_max":737,"o":"m 489 1135 l 589 1135 l 700 880 l 610 880 l 530 1043 l 378 880 l 272 880 l 489 1135 m 276 -20 q 184 -6 226 -20 q 111 37 142 8 q 64 104 79 66 q 49 190 49 143 q 75 307 49 252 q 153 400 102 361 q 277 459 205 439 q 437 479 349 479 l 604 479 l 612 521 l 614 534 q 615 541 615 537 q 615 545 615 544 q 603 606 615 584 q 572 642 591 628 q 523 664 553 656 q 451 672 493 672 q 390 668 422 672 q 325 655 359 664 q 255 633 290 646 q 182 603 220 621 l 205 725 q 277 748 242 739 q 345 765 311 758 q 409 775 378 772 q 470 778 441 778 q 583 764 532 778 q 668 722 633 751 q 719 657 701 696 q 737 569 737 618 q 733 511 737 547 q 727 471 730 490 q 721 433 724 452 l 636 0 l 525 0 l 533 113 q 418 15 484 49 q 349 -11 384 -3 q 276 -20 315 -20 m 313 85 q 404 103 361 85 q 482 157 446 121 q 545 245 520 195 q 581 354 569 296 l 586 382 l 469 382 q 399 381 429 382 q 349 377 369 380 q 312 370 330 374 q 281 359 294 365 q 243 339 263 352 q 207 300 224 326 q 179 208 179 258 q 190 154 179 176 q 214 118 200 132 q 255 94 231 102 q 313 85 279 85 z "},"ä":{"ha":836,"x_min":49,"x_max":737,"o":"m 321 916 q 306 922 311 916 q 302 938 300 928 l 321 1034 q 343 1053 324 1053 l 440 1053 q 455 1046 450 1053 q 458 1030 460 1040 l 439 934 q 418 916 436 916 l 321 916 m 586 916 q 571 922 576 916 q 568 938 566 928 l 587 1034 q 608 1053 589 1053 l 705 1053 q 721 1046 715 1053 q 724 1030 726 1040 l 705 934 q 683 916 701 916 l 586 916 m 276 -20 q 184 -6 226 -20 q 111 37 142 8 q 64 104 79 66 q 49 190 49 143 q 75 307 49 252 q 153 400 102 361 q 277 459 205 439 q 437 479 349 479 l 604 479 l 612 521 l 614 534 q 615 541 615 537 q 615 547 615 545 q 573 642 615 612 q 522 664 553 656 q 450 672 491 672 q 390 668 421 672 q 325 655 359 664 q 255 633 290 646 q 182 603 220 621 l 205 725 q 277 748 242 739 q 345 765 311 758 q 409 775 378 772 q 470 778 441 778 q 583 764 532 778 q 668 722 633 751 q 719 657 701 696 q 737 569 737 618 q 733 511 737 547 q 727 471 730 490 q 721 433 724 452 l 636 0 l 525 0 l 533 113 q 418 15 484 49 q 349 -11 384 -3 q 276 -20 315 -20 m 313 85 q 404 103 361 85 q 482 157 446 121 q 545 245 520 195 q 581 354 569 296 l 586 382 l 469 382 q 399 381 429 382 q 349 377 369 380 q 312 370 330 374 q 281 359 294 365 q 243 339 263 352 q 207 300 224 326 q 179 208 179 258 q 190 154 179 176 q 214 118 200 132 q 255 94 231 102 q 313 85 279 85 z "},"à":{"ha":836,"x_min":49,"x_max":737,"o":"m 310 1135 l 444 1135 l 578 880 l 481 880 l 310 1135 m 276 -20 q 184 -6 226 -20 q 111 37 142 8 q 64 104 79 66 q 49 190 49 143 q 75 307 49 252 q 153 400 102 361 q 277 459 205 439 q 437 479 349 479 l 604 479 l 612 521 l 614 534 q 615 541 615 537 q 615 545 615 544 q 603 606 615 584 q 572 642 591 628 q 523 664 553 656 q 451 672 493 672 q 390 668 422 672 q 325 655 359 664 q 255 633 290 646 q 182 603 220 621 l 205 725 q 277 748 242 739 q 345 765 311 758 q 409 775 378 772 q 470 778 441 778 q 583 764 532 778 q 668 722 633 751 q 719 657 701 696 q 737 569 737 618 q 733 511 737 547 q 727 471 730 490 q 721 433 724 452 l 636 0 l 525 0 l 533 113 q 418 15 484 49 q 349 -11 384 -3 q 276 -20 315 -20 m 313 85 q 404 103 361 85 q 482 157 446 121 q 545 245 520 195 q 581 354 569 296 l 586 382 l 469 382 q 399 381 429 382 q 349 377 369 380 q 312 370 330 374 q 281 359 294 365 q 243 339 263 352 q 207 300 224 326 q 179 208 179 258 q 190 154 179 176 q 214 118 200 132 q 255 94 231 102 q 313 85 279 85 z "},"ā":{"ha":836,"x_min":49,"x_max":737,"o":"m 318 1014 l 724 1014 l 704 913 l 298 913 l 318 1014 m 274 -20 q 181 -5 223 -20 q 110 37 140 9 q 65 104 81 64 q 49 192 49 143 q 76 309 49 256 q 154 399 103 361 q 276 458 204 437 q 437 479 348 479 l 604 479 l 612 521 q 614 534 614 527 q 615 547 615 541 q 573 642 615 611 q 451 672 530 672 q 182 603 332 672 l 205 725 q 345 765 279 751 q 470 778 410 778 q 583 763 533 778 q 667 722 633 749 q 719 656 701 695 q 737 569 737 618 q 733 511 737 546 q 721 433 729 476 l 636 0 l 525 0 l 533 113 q 419 15 484 50 q 274 -20 354 -20 m 313 85 q 401 103 358 85 q 479 155 444 121 q 541 239 515 189 q 581 354 568 290 l 586 382 l 469 382 q 402 381 431 382 q 352 377 374 380 q 312 370 330 374 q 281 359 295 366 q 207 300 235 340 q 179 208 179 261 q 214 118 179 151 q 313 85 248 85 z "},"ą":{"ha":836,"x_min":49,"x_max":737,"o":"m 589 0 q 526 -73 547 -39 q 504 -136 504 -107 q 520 -172 504 -159 q 569 -184 536 -184 q 611 -179 589 -184 q 655 -164 633 -174 l 638 -254 q 544 -268 591 -268 q 441 -241 477 -268 q 405 -166 405 -214 q 430 -88 405 -128 q 508 0 455 -47 l 511 0 l 533 113 q 419 15 484 50 q 274 -20 354 -20 q 181 -5 223 -20 q 110 37 140 9 q 65 104 81 64 q 49 192 49 143 q 76 309 49 256 q 154 399 103 361 q 276 458 204 437 q 437 479 348 479 l 604 479 l 612 521 q 614 534 614 527 q 615 547 615 541 q 573 642 615 611 q 451 672 530 672 q 182 603 332 672 l 205 725 q 345 765 279 751 q 470 778 410 778 q 583 763 533 778 q 667 722 633 749 q 719 656 701 695 q 737 569 737 618 q 733 511 737 546 q 721 433 729 476 l 636 0 l 589 0 m 313 85 q 401 103 358 85 q 479 155 444 121 q 541 239 515 189 q 581 354 568 290 l 586 382 l 469 382 q 402 381 431 382 q 352 377 374 380 q 312 370 330 374 q 281 359 295 366 q 207 300 235 340 q 179 208 179 261 q 214 118 179 151 q 313 85 248 85 z "},"å":{"ha":836,"x_min":49,"x_max":737,"o":"m 530 896 q 399 950 453 896 q 345 1082 345 1004 q 399 1215 345 1160 q 530 1268 452 1268 q 663 1215 609 1268 q 717 1082 717 1160 q 663 950 717 1004 q 530 896 608 896 m 530 979 q 604 1009 574 979 q 633 1082 633 1039 q 604 1155 633 1125 q 530 1185 574 1185 q 458 1156 487 1185 q 428 1082 428 1126 q 458 1009 428 1039 q 530 979 488 979 m 276 -20 q 184 -6 226 -20 q 111 37 142 8 q 64 104 79 66 q 49 190 49 143 q 75 307 49 252 q 153 400 102 361 q 277 459 205 439 q 437 479 349 479 l 604 479 l 612 521 l 614 534 q 615 541 615 537 q 615 545 615 544 q 603 606 615 584 q 572 642 591 628 q 523 664 553 656 q 451 672 493 672 q 390 668 422 672 q 325 655 359 664 q 255 633 290 646 q 182 603 220 621 l 205 725 q 277 748 242 739 q 345 765 311 758 q 409 775 378 772 q 470 778 441 778 q 583 764 532 778 q 668 722 633 751 q 719 657 701 696 q 737 569 737 618 q 733 511 737 547 q 727 471 730 490 q 721 433 724 452 l 636 0 l 525 0 l 533 113 q 418 15 484 49 q 349 -11 384 -3 q 276 -20 315 -20 m 313 85 q 404 103 361 85 q 482 157 446 121 q 545 245 520 195 q 581 354 569 296 l 586 382 l 469 382 q 399 381 429 382 q 349 377 369 380 q 312 370 330 374 q 281 359 294 365 q 243 339 263 352 q 207 300 224 326 q 179 208 179 258 q 190 154 179 176 q 214 118 200 132 q 255 94 231 102 q 313 85 279 85 z "},"ã":{"ha":836,"x_min":49,"x_max":755,"o":"m 606 880 q 555 890 577 880 q 532 903 545 895 q 505 926 519 911 l 473 960 q 463 969 470 963 q 449 979 456 975 q 424 985 437 985 q 402 980 414 985 q 381 960 391 975 q 359 881 364 934 l 275 881 q 325 1023 286 972 q 425 1072 363 1072 q 476 1062 454 1072 q 500 1047 488 1057 q 525 1025 513 1038 l 557 994 q 570 981 566 984 q 582 973 574 977 q 605 967 593 967 q 630 974 618 967 q 649 994 642 981 q 662 1026 656 1006 q 671 1072 668 1046 l 755 1072 q 738 992 750 1029 q 706 930 726 956 q 661 892 686 904 q 606 880 636 880 m 276 -20 q 184 -6 226 -20 q 111 37 142 8 q 64 104 79 66 q 49 190 49 143 q 75 307 49 252 q 153 400 102 361 q 277 459 205 439 q 437 479 349 479 l 604 479 l 612 521 l 614 534 q 615 541 615 537 q 615 545 615 544 q 603 606 615 584 q 572 642 591 628 q 523 664 553 656 q 451 672 493 672 q 390 668 422 672 q 325 655 359 664 q 255 633 290 646 q 182 603 220 621 l 205 725 q 277 748 242 739 q 345 765 311 758 q 409 775 378 772 q 470 778 441 778 q 583 764 532 778 q 668 722 633 751 q 719 657 701 696 q 737 569 737 618 q 733 511 737 547 q 727 471 730 490 q 721 433 724 452 l 636 0 l 525 0 l 533 113 q 418 15 484 49 q 349 -11 384 -3 q 276 -20 315 -20 m 313 85 q 404 103 361 85 q 482 157 446 121 q 545 245 520 195 q 581 354 569 296 l 586 382 l 469 382 q 399 381 429 382 q 349 377 369 380 q 312 370 330 374 q 281 359 294 365 q 243 339 263 352 q 207 300 224 326 q 179 208 179 258 q 190 154 179 176 q 214 118 200 132 q 255 94 231 102 q 313 85 279 85 z "},"æ":{"ha":836,"x_min":-32,"x_max":823,"o":"m 159 -20 q 77 -6 113 -20 q 19 29 41 7 q -20 92 -9 55 q -32 171 -32 128 q -12 282 -32 230 q 50 372 9 335 q 283 446 132 446 l 363 446 l 375 505 q 378 520 377 515 q 379 534 378 525 q 380 549 380 541 q 380 564 380 557 q 373 613 380 593 q 352 646 366 633 q 319 667 339 659 q 271 675 298 675 q 233 671 253 675 q 193 661 213 667 q 146 642 171 653 q 96 618 121 631 l 119 732 q 173 753 149 745 q 220 766 197 761 q 264 775 243 772 q 305 778 286 778 q 400 755 360 778 q 461 690 439 733 q 498 727 477 710 q 543 755 519 744 q 593 772 567 767 q 644 778 619 778 q 718 765 684 778 q 775 726 751 752 q 811 664 799 700 q 823 588 823 629 q 822 554 823 574 q 818 515 821 535 q 815 495 817 508 q 810 467 813 481 q 805 437 808 452 q 800 410 802 422 l 789 349 l 453 349 q 441 289 445 310 q 435 250 437 267 q 431 218 432 231 q 429 193 429 205 q 438 145 429 165 q 463 111 447 124 q 553 81 496 81 q 649 100 600 81 q 733 154 696 119 l 710 37 q 668 13 691 24 q 625 -5 646 1 q 532 -20 581 -20 q 466 -12 496 -20 q 412 9 435 -5 q 373 43 389 22 q 349 89 357 63 q 269 7 317 35 q 217 -13 245 -6 q 159 -20 189 -20 m 694 446 l 705 496 q 709 517 708 507 q 711 533 711 527 q 712 553 712 541 q 713 572 713 565 q 707 617 713 599 q 689 649 701 636 q 625 675 667 675 q 578 665 602 675 q 534 632 554 656 q 503 576 515 608 q 482 501 492 545 l 471 446 l 694 446 m 181 83 q 272 130 237 83 q 289 157 281 142 q 303 194 296 173 q 317 240 311 214 q 330 300 323 267 l 340 349 l 307 349 q 235 346 262 349 q 187 338 208 344 q 153 323 166 332 q 127 301 139 315 q 108 274 115 288 q 96 245 101 261 q 83 181 83 211 q 89 144 83 163 q 109 110 95 125 q 143 89 124 95 q 181 83 162 83 z "},"b":{"ha":836,"x_min":40,"x_max":751,"o":"m 363 -20 q 252 9 297 -20 q 183 96 207 39 l 152 0 l 40 0 l 245 1055 l 371 1055 l 294 663 q 392 749 336 719 q 517 778 448 778 q 615 761 571 778 q 690 708 659 743 q 751 507 751 639 q 744 413 751 463 q 724 315 737 364 q 692 227 711 270 q 647 144 673 184 q 522 24 594 66 q 444 -9 484 2 q 363 -20 404 -20 m 366 86 q 469 117 422 86 q 511 154 492 132 q 546 206 530 176 q 576 274 563 237 q 599 348 590 311 q 613 425 608 387 q 618 497 618 463 q 610 573 618 539 q 584 630 602 606 q 481 673 549 673 q 426 665 452 673 q 378 642 399 657 q 335 604 356 627 q 297 551 315 581 q 267 486 279 519 q 245 414 254 452 q 230 336 235 374 q 225 264 225 297 q 234 188 225 221 q 261 132 242 155 q 309 96 281 106 q 366 86 336 86 z "},"c":{"ha":836,"x_min":99,"x_max":764,"o":"m 405 -20 q 271 0 327 -20 q 177 57 214 20 q 118 152 138 96 q 99 279 99 208 q 108 382 99 330 q 135 481 117 434 q 178 569 153 528 q 233 644 203 610 q 303 705 266 680 q 372 745 340 730 q 538 778 447 778 q 654 764 598 778 q 709 746 680 757 q 764 720 737 734 l 739 596 q 647 654 695 635 q 543 672 599 672 q 410 642 467 672 q 356 605 381 627 q 311 551 332 582 q 278 493 294 526 q 252 425 263 461 q 231 283 231 351 q 242 199 231 237 q 277 136 253 161 q 333 99 298 112 q 417 86 367 86 q 479 91 448 86 q 541 107 511 96 q 602 135 573 119 q 657 171 631 151 l 631 35 q 576 10 602 19 q 525 -5 551 1 q 466 -16 495 -13 q 405 -20 437 -20 z "},"ć":{"ha":836,"x_min":106,"x_max":825,"o":"m 676 1135 l 825 1135 l 557 880 l 451 880 l 676 1135 m 412 -20 q 277 0 334 -20 q 184 57 221 20 q 125 152 144 96 q 106 279 106 208 q 115 382 106 330 q 142 481 124 434 q 184 569 159 528 q 240 644 210 610 q 310 705 273 680 q 379 745 347 730 q 545 778 454 778 q 661 764 605 778 q 715 746 687 757 q 771 720 744 734 l 746 596 q 654 654 702 635 q 549 672 606 672 q 416 642 474 672 q 363 605 388 627 q 318 551 338 582 q 285 493 300 526 q 259 425 270 461 q 237 283 237 351 q 249 199 237 237 q 283 136 260 161 q 339 99 305 112 q 424 86 374 86 q 486 91 454 86 q 548 107 517 96 q 609 135 580 119 q 664 171 638 151 l 637 35 q 583 10 608 19 q 532 -5 557 1 q 473 -16 502 -13 q 412 -20 444 -20 z "},"č":{"ha":836,"x_min":106,"x_max":808,"o":"m 380 1135 l 469 1135 l 550 970 l 703 1135 l 808 1135 l 591 880 l 492 880 l 380 1135 m 412 -20 q 277 0 334 -20 q 184 57 221 20 q 125 152 144 96 q 106 279 106 208 q 115 382 106 330 q 142 481 124 434 q 184 569 159 528 q 240 644 210 610 q 310 705 273 680 q 379 745 347 730 q 545 778 454 778 q 661 764 605 778 q 715 746 687 757 q 771 720 744 734 l 746 596 q 654 654 702 635 q 549 672 606 672 q 416 642 474 672 q 363 605 388 627 q 318 551 338 582 q 285 493 300 526 q 259 425 270 461 q 237 283 237 351 q 249 199 237 237 q 283 136 260 161 q 339 99 305 112 q 424 86 374 86 q 486 91 454 86 q 548 107 517 96 q 609 135 580 119 q 664 171 638 151 l 637 35 q 583 10 608 19 q 532 -5 557 1 q 473 -16 502 -13 q 412 -20 444 -20 z "},"ç":{"ha":836,"x_min":106,"x_max":771,"o":"m 318 551 q 285 493 300 526 q 259 425 270 461 q 237 283 237 351 q 249 199 237 237 q 283 136 260 161 q 339 99 305 112 q 424 86 374 86 q 486 91 454 86 q 548 107 517 96 q 609 135 580 119 q 664 171 638 151 l 637 35 q 583 10 608 19 q 532 -5 557 1 q 499 -12 515 -9 q 467 -17 483 -15 q 483 -48 476 -33 q 494 -75 489 -62 q 506 -134 506 -106 q 494 -188 506 -163 q 458 -231 482 -212 q 329 -268 412 -268 q 299 -267 315 -268 q 268 -263 283 -266 q 204 -248 237 -258 l 221 -160 q 249 -172 235 -167 q 273 -180 264 -177 q 320 -186 296 -186 q 359 -181 341 -186 q 391 -165 378 -176 q 410 -141 404 -155 q 416 -111 416 -127 q 413 -86 416 -99 q 406 -63 410 -74 q 399 -45 404 -57 q 387 -19 393 -33 q 268 4 318 -16 q 184 57 218 23 q 125 152 144 96 q 106 279 106 208 q 115 382 106 330 q 142 481 124 434 q 184 569 159 528 q 240 644 210 610 q 310 705 273 680 q 379 745 347 730 q 545 778 454 778 q 661 764 605 778 q 715 746 687 757 q 771 720 744 734 l 746 596 q 654 654 702 635 q 549 672 606 672 q 416 642 474 672 q 363 605 388 627 q 318 551 338 582 z "},"ċ":{"ha":836,"x_min":106,"x_max":771,"o":"m 501 914 q 483 930 483 914 q 484 937 483 935 l 503 1034 q 525 1053 506 1053 l 623 1053 q 642 1036 642 1053 q 641 1030 642 1032 l 621 932 q 600 914 617 914 l 501 914 m 411 -20 q 183 56 261 -20 q 106 281 106 132 q 115 381 106 332 q 141 478 124 431 q 183 567 159 525 q 240 644 208 609 q 377 744 300 710 q 546 778 454 778 q 771 720 664 778 l 746 596 q 654 654 701 635 q 548 672 606 672 q 414 641 470 672 q 318 551 359 610 q 284 491 299 524 q 259 425 269 459 q 243 354 248 390 q 237 283 237 318 q 284 134 237 182 q 425 86 330 86 q 547 107 488 86 q 664 171 607 128 l 637 35 q 532 -6 588 8 q 411 -20 475 -20 z "},"d":{"ha":836,"x_min":81,"x_max":850,"o":"m 313 -20 q 214 -1 256 -20 q 142 52 172 17 q 96 137 111 87 q 81 254 81 186 q 87 347 81 298 q 108 446 94 396 q 141 539 122 497 q 182 616 160 582 q 238 688 208 659 q 302 737 268 718 q 373 767 336 757 q 453 778 410 778 q 516 771 488 778 q 570 749 545 764 q 647 663 619 719 l 725 1055 l 850 1055 l 644 0 l 533 0 l 538 96 q 438 9 494 39 q 313 -20 382 -20 m 351 86 q 456 117 409 86 q 498 154 479 132 q 534 207 517 176 q 587 345 568 266 q 601 421 596 382 q 606 493 606 459 q 570 627 606 583 q 526 660 553 648 q 463 672 499 672 q 408 664 434 672 q 360 643 381 656 q 318 606 338 629 q 283 554 298 583 q 255 491 268 527 q 232 416 241 454 q 218 337 222 377 q 214 263 214 298 q 222 184 214 216 q 248 130 231 151 q 351 86 283 86 z "},"ð":{"ha":836,"x_min":81,"x_max":766,"o":"m 350 -20 q 150 54 219 -20 q 97 145 113 92 q 81 264 81 197 q 106 432 81 349 q 140 517 120 477 q 180 586 161 557 q 311 703 233 662 q 392 734 350 724 q 473 745 435 745 q 496 744 485 745 q 524 741 508 743 l 546 739 q 515 794 532 764 q 507 807 512 799 q 495 825 502 816 q 482 845 489 835 q 469 863 475 854 l 268 799 l 248 861 l 433 920 l 338 1055 l 482 1055 l 553 957 l 747 1017 l 766 954 l 590 900 q 663 787 632 842 q 712 683 693 732 q 750 475 750 583 q 744 387 750 432 q 725 298 738 342 q 652 140 700 211 q 592 70 623 99 q 523 21 562 41 q 350 -20 446 -20 m 362 86 q 463 114 416 86 q 547 195 511 141 q 600 322 583 250 q 618 476 618 393 q 616 519 618 500 q 612 556 615 538 q 593 615 606 591 q 541 634 568 628 q 484 640 513 640 q 371 612 420 640 q 288 535 322 585 q 254 476 269 508 q 231 410 240 444 q 217 340 222 376 q 212 270 212 304 q 221 189 212 224 q 251 130 229 154 q 297 98 269 111 q 362 86 325 86 z "},"ď":{"ha":836,"x_min":81,"x_max":1025,"o":"m 312 -20 q 142 51 203 -20 q 81 257 81 121 q 87 350 81 302 q 107 444 94 397 q 139 535 121 491 q 182 616 158 579 q 301 737 233 696 q 452 778 370 778 q 569 749 519 778 q 647 663 618 721 l 725 1055 l 850 1055 l 644 0 l 533 0 l 538 96 q 437 9 493 38 q 312 -20 382 -20 m 892 1053 l 1025 1053 l 899 800 l 804 800 l 892 1053 m 351 86 q 456 117 411 86 q 534 207 502 148 q 564 272 551 236 q 586 345 577 307 q 601 420 595 382 q 606 491 606 457 q 569 628 606 585 q 462 672 532 672 q 358 642 401 672 q 283 554 315 611 q 254 489 267 524 q 232 416 241 454 q 218 339 223 378 q 214 266 214 301 q 247 130 214 174 q 351 86 281 86 z "},"đ":{"ha":836,"x_min":81,"x_max":960,"o":"m 313 -20 q 214 -1 256 -20 q 142 52 172 17 q 96 137 111 87 q 81 254 81 186 q 87 347 81 298 q 108 446 94 396 q 141 539 122 497 q 182 616 160 582 q 238 688 208 659 q 302 737 268 718 q 373 767 336 757 q 453 778 410 778 q 516 771 488 778 q 570 749 545 764 q 647 663 619 719 l 689 872 l 464 872 l 481 954 l 704 954 l 725 1055 l 850 1055 l 829 954 l 960 954 l 945 872 l 814 872 l 644 0 l 533 0 l 538 96 q 438 9 494 39 q 313 -20 382 -20 m 351 86 q 456 117 409 86 q 498 154 479 132 q 534 207 517 176 q 587 345 568 266 q 601 421 596 382 q 606 493 606 459 q 570 627 606 583 q 526 660 553 648 q 463 672 499 672 q 408 664 434 672 q 360 643 381 656 q 318 606 338 629 q 283 554 298 583 q 255 491 268 527 q 232 416 241 454 q 218 337 222 377 q 214 263 214 298 q 222 184 214 216 q 248 130 231 151 q 351 86 283 86 z "},"e":{"ha":836,"x_min":66,"x_max":764,"o":"m 378 -20 q 240 0 297 -20 q 144 56 182 20 q 66 278 66 132 q 107 484 66 382 q 220 660 148 586 q 281 713 250 692 q 345 749 311 734 q 414 772 379 764 q 488 779 449 779 q 602 759 552 779 q 688 702 652 739 q 745 610 726 663 q 764 494 764 557 q 763 467 764 480 q 760 437 762 454 q 756 405 759 427 q 749 350 754 382 l 201 350 q 195 311 197 330 q 193 277 193 293 q 245 136 193 186 q 309 98 271 111 q 396 86 347 86 q 460 91 428 86 q 528 106 492 96 q 676 163 600 125 l 652 39 q 581 13 613 23 q 513 -5 548 3 q 447 -16 479 -12 q 378 -20 415 -20 m 636 447 q 640 464 638 456 q 642 477 641 471 q 643 489 642 483 q 643 503 643 494 q 599 627 643 581 q 546 661 577 650 q 479 672 515 672 q 399 658 438 672 q 323 611 359 644 q 266 541 292 583 q 225 447 240 500 l 636 447 z "},"é":{"ha":836,"x_min":66,"x_max":764,"o":"m 615 1135 l 764 1135 l 496 880 l 390 880 l 615 1135 m 378 -20 q 240 0 297 -20 q 144 56 182 20 q 66 278 66 132 q 107 484 66 382 q 220 660 148 586 q 281 713 250 692 q 345 749 311 734 q 414 772 379 764 q 488 779 449 779 q 602 759 552 779 q 688 702 652 739 q 745 610 726 663 q 764 494 764 557 q 763 467 764 480 q 760 437 762 454 q 756 405 759 427 q 749 350 754 382 l 201 350 q 195 311 197 330 q 193 277 193 293 q 245 136 193 186 q 309 98 271 111 q 396 86 347 86 q 460 91 428 86 q 528 106 492 96 q 676 163 600 125 l 652 39 q 581 13 613 23 q 513 -5 548 3 q 447 -16 479 -12 q 378 -20 415 -20 m 636 447 q 640 464 638 456 q 642 477 641 471 q 643 489 642 483 q 643 503 643 494 q 599 627 643 581 q 546 661 577 650 q 479 672 515 672 q 399 658 438 672 q 323 611 359 644 q 266 541 292 583 q 225 447 240 500 l 636 447 z "},"ě":{"ha":836,"x_min":66,"x_max":785,"o":"m 357 1135 l 446 1135 l 526 970 l 679 1135 l 785 1135 l 568 880 l 468 880 l 357 1135 m 377 -20 q 145 56 223 -20 q 66 276 66 131 q 77 382 66 329 q 107 484 87 435 q 155 578 127 534 q 220 660 184 623 q 344 749 277 719 q 488 779 412 779 q 601 759 550 779 q 688 702 652 739 q 744 612 724 665 q 764 496 764 559 q 760 437 764 471 q 749 350 757 403 l 201 350 q 195 311 197 328 q 193 275 193 293 q 245 136 193 185 q 396 86 296 86 q 528 105 457 86 q 676 163 598 124 l 652 39 q 512 -5 580 9 q 377 -20 445 -20 m 636 447 q 642 477 640 465 q 643 501 643 490 q 631 573 643 541 q 598 627 620 605 q 547 661 577 649 q 479 672 517 672 q 396 656 435 672 q 323 611 356 640 q 265 539 290 581 q 225 447 240 498 l 636 447 z "},"ê":{"ha":836,"x_min":66,"x_max":764,"o":"m 486 1135 l 586 1135 l 697 880 l 607 880 l 528 1043 l 375 880 l 269 880 l 486 1135 m 378 -20 q 240 0 297 -20 q 144 56 182 20 q 66 278 66 132 q 107 484 66 382 q 220 660 148 586 q 281 713 250 692 q 345 749 311 734 q 414 772 379 764 q 488 779 449 779 q 602 759 552 779 q 688 702 652 739 q 745 610 726 663 q 764 494 764 557 q 763 467 764 480 q 760 437 762 454 q 756 405 759 427 q 749 350 754 382 l 201 350 q 195 311 197 330 q 193 277 193 293 q 245 136 193 186 q 309 98 271 111 q 396 86 347 86 q 460 91 428 86 q 528 106 492 96 q 676 163 600 125 l 652 39 q 581 13 613 23 q 513 -5 548 3 q 447 -16 479 -12 q 378 -20 415 -20 m 636 447 q 640 464 638 456 q 642 477 641 471 q 643 489 642 483 q 643 503 643 494 q 599 627 643 581 q 546 661 577 650 q 479 672 515 672 q 399 658 438 672 q 323 611 359 644 q 266 541 292 583 q 225 447 240 500 l 636 447 z "},"ë":{"ha":836,"x_min":66,"x_max":764,"o":"m 318 916 q 303 922 308 916 q 300 938 298 928 l 319 1034 q 340 1053 321 1053 l 437 1053 q 453 1046 448 1053 q 456 1030 458 1040 l 437 934 q 415 916 433 916 l 318 916 m 583 916 q 568 922 573 916 q 565 938 563 928 l 584 1034 q 606 1053 587 1053 l 703 1053 q 718 1046 713 1053 q 721 1030 723 1040 l 702 934 q 680 916 699 916 l 583 916 m 378 -20 q 240 0 297 -20 q 144 56 182 20 q 66 278 66 132 q 107 484 66 382 q 220 660 148 586 q 281 713 250 692 q 345 749 311 734 q 414 772 379 764 q 488 779 449 779 q 602 759 552 779 q 688 702 652 739 q 745 610 726 663 q 764 494 764 557 q 763 467 764 480 q 760 437 762 454 q 756 405 759 427 q 749 350 754 382 l 201 350 q 195 311 197 330 q 193 277 193 293 q 245 136 193 186 q 309 98 271 111 q 396 86 347 86 q 460 91 428 86 q 528 106 492 96 q 676 163 600 125 l 652 39 q 581 13 613 23 q 513 -5 548 3 q 447 -16 479 -12 q 378 -20 415 -20 m 636 447 q 640 464 638 456 q 642 477 641 471 q 643 489 642 483 q 643 503 643 494 q 599 627 643 581 q 546 661 577 650 q 479 672 515 672 q 399 658 438 672 q 323 611 359 644 q 266 541 292 583 q 225 447 240 500 l 636 447 z "},"ė":{"ha":836,"x_min":66,"x_max":764,"o":"m 460 915 q 441 931 441 915 q 442 937 441 935 l 462 1035 q 484 1053 465 1053 l 582 1053 q 600 1037 600 1053 q 600 1031 600 1033 l 580 933 q 558 915 576 915 l 460 915 m 377 -20 q 145 56 223 -20 q 66 276 66 131 q 77 382 66 329 q 107 484 87 435 q 155 578 127 534 q 220 660 184 623 q 344 749 277 719 q 488 779 412 779 q 601 759 550 779 q 688 702 652 739 q 744 612 724 665 q 764 496 764 559 q 760 437 764 471 q 749 350 757 403 l 201 350 q 195 311 197 328 q 193 275 193 293 q 245 136 193 185 q 396 86 296 86 q 528 105 457 86 q 676 163 598 124 l 652 39 q 512 -5 580 9 q 377 -20 445 -20 m 636 447 q 642 477 640 465 q 643 501 643 490 q 631 573 643 541 q 598 627 620 605 q 547 661 577 649 q 479 672 517 672 q 396 656 435 672 q 323 611 356 640 q 265 539 290 581 q 225 447 240 498 l 636 447 z "},"è":{"ha":836,"x_min":66,"x_max":764,"o":"m 307 1135 l 441 1135 l 575 880 l 478 880 l 307 1135 m 378 -20 q 240 0 297 -20 q 144 56 182 20 q 66 278 66 132 q 107 484 66 382 q 220 660 148 586 q 281 713 250 692 q 345 749 311 734 q 414 772 379 764 q 488 779 449 779 q 602 759 552 779 q 688 702 652 739 q 745 610 726 663 q 764 494 764 557 q 763 467 764 480 q 760 437 762 454 q 756 405 759 427 q 749 350 754 382 l 201 350 q 195 311 197 330 q 193 277 193 293 q 245 136 193 186 q 309 98 271 111 q 396 86 347 86 q 460 91 428 86 q 528 106 492 96 q 676 163 600 125 l 652 39 q 581 13 613 23 q 513 -5 548 3 q 447 -16 479 -12 q 378 -20 415 -20 m 636 447 q 640 464 638 456 q 642 477 641 471 q 643 489 642 483 q 643 503 643 494 q 599 627 643 581 q 546 661 577 650 q 479 672 515 672 q 399 658 438 672 q 323 611 359 644 q 266 541 292 583 q 225 447 240 500 l 636 447 z "},"ē":{"ha":836,"x_min":66,"x_max":764,"o":"m 342 1008 l 747 1008 l 728 907 l 322 907 l 342 1008 m 377 -20 q 145 56 223 -20 q 66 276 66 131 q 77 382 66 329 q 107 484 87 435 q 155 578 127 534 q 220 660 184 623 q 344 749 277 719 q 488 779 412 779 q 601 759 550 779 q 688 702 652 739 q 744 612 724 665 q 764 496 764 559 q 760 437 764 471 q 749 350 757 403 l 201 350 q 195 311 197 328 q 193 275 193 293 q 245 136 193 185 q 396 86 296 86 q 528 105 457 86 q 676 163 598 124 l 652 39 q 512 -5 580 9 q 377 -20 445 -20 m 636 447 q 642 477 640 465 q 643 501 643 490 q 631 573 643 541 q 598 627 620 605 q 547 661 577 649 q 479 672 517 672 q 396 656 435 672 q 323 611 356 640 q 265 539 290 581 q 225 447 240 498 l 636 447 z "},"ę":{"ha":836,"x_min":66,"x_max":764,"o":"m 201 350 q 195 311 197 328 q 193 275 193 293 q 245 136 193 185 q 396 86 296 86 q 528 105 457 86 q 676 163 598 124 l 652 39 q 534 0 591 14 q 471 -73 492 -39 q 449 -136 449 -107 q 465 -172 449 -159 q 514 -184 481 -184 q 556 -179 534 -184 q 600 -164 578 -174 l 583 -254 q 489 -268 536 -268 q 386 -241 422 -268 q 350 -166 350 -214 q 371 -95 350 -132 q 435 -17 391 -59 q 406 -19 420 -18 q 377 -20 391 -20 q 145 56 223 -20 q 66 276 66 131 q 77 382 66 329 q 107 484 87 435 q 155 578 127 534 q 220 660 184 623 q 344 749 277 719 q 488 779 412 779 q 601 759 550 779 q 688 702 652 739 q 744 612 724 665 q 764 496 764 559 q 760 437 764 471 q 749 350 757 403 l 201 350 m 479 672 q 396 656 435 672 q 323 611 356 640 q 265 539 290 581 q 225 447 240 498 l 636 447 q 642 477 640 465 q 643 501 643 490 q 631 573 643 541 q 598 627 620 605 q 547 661 577 649 q 479 672 517 672 z "},"f":{"ha":836,"x_min":152,"x_max":817,"o":"m 355 663 l 152 663 l 172 760 l 373 760 l 384 812 q 420 927 398 882 q 475 1000 442 971 q 556 1042 509 1028 q 667 1055 604 1055 l 817 1055 l 796 951 l 655 951 q 558 924 591 951 q 530 884 541 908 q 512 827 519 860 l 498 760 l 759 760 l 741 663 l 480 663 l 351 0 l 226 0 l 355 663 z "},"g":{"ha":836,"x_min":40,"x_max":777,"o":"m 255 -298 q 199 -296 226 -298 q 145 -289 172 -294 q 40 -261 92 -280 l 65 -138 q 117 -164 92 -153 q 168 -183 141 -176 q 275 -199 222 -199 q 432 -144 376 -199 q 480 -73 460 -117 q 513 36 499 -29 l 529 115 q 431 26 489 56 q 368 2 400 10 q 300 -5 335 -5 q 204 13 247 -5 q 130 67 161 31 q 84 155 99 104 q 69 270 69 206 q 76 359 69 313 q 96 453 83 406 q 172 618 123 545 q 229 687 199 659 q 293 736 258 715 q 439 778 363 778 q 559 745 507 778 q 602 707 583 730 q 633 654 621 685 l 665 757 l 777 757 l 639 49 q 513 -217 603 -136 q 255 -298 422 -298 m 348 98 q 398 106 374 98 q 446 129 422 113 q 522 216 490 159 q 553 284 540 248 q 574 353 567 321 q 588 429 584 391 q 593 497 593 467 q 555 627 593 583 q 509 661 536 650 q 450 672 483 672 q 349 641 393 672 q 273 558 304 610 q 220 431 239 503 q 201 286 201 359 q 212 196 201 229 q 239 144 222 163 q 287 110 259 122 q 348 98 315 98 z "},"ğ":{"ha":836,"x_min":40,"x_max":777,"o":"m 507 880 q 368 922 418 880 q 329 978 340 946 q 318 1049 318 1010 q 318 1060 318 1058 q 319 1063 319 1062 q 319 1067 319 1065 q 320 1074 319 1069 l 401 1074 l 401 1063 q 431 996 401 1019 q 517 972 460 972 q 608 998 573 972 q 640 1029 626 1010 q 664 1074 654 1048 l 745 1074 q 714 991 734 1028 q 663 929 693 954 q 507 880 602 880 m 255 -298 q 199 -296 226 -298 q 145 -289 172 -294 q 40 -261 92 -280 l 65 -138 q 117 -164 92 -153 q 168 -183 141 -176 q 275 -199 222 -199 q 432 -144 376 -199 q 480 -73 460 -117 q 513 36 499 -29 l 529 115 q 431 26 489 56 q 368 2 400 10 q 300 -5 335 -5 q 204 13 247 -5 q 130 67 161 31 q 84 155 99 104 q 69 270 69 206 q 76 359 69 313 q 96 453 83 406 q 172 618 123 545 q 229 687 199 659 q 293 736 258 715 q 439 778 363 778 q 559 745 507 778 q 602 707 583 730 q 633 654 621 685 l 665 757 l 777 757 l 639 49 q 513 -217 603 -136 q 255 -298 422 -298 m 348 98 q 398 106 374 98 q 446 129 422 113 q 522 216 490 159 q 553 284 540 248 q 574 353 567 321 q 588 429 584 391 q 593 497 593 467 q 555 627 593 583 q 509 661 536 650 q 450 672 483 672 q 349 641 393 672 q 273 558 304 610 q 220 431 239 503 q 201 286 201 359 q 212 196 201 229 q 239 144 222 163 q 287 110 259 122 q 348 98 315 98 z "},"ǧ":{"ha":836,"x_min":40,"x_max":777,"o":"m 319 1135 l 408 1135 l 489 970 l 642 1135 l 747 1135 l 530 880 l 431 880 l 319 1135 m 256 -298 q 144 -289 198 -298 q 40 -261 91 -279 l 65 -138 q 168 -183 115 -168 q 277 -199 220 -199 q 367 -185 329 -199 q 434 -143 406 -172 q 481 -70 462 -115 q 513 36 500 -26 l 529 115 q 429 24 489 54 q 300 -5 369 -5 q 204 13 247 -5 q 131 66 161 31 q 85 153 101 102 q 69 272 69 205 q 76 362 69 316 q 97 453 83 408 q 129 540 110 498 q 172 618 148 582 q 228 685 197 655 q 292 735 258 715 q 363 767 326 756 q 439 778 401 778 q 559 745 508 778 q 633 654 610 712 l 665 757 l 777 757 l 639 49 q 591 -106 621 -41 q 514 -214 560 -172 q 404 -278 468 -257 q 256 -298 340 -298 m 344 98 q 522 216 456 98 q 551 281 538 245 q 573 353 564 316 q 588 426 583 390 q 593 494 593 463 q 555 627 593 582 q 452 672 518 672 q 380 656 414 672 q 318 614 346 641 q 269 550 290 587 q 232 470 247 513 q 209 382 217 428 q 201 291 201 336 q 211 203 201 239 q 239 143 221 167 q 284 109 258 120 q 344 98 311 98 z "},"ģ":{"ha":836,"x_min":40,"x_max":777,"o":"m 545 1095 l 644 1095 l 535 861 l 373 861 l 545 1095 m 256 -298 q 144 -289 198 -298 q 40 -261 91 -279 l 65 -138 q 168 -183 115 -168 q 277 -199 220 -199 q 367 -185 329 -199 q 434 -143 406 -172 q 481 -70 462 -115 q 513 36 500 -26 l 529 115 q 429 24 489 54 q 300 -5 369 -5 q 204 13 247 -5 q 131 66 161 31 q 85 153 101 102 q 69 272 69 205 q 76 362 69 316 q 97 453 83 408 q 129 540 110 498 q 172 618 148 582 q 228 685 197 655 q 292 735 258 715 q 363 767 326 756 q 439 778 401 778 q 559 745 508 778 q 633 654 610 712 l 665 757 l 777 757 l 639 49 q 591 -106 621 -41 q 514 -214 560 -172 q 404 -278 468 -257 q 256 -298 340 -298 m 344 98 q 522 216 456 98 q 551 281 538 245 q 573 353 564 316 q 588 426 583 390 q 593 494 593 463 q 555 627 593 582 q 452 672 518 672 q 380 656 414 672 q 318 614 346 641 q 269 550 290 587 q 232 470 247 513 q 209 382 217 428 q 201 291 201 336 q 211 203 201 239 q 239 143 221 167 q 284 109 258 120 q 344 98 311 98 z "},"ġ":{"ha":836,"x_min":40,"x_max":777,"o":"m 450 914 q 432 930 432 914 q 433 937 432 935 l 452 1034 q 474 1053 455 1053 l 572 1053 q 591 1036 591 1053 q 590 1030 591 1032 l 570 932 q 549 914 566 914 l 450 914 m 256 -298 q 144 -289 198 -298 q 40 -261 91 -279 l 65 -138 q 168 -183 115 -168 q 277 -199 220 -199 q 367 -185 329 -199 q 434 -143 406 -172 q 481 -70 462 -115 q 513 36 500 -26 l 529 115 q 429 24 489 54 q 300 -5 369 -5 q 204 13 247 -5 q 131 66 161 31 q 85 153 101 102 q 69 272 69 205 q 76 362 69 316 q 97 453 83 408 q 129 540 110 498 q 172 618 148 582 q 228 685 197 655 q 292 735 258 715 q 363 767 326 756 q 439 778 401 778 q 559 745 508 778 q 633 654 610 712 l 665 757 l 777 757 l 639 49 q 591 -106 621 -41 q 514 -214 560 -172 q 404 -278 468 -257 q 256 -298 340 -298 m 344 98 q 522 216 456 98 q 551 281 538 245 q 573 353 564 316 q 588 426 583 390 q 593 494 593 463 q 555 627 593 582 q 452 672 518 672 q 380 656 414 672 q 318 614 346 641 q 269 550 290 587 q 232 470 247 513 q 209 382 217 428 q 201 291 201 336 q 211 203 201 239 q 239 143 221 167 q 284 109 258 120 q 344 98 311 98 z "},"h":{"ha":836,"x_min":57,"x_max":743,"o":"m 262 1055 l 387 1055 l 309 646 q 419 745 359 711 q 479 769 448 761 q 547 778 509 778 q 629 766 592 778 q 691 729 665 753 q 730 670 717 705 q 743 595 743 635 q 742 567 743 583 q 740 538 741 551 q 736 509 739 524 q 729 471 734 494 l 637 0 l 513 0 l 604 471 q 606 477 606 477 q 606 481 605 477 q 611 505 609 495 q 614 523 612 515 q 616 538 615 531 q 616 554 616 545 q 609 605 616 584 q 585 640 601 625 q 495 669 554 669 q 348 606 408 669 q 265 429 288 543 l 182 0 l 57 0 l 262 1055 z "},"ħ":{"ha":836,"x_min":30,"x_max":714,"o":"m 197 861 l 113 861 l 134 972 l 219 972 l 235 1055 l 359 1055 l 344 972 l 583 972 l 562 861 l 322 861 l 280 646 q 389 745 326 711 q 532 778 452 778 q 625 761 589 778 q 681 717 661 744 q 707 655 701 690 q 714 585 714 620 q 711 529 714 555 q 701 471 707 502 l 610 0 l 485 0 l 576 471 q 585 549 585 515 q 580 593 585 571 q 563 631 576 614 q 528 659 551 648 q 467 669 505 669 q 388 654 425 669 q 322 610 351 640 q 271 535 292 580 q 238 429 250 490 l 155 0 l 30 0 l 197 861 z "},"i":{"ha":836,"x_min":212,"x_max":669,"o":"m 425 897 q 410 903 415 897 q 407 920 405 909 l 430 1037 q 452 1055 433 1055 l 536 1055 q 551 1049 546 1055 q 554 1033 556 1043 l 531 916 q 509 897 528 897 l 425 897 m 508 -3 q 334 41 390 -3 q 276 171 276 84 q 277 194 276 182 q 279 218 278 205 q 283 247 281 232 q 289 277 286 262 l 379 662 l 212 662 l 232 760 l 524 760 l 414 274 q 409 250 411 263 q 407 232 408 237 q 405 215 406 221 q 404 201 404 208 q 434 127 404 151 q 526 103 465 103 l 669 103 l 648 -3 l 508 -3 z "},"ı":{"ha":836,"x_min":212,"x_max":669,"o":"m 508 -3 q 334 41 390 -3 q 276 171 276 84 q 277 194 276 182 q 279 218 278 205 q 283 247 281 232 q 289 277 286 262 l 379 662 l 212 662 l 232 760 l 524 760 l 414 274 q 409 250 411 263 q 407 232 408 237 q 405 215 406 221 q 404 201 404 208 q 434 127 404 151 q 526 103 465 103 l 669 103 l 648 -3 l 508 -3 l 508 -3 z "},"í":{"ha":836,"x_min":212,"x_max":710,"o":"m 562 1135 l 710 1135 l 442 880 l 336 880 l 562 1135 m 508 -3 q 334 41 390 -3 q 276 171 276 84 q 277 194 276 182 q 279 218 278 205 q 283 247 281 232 q 289 277 286 262 l 379 662 l 212 662 l 232 760 l 524 760 l 414 274 q 409 250 411 263 q 407 232 408 237 q 405 215 406 221 q 404 201 404 208 q 434 127 404 151 q 526 103 465 103 l 669 103 l 648 -3 l 508 -3 z "},"î":{"ha":836,"x_min":212,"x_max":677,"o":"m 467 1135 l 566 1135 l 677 880 l 587 880 l 508 1043 l 355 880 l 250 880 l 467 1135 m 508 -3 q 334 41 390 -3 q 276 171 276 84 q 277 194 276 182 q 279 218 278 205 q 283 247 281 232 q 289 277 286 262 l 379 662 l 212 662 l 232 760 l 524 760 l 414 274 q 409 250 411 263 q 407 232 408 237 q 405 215 406 221 q 404 201 404 208 q 434 127 404 151 q 526 103 465 103 l 669 103 l 648 -3 l 508 -3 z "},"ï":{"ha":836,"x_min":212,"x_max":669,"o":"m 258 916 q 242 922 248 916 q 239 938 237 928 l 258 1034 q 280 1053 261 1053 l 377 1053 q 392 1046 387 1053 q 395 1030 397 1040 l 376 934 q 355 916 373 916 l 258 916 m 523 916 q 508 922 513 916 q 505 938 503 928 l 524 1034 q 545 1053 526 1053 l 642 1053 q 657 1046 652 1053 q 661 1030 663 1040 l 642 934 q 620 916 638 916 l 523 916 m 508 -3 q 334 41 390 -3 q 276 171 276 84 q 277 194 276 182 q 279 218 278 205 q 283 247 281 232 q 289 277 286 262 l 379 662 l 212 662 l 232 760 l 524 760 l 414 274 q 409 250 411 263 q 407 232 408 237 q 405 215 406 221 q 404 201 404 208 q 434 127 404 151 q 526 103 465 103 l 669 103 l 648 -3 l 508 -3 z "},"ì":{"ha":836,"x_min":212,"x_max":669,"o":"m 260 1116 l 394 1116 l 528 861 l 431 861 l 260 1116 m 508 -3 q 334 41 390 -3 q 276 171 276 84 q 277 194 276 182 q 279 218 278 205 q 283 247 281 232 q 289 277 286 262 l 379 662 l 212 662 l 232 760 l 524 760 l 414 274 q 409 250 411 263 q 407 232 408 237 q 405 215 406 221 q 404 201 404 208 q 434 127 404 151 q 526 103 465 103 l 669 103 l 648 -3 l 508 -3 z "},"ī":{"ha":836,"x_min":212,"x_max":683,"o":"m 277 996 l 683 996 l 663 895 l 258 895 l 277 996 m 508 -3 q 334 41 390 -3 q 276 171 276 84 q 277 194 276 182 q 279 218 278 205 q 283 247 281 232 q 289 277 286 262 l 379 662 l 212 662 l 232 760 l 524 760 l 414 274 q 409 250 411 263 q 407 232 408 237 q 405 215 406 221 q 404 201 404 208 q 434 127 404 151 q 526 103 465 103 l 669 103 l 648 -3 l 508 -3 z "},"į":{"ha":836,"x_min":212,"x_max":669,"o":"m 428 897 q 413 903 418 897 q 410 920 408 909 l 433 1037 q 454 1055 435 1055 l 538 1055 q 554 1049 549 1055 q 557 1033 559 1043 l 534 916 q 512 897 530 897 l 428 897 m 525 -3 q 472 -68 490 -38 q 454 -125 454 -99 q 470 -161 454 -149 q 519 -174 486 -174 q 561 -169 538 -174 q 605 -153 583 -163 l 588 -243 q 494 -257 541 -257 q 391 -230 427 -257 q 355 -155 355 -203 q 377 -81 355 -119 q 447 1 399 -43 q 334 41 373 10 q 276 171 276 84 q 277 194 276 182 q 279 218 278 205 q 283 247 281 232 q 289 277 286 261 l 379 662 l 212 662 l 232 760 l 524 760 l 414 274 q 409 251 411 263 q 407 232 408 238 q 405 215 406 220 q 404 202 404 209 q 434 127 404 151 q 526 103 465 103 l 669 103 l 648 -3 l 525 -3 z "},"ĩ":{"ha":836,"x_min":212,"x_max":706,"o":"m 554 861 q 507 870 531 861 q 456 908 484 880 l 424 941 q 374 966 399 966 q 330 939 345 966 q 310 863 315 912 l 225 863 q 274 1004 237 954 q 376 1054 312 1054 q 427 1043 404 1054 q 475 1007 450 1033 l 507 975 q 531 955 521 962 q 555 949 541 949 q 621 1054 610 949 l 706 1054 q 656 910 694 959 q 554 861 618 861 m 508 -3 q 334 41 390 -3 q 276 171 276 84 q 277 194 276 182 q 279 218 278 205 q 283 247 281 232 q 289 277 286 261 l 379 662 l 212 662 l 232 760 l 524 760 l 414 274 q 409 251 411 263 q 407 232 408 238 q 405 215 406 220 q 404 202 404 209 q 434 127 404 151 q 526 103 465 103 l 669 103 l 648 -3 l 508 -3 z "},"j":{"ha":836,"x_min":16,"x_max":681,"o":"m 550 897 q 535 903 540 897 q 532 920 530 909 l 555 1037 q 576 1055 557 1055 l 661 1055 q 676 1049 671 1055 q 679 1033 681 1043 l 656 916 q 634 897 652 897 l 550 897 m 37 -183 l 195 -183 q 252 -173 226 -183 q 297 -143 278 -163 q 351 -14 334 -104 l 481 663 l 267 663 l 286 760 l 626 760 l 476 -14 q 440 -134 463 -79 q 380 -224 417 -188 q 189 -289 311 -289 l 16 -289 l 37 -183 z "},"k":{"ha":836,"x_min":61,"x_max":817,"o":"m 267 1055 l 396 1055 l 281 463 l 653 760 l 817 760 l 464 473 l 717 0 l 572 0 l 364 395 l 250 304 l 191 0 l 61 0 l 267 1055 z "},"ķ":{"ha":836,"x_min":61,"x_max":817,"o":"m 267 1055 l 396 1055 l 281 463 l 653 760 l 817 760 l 464 473 l 717 0 l 572 0 l 364 395 l 250 304 l 191 0 l 61 0 l 267 1055 m 323 -135 l 486 -135 l 313 -369 l 214 -369 l 323 -135 z "},"l":{"ha":836,"x_min":211,"x_max":663,"o":"m 501 -5 q 327 38 383 -5 q 284 91 299 59 q 269 168 269 123 q 270 191 269 180 q 273 216 271 203 q 276 242 274 229 q 282 274 279 256 l 425 958 l 211 958 l 231 1055 l 570 1055 l 407 271 q 403 252 404 259 q 402 240 402 244 q 401 234 401 235 q 401 231 401 232 q 399 222 401 227 q 397 200 397 217 q 427 125 397 149 q 519 100 458 100 l 663 100 l 642 -5 l 501 -5 l 501 -5 z "},"ĺ":{"ha":836,"x_min":211,"x_max":744,"o":"m 603 1289 l 744 1289 l 536 1110 l 427 1110 l 603 1289 m 501 -5 q 269 166 269 -5 q 273 218 269 189 q 282 274 277 246 l 425 958 l 211 958 l 231 1055 l 570 1055 l 407 271 q 397 196 397 224 q 428 125 397 149 q 519 100 458 100 l 663 100 l 642 -5 l 501 -5 z "},"ľ":{"ha":836,"x_min":211,"x_max":838,"o":"m 501 -5 q 269 166 269 -5 q 273 218 269 189 q 282 274 277 246 l 425 958 l 211 958 l 231 1055 l 570 1055 l 407 271 q 397 196 397 224 q 428 125 397 149 q 519 100 458 100 l 663 100 l 642 -5 l 501 -5 m 690 1055 l 838 1055 l 697 800 l 591 800 l 690 1055 z "},"ļ":{"ha":836,"x_min":211,"x_max":663,"o":"m 501 -5 q 269 166 269 -5 q 273 218 269 189 q 282 274 277 246 l 425 958 l 211 958 l 231 1055 l 570 1055 l 407 271 q 397 196 397 224 q 428 125 397 149 q 519 100 458 100 l 663 100 l 642 -5 l 501 -5 m 347 -135 l 509 -135 l 337 -369 l 238 -369 l 347 -135 z "},"ł":{"ha":836,"x_min":60,"x_max":755,"o":"m 501 -5 q 396 6 437 -5 q 327 38 354 18 q 269 170 269 81 q 270 194 269 182 q 273 220 271 207 q 277 249 275 237 q 282 274 279 260 l 322 468 l 110 319 l 60 387 l 347 585 l 425 958 l 211 958 l 231 1055 l 570 1055 l 492 682 l 705 829 l 755 763 l 468 564 l 407 271 q 403 249 405 261 q 400 228 401 237 q 398 211 399 218 q 397 197 397 204 q 405 154 397 172 q 428 125 412 137 q 465 107 443 113 q 519 100 486 100 l 663 100 l 642 -5 l 501 -5 l 501 -5 z "},"m":{"ha":836,"x_min":-9,"x_max":799,"o":"m 138 760 l 238 760 l 239 694 q 307 757 268 735 q 388 778 344 778 q 469 753 438 778 q 507 682 500 728 q 539 724 521 706 q 576 753 557 742 q 622 772 597 766 q 669 778 646 778 q 722 769 698 778 q 764 742 747 760 q 792 693 785 720 q 799 640 799 665 q 798 604 799 626 q 793 559 796 582 q 789 534 791 547 q 785 508 787 522 q 780 478 783 494 q 772 440 777 461 l 686 0 l 572 0 l 657 435 q 662 460 659 445 q 668 491 665 476 q 673 519 671 507 q 676 537 675 532 q 681 571 680 555 q 682 597 682 587 q 678 629 682 614 q 667 654 674 645 q 616 673 652 673 q 570 663 589 673 q 538 630 551 652 q 508 558 522 604 q 479 435 495 513 l 395 0 l 281 0 l 366 435 q 370 457 368 444 q 375 485 372 471 q 380 514 378 500 q 385 539 383 528 q 388 569 387 553 q 390 597 390 585 q 387 627 390 613 q 374 653 383 642 q 324 673 359 673 q 281 664 300 673 q 248 633 262 655 q 234 605 241 622 q 219 564 227 588 q 205 508 212 541 q 189 435 197 476 l 104 0 l -9 0 l 138 760 z "},"n":{"ha":836,"x_min":57,"x_max":743,"o":"m 205 760 l 317 760 l 309 646 q 419 745 359 711 q 479 769 448 761 q 547 778 509 778 q 629 766 592 778 q 691 729 665 753 q 730 670 717 705 q 743 595 743 635 q 742 567 743 583 q 740 538 741 551 q 736 509 739 524 q 729 471 734 494 l 637 0 l 513 0 l 604 471 q 606 477 606 477 q 606 481 605 477 q 611 505 609 495 q 614 523 612 515 q 616 538 615 531 q 616 554 616 545 q 609 605 616 584 q 585 640 601 625 q 495 669 554 669 q 348 606 408 669 q 265 429 288 543 l 182 0 l 57 0 l 205 760 z "},"ń":{"ha":836,"x_min":57,"x_max":759,"o":"m 610 1143 l 759 1143 l 491 888 l 385 888 l 610 1143 m 205 760 l 317 760 l 309 646 q 420 746 361 713 q 549 778 479 778 q 629 765 593 778 q 691 729 665 753 q 730 670 716 705 q 743 593 743 636 q 740 537 743 569 q 729 471 736 506 l 637 0 l 513 0 l 604 471 q 606 481 606 475 q 616 557 616 528 q 585 640 616 610 q 494 669 554 669 q 415 653 452 669 q 348 606 378 637 q 297 531 319 576 q 265 429 276 486 l 182 0 l 57 0 l 205 760 z "},"ň":{"ha":836,"x_min":57,"x_max":780,"o":"m 352 1135 l 441 1135 l 522 970 l 674 1135 l 780 1135 l 563 880 l 463 880 l 352 1135 m 205 760 l 317 760 l 309 646 q 420 746 361 713 q 549 778 479 778 q 629 765 593 778 q 691 729 665 753 q 730 670 716 705 q 743 593 743 636 q 740 537 743 569 q 729 471 736 506 l 637 0 l 513 0 l 604 471 q 606 481 606 475 q 616 557 616 528 q 585 640 616 610 q 494 669 554 669 q 415 653 452 669 q 348 606 378 637 q 297 531 319 576 q 265 429 276 486 l 182 0 l 57 0 l 205 760 z "},"ņ":{"ha":836,"x_min":57,"x_max":743,"o":"m 205 760 l 317 760 l 309 646 q 420 746 361 713 q 549 778 479 778 q 629 765 593 778 q 691 729 665 753 q 730 670 716 705 q 743 593 743 636 q 740 537 743 569 q 729 471 736 506 l 637 0 l 513 0 l 604 471 q 606 481 606 475 q 616 557 616 528 q 585 640 616 610 q 494 669 554 669 q 415 653 452 669 q 348 606 378 637 q 297 531 319 576 q 265 429 276 486 l 182 0 l 57 0 l 205 760 m 282 -135 l 444 -135 l 272 -369 l 173 -369 l 282 -135 z "},"ŋ":{"ha":836,"x_min":85,"x_max":769,"o":"m 257 -183 l 382 -183 q 483 -141 446 -183 q 537 -14 521 -98 l 631 471 q 640 549 640 514 q 635 592 640 571 q 619 631 631 614 q 584 659 607 648 q 523 669 561 669 q 374 608 433 669 q 293 429 315 546 l 210 0 l 85 0 l 233 760 l 344 760 l 335 646 q 445 745 382 711 q 587 778 508 778 q 680 761 644 778 q 735 718 715 745 q 762 656 755 690 q 769 586 769 621 q 757 471 769 534 l 663 -14 q 624 -131 650 -80 q 562 -217 599 -182 q 478 -271 526 -252 q 376 -289 431 -289 l 237 -289 l 257 -183 z "},"ñ":{"ha":836,"x_min":57,"x_max":753,"o":"m 604 880 q 552 890 574 880 q 529 903 542 895 q 503 926 517 911 l 471 960 q 460 969 467 963 q 446 979 453 975 q 421 985 435 985 q 399 980 411 985 q 378 960 388 975 q 357 881 361 934 l 272 881 q 322 1023 283 972 q 422 1072 361 1072 q 473 1062 451 1072 q 497 1047 485 1057 q 522 1025 510 1038 l 554 994 q 568 981 564 984 q 579 973 572 977 q 602 967 590 967 q 627 974 616 967 q 646 994 639 981 q 660 1026 654 1006 q 668 1072 665 1046 l 753 1072 q 735 992 747 1029 q 703 930 723 956 q 659 892 684 904 q 604 880 633 880 m 205 760 l 317 760 l 309 646 q 419 745 359 711 q 479 769 448 761 q 547 778 509 778 q 629 766 592 778 q 691 729 665 753 q 730 670 717 705 q 743 595 743 635 q 742 567 743 583 q 740 538 741 551 q 736 509 739 524 q 729 471 734 494 l 637 0 l 513 0 l 604 471 q 606 477 606 477 q 606 481 605 477 q 611 505 609 495 q 614 523 612 515 q 616 538 615 531 q 616 554 616 545 q 609 605 616 584 q 585 640 601 625 q 495 669 554 669 q 348 606 408 669 q 265 429 288 543 l 182 0 l 57 0 l 205 760 z "},"o":{"ha":836,"x_min":79,"x_max":755,"o":"m 346 -20 q 233 -2 283 -20 q 148 54 183 16 q 98 142 116 89 q 79 269 79 195 q 107 450 79 357 q 139 535 120 492 q 186 617 159 578 q 315 737 241 697 q 486 778 391 778 q 599 760 548 778 q 686 705 650 743 q 755 492 755 633 q 728 307 755 401 q 692 214 712 256 q 650 140 671 172 q 590 70 621 99 q 519 20 558 40 q 437 -9 481 1 q 346 -20 393 -20 m 361 86 q 468 117 420 86 q 551 202 516 147 q 583 264 569 231 q 605 334 596 298 q 619 410 614 371 q 624 487 624 448 q 615 570 624 536 q 586 629 607 605 q 537 662 566 652 q 476 672 509 672 q 368 642 415 672 q 286 556 321 611 q 232 429 252 503 q 212 273 212 355 q 221 189 212 224 q 250 130 229 153 q 299 97 270 108 q 361 86 328 86 z "},"ó":{"ha":836,"x_min":79,"x_max":764,"o":"m 615 1135 l 764 1135 l 496 880 l 390 880 l 615 1135 m 346 -20 q 233 -2 283 -20 q 148 54 183 16 q 98 142 116 89 q 79 269 79 195 q 107 450 79 357 q 139 535 120 492 q 186 617 159 578 q 315 737 241 697 q 486 778 391 778 q 599 760 548 778 q 686 705 650 743 q 755 492 755 633 q 728 307 755 401 q 692 214 712 256 q 650 140 671 172 q 590 70 621 99 q 519 20 558 40 q 437 -9 481 1 q 346 -20 393 -20 m 361 86 q 468 117 420 86 q 551 202 516 147 q 583 264 569 231 q 605 334 596 298 q 619 410 614 371 q 624 487 624 448 q 615 570 624 536 q 586 629 607 605 q 537 662 566 652 q 476 672 509 672 q 368 642 415 672 q 286 556 321 611 q 232 429 252 503 q 212 273 212 355 q 221 189 212 224 q 250 130 229 153 q 299 97 270 108 q 361 86 328 86 z "},"ô":{"ha":836,"x_min":79,"x_max":755,"o":"m 486 1135 l 586 1135 l 697 880 l 607 880 l 528 1043 l 375 880 l 269 880 l 486 1135 m 346 -20 q 233 -2 283 -20 q 148 54 183 16 q 98 142 116 89 q 79 269 79 195 q 107 450 79 357 q 139 535 120 492 q 186 617 159 578 q 315 737 241 697 q 486 778 391 778 q 599 760 548 778 q 686 705 650 743 q 755 492 755 633 q 728 307 755 401 q 692 214 712 256 q 650 140 671 172 q 590 70 621 99 q 519 20 558 40 q 437 -9 481 1 q 346 -20 393 -20 m 361 86 q 468 117 420 86 q 551 202 516 147 q 583 264 569 231 q 605 334 596 298 q 619 410 614 371 q 624 487 624 448 q 615 570 624 536 q 586 629 607 605 q 537 662 566 652 q 476 672 509 672 q 368 642 415 672 q 286 556 321 611 q 232 429 252 503 q 212 273 212 355 q 221 189 212 224 q 250 130 229 153 q 299 97 270 108 q 361 86 328 86 z "},"ö":{"ha":836,"x_min":79,"x_max":755,"o":"m 318 916 q 303 922 308 916 q 300 938 298 928 l 319 1034 q 340 1053 321 1053 l 437 1053 q 453 1046 448 1053 q 456 1030 458 1040 l 437 934 q 415 916 433 916 l 318 916 m 583 916 q 568 922 573 916 q 565 938 563 928 l 584 1034 q 606 1053 587 1053 l 703 1053 q 718 1046 713 1053 q 721 1030 723 1040 l 702 934 q 680 916 699 916 l 583 916 m 346 -20 q 233 -2 283 -20 q 148 54 183 16 q 98 142 116 89 q 79 269 79 195 q 107 450 79 357 q 139 535 120 492 q 186 617 159 578 q 315 737 241 697 q 486 778 391 778 q 599 760 548 778 q 686 705 650 743 q 755 492 755 633 q 728 307 755 401 q 692 214 712 256 q 650 140 671 172 q 590 70 621 99 q 519 20 558 40 q 437 -9 481 1 q 346 -20 393 -20 m 361 86 q 468 117 420 86 q 551 202 516 147 q 583 264 569 231 q 605 334 596 298 q 619 410 614 371 q 624 487 624 448 q 615 570 624 536 q 586 629 607 605 q 537 662 566 652 q 476 672 509 672 q 368 642 415 672 q 286 556 321 611 q 232 429 252 503 q 212 273 212 355 q 221 189 212 224 q 250 130 229 153 q 299 97 270 108 q 361 86 328 86 z "},"ò":{"ha":836,"x_min":79,"x_max":755,"o":"m 307 1135 l 441 1135 l 575 880 l 478 880 l 307 1135 m 346 -20 q 233 -2 283 -20 q 148 54 183 16 q 98 142 116 89 q 79 269 79 195 q 107 450 79 357 q 139 535 120 492 q 186 617 159 578 q 315 737 241 697 q 486 778 391 778 q 599 760 548 778 q 686 705 650 743 q 755 492 755 633 q 728 307 755 401 q 692 214 712 256 q 650 140 671 172 q 590 70 621 99 q 519 20 558 40 q 437 -9 481 1 q 346 -20 393 -20 m 361 86 q 468 117 420 86 q 551 202 516 147 q 583 264 569 231 q 605 334 596 298 q 619 410 614 371 q 624 487 624 448 q 615 570 624 536 q 586 629 607 605 q 537 662 566 652 q 476 672 509 672 q 368 642 415 672 q 286 556 321 611 q 232 429 252 503 q 212 273 212 355 q 221 189 212 224 q 250 130 229 153 q 299 97 270 108 q 361 86 328 86 z "},"ơ":{"ha":836,"x_min":7,"x_max":827,"o":"m 826 771 q 827 753 827 762 q 827 738 827 745 q 826 705 827 720 q 822 679 824 691 q 774 563 808 605 q 683 518 741 522 q 684 505 684 511 q 684 491 684 498 q 677 400 684 447 q 656 309 670 354 q 623 221 643 264 q 578 140 604 178 q 449 21 524 62 q 277 -20 375 -20 q 76 54 144 -20 q 7 266 7 128 q 15 358 7 311 q 36 451 22 406 q 70 539 50 497 q 114 618 90 582 q 243 738 169 698 q 414 778 317 778 q 577 736 513 778 q 667 612 641 694 q 714 632 695 613 q 740 686 732 650 q 743 721 743 705 q 736 771 743 745 l 826 771 m 283 86 q 367 103 329 86 q 434 148 404 119 q 486 215 464 177 q 523 297 508 254 q 545 388 538 341 q 552 479 552 435 q 516 626 552 581 q 409 672 481 672 q 326 655 363 672 q 258 610 288 639 q 207 543 229 581 q 170 461 184 505 q 148 370 155 417 q 140 279 140 323 q 176 132 140 178 q 283 86 212 86 z "},"ő":{"ha":836,"x_min":79,"x_max":831,"o":"m 467 1135 l 595 1135 l 390 880 l 298 880 l 467 1135 m 697 1135 l 831 1135 l 611 880 l 519 880 l 697 1135 m 349 -20 q 148 54 216 -20 q 79 266 79 128 q 87 358 79 311 q 108 451 94 406 q 141 539 121 497 q 186 618 161 582 q 315 738 241 698 q 486 778 389 778 q 686 706 617 778 q 755 491 755 633 q 749 400 755 447 q 728 309 742 354 q 695 221 715 264 q 650 140 675 178 q 521 21 595 62 q 349 -20 447 -20 m 355 86 q 438 103 401 86 q 506 148 476 119 q 558 215 536 177 q 595 297 580 254 q 617 388 610 341 q 624 479 624 435 q 588 626 624 581 q 481 672 553 672 q 398 655 435 672 q 330 610 360 639 q 278 543 300 581 q 241 461 256 505 q 219 370 227 417 q 212 279 212 323 q 248 132 212 178 q 355 86 283 86 z "},"ō":{"ha":836,"x_min":79,"x_max":755,"o":"m 318 1014 l 724 1014 l 704 913 l 298 913 l 318 1014 m 349 -20 q 148 54 216 -20 q 79 266 79 128 q 87 358 79 311 q 108 451 94 406 q 141 539 121 497 q 186 618 161 582 q 315 738 241 698 q 486 778 389 778 q 686 706 617 778 q 755 491 755 633 q 749 400 755 447 q 728 309 742 354 q 695 221 715 264 q 650 140 675 178 q 521 21 595 62 q 349 -20 447 -20 m 355 86 q 438 103 401 86 q 506 148 476 119 q 558 215 536 177 q 595 297 580 254 q 617 388 610 341 q 624 479 624 435 q 588 626 624 581 q 481 672 553 672 q 398 655 435 672 q 330 610 360 639 q 278 543 300 581 q 241 461 256 505 q 219 370 227 417 q 212 279 212 323 q 248 132 212 178 q 355 86 283 86 z "},"ø":{"ha":836,"x_min":32,"x_max":796,"o":"m 32 -14 l 119 90 q 102 125 110 106 q 90 166 95 144 q 83 212 85 188 q 81 265 81 236 q 87 359 81 312 q 108 452 94 406 q 140 538 121 494 q 186 618 160 581 q 245 687 212 656 q 317 739 278 719 q 398 768 355 758 q 491 778 442 778 q 585 766 545 778 q 657 729 625 753 l 733 822 l 796 770 l 713 671 q 732 633 724 653 q 745 593 741 612 q 753 546 751 572 q 755 492 755 520 q 728 307 755 401 q 693 218 713 260 q 650 140 673 176 q 590 70 621 99 q 519 20 558 40 q 344 -20 443 -20 q 295 -17 317 -20 q 252 -7 273 -14 q 214 7 233 -1 q 175 31 195 16 l 94 -65 l 32 -14 m 578 636 q 556 652 568 645 q 532 664 545 660 q 505 670 519 668 q 475 672 490 672 q 368 642 416 672 q 286 556 321 611 q 232 426 252 501 q 212 263 212 350 q 213 243 212 250 q 214 231 213 237 q 215 213 215 218 q 216 205 216 208 l 578 636 m 362 86 q 466 115 418 86 q 550 203 513 144 q 604 330 584 256 q 624 492 624 403 q 624 515 624 505 q 623 530 623 524 q 621 545 622 537 q 618 559 620 552 l 256 126 q 277 109 266 116 q 302 96 288 102 q 330 89 315 92 q 362 86 344 86 z "},"ǿ":{"ha":836,"x_min":32,"x_max":796,"o":"m 615 1135 l 764 1135 l 496 880 l 390 880 l 615 1135 m 32 -14 l 119 90 q 81 264 81 154 q 107 451 81 359 q 186 618 134 543 q 314 737 240 696 q 490 778 387 778 q 585 766 545 778 q 657 729 626 753 l 733 822 l 796 770 l 713 671 q 745 593 734 636 q 755 494 755 550 q 748 398 755 446 q 727 304 741 350 q 694 217 713 259 q 650 140 674 176 q 523 22 597 64 q 347 -20 448 -20 q 251 -7 292 -20 q 175 31 210 5 l 94 -65 l 32 -14 m 578 636 q 532 664 557 655 q 477 672 506 672 q 370 641 418 672 q 287 556 321 610 q 232 427 252 502 q 212 263 212 351 q 213 230 212 243 q 216 205 214 217 l 578 636 m 361 86 q 466 117 418 86 q 549 202 514 148 q 604 332 585 257 q 624 496 624 407 q 623 531 624 515 q 618 559 621 546 l 256 126 q 302 96 275 106 q 361 86 329 86 z "},"õ":{"ha":836,"x_min":79,"x_max":755,"o":"m 604 880 q 552 890 574 880 q 529 903 542 895 q 503 926 517 911 l 471 960 q 460 969 467 963 q 446 979 453 975 q 421 985 435 985 q 399 980 411 985 q 378 960 388 975 q 357 881 361 934 l 272 881 q 322 1023 283 972 q 422 1072 361 1072 q 473 1062 451 1072 q 497 1047 485 1057 q 522 1025 510 1038 l 554 994 q 568 981 564 984 q 579 973 572 977 q 602 967 590 967 q 627 974 616 967 q 646 994 639 981 q 660 1026 654 1006 q 668 1072 665 1046 l 753 1072 q 735 992 747 1029 q 703 930 723 956 q 659 892 684 904 q 604 880 633 880 m 346 -20 q 233 -2 283 -20 q 148 54 183 16 q 98 142 116 89 q 79 269 79 195 q 107 450 79 357 q 139 535 120 492 q 186 617 159 578 q 315 737 241 697 q 486 778 391 778 q 599 760 548 778 q 686 705 650 743 q 755 492 755 633 q 728 307 755 401 q 692 214 712 256 q 650 140 671 172 q 590 70 621 99 q 519 20 558 40 q 437 -9 481 1 q 346 -20 393 -20 m 361 86 q 468 117 420 86 q 551 202 516 147 q 583 264 569 231 q 605 334 596 298 q 619 410 614 371 q 624 487 624 448 q 615 570 624 536 q 586 629 607 605 q 537 662 566 652 q 476 672 509 672 q 368 642 415 672 q 286 556 321 611 q 232 429 252 503 q 212 273 212 355 q 221 189 212 224 q 250 130 229 153 q 299 97 270 108 q 361 86 328 86 z "},"œ":{"ha":836,"x_min":-4,"x_max":863,"o":"m 195 -20 q 48 37 100 -20 q -4 198 -4 93 q -3 237 -4 216 q 1 281 -1 259 q 4 301 2 290 q 7 327 5 313 q 12 353 9 340 q 16 379 14 367 q 24 419 20 398 q 34 459 29 439 q 44 496 39 479 q 52 525 49 513 q 72 581 60 551 q 98 636 83 610 q 141 696 117 670 q 197 742 165 722 q 336 778 259 778 q 434 755 393 778 q 498 692 476 732 q 584 756 538 735 q 684 778 631 778 q 814 726 767 778 q 850 665 838 701 q 863 585 863 629 q 861 548 863 568 q 857 511 859 528 q 850 464 854 492 q 840 410 846 437 l 829 349 l 489 349 q 483 321 486 333 q 479 298 481 309 q 475 275 477 287 q 471 250 473 264 q 467 217 468 230 q 465 193 465 205 q 474 145 465 165 q 498 111 482 125 q 589 81 532 81 q 685 100 636 81 q 770 154 732 119 l 746 37 q 702 12 723 22 q 661 -5 682 2 q 617 -16 640 -12 q 569 -20 595 -20 q 458 4 504 -20 q 389 71 412 28 q 301 3 349 26 q 195 -20 253 -20 m 210 83 q 284 107 251 83 q 315 139 304 121 q 336 176 327 157 q 342 191 339 184 q 348 206 345 197 q 354 227 351 215 q 362 257 357 239 q 378 320 371 290 q 390 380 385 350 q 400 440 395 410 q 409 498 406 471 q 415 567 415 544 q 409 612 415 591 q 391 646 403 632 q 320 675 366 675 q 277 668 296 675 q 245 652 259 662 q 216 623 229 640 q 193 581 204 606 q 178 541 186 563 q 165 494 171 518 q 139 379 151 444 q 129 325 134 349 q 121 271 125 300 q 116 228 117 246 q 114 196 114 210 q 139 113 114 142 q 210 83 165 83 m 734 443 l 745 494 q 748 517 747 505 q 751 534 750 529 q 752 553 752 544 q 753 570 753 562 q 747 612 753 592 q 730 646 742 633 q 701 666 718 661 q 665 672 684 672 q 613 661 635 672 q 574 628 591 649 q 541 569 554 603 q 521 498 527 535 l 511 443 l 734 443 z "},"p":{"ha":836,"x_min":-1,"x_max":765,"o":"m 203 760 l 314 760 l 309 663 q 408 748 350 718 q 534 778 467 778 q 630 761 586 778 q 705 707 674 744 q 750 621 736 672 q 765 505 765 570 q 759 413 765 461 q 739 315 752 364 q 705 219 724 263 q 664 143 685 176 q 608 73 638 102 q 544 22 578 43 q 392 -20 475 -20 q 277 9 324 -20 q 199 96 228 38 l 123 -289 l -1 -289 l 203 760 m 385 86 q 439 94 414 86 q 487 117 465 102 q 528 154 510 132 q 562 204 547 175 q 592 272 578 235 q 614 345 606 309 q 629 423 624 385 q 633 496 633 462 q 624 577 633 545 q 599 629 615 610 q 554 662 581 652 q 494 672 527 672 q 391 642 437 672 q 347 604 366 625 q 311 551 328 582 q 281 485 294 520 q 259 414 268 450 q 245 337 250 376 q 240 266 240 298 q 250 186 240 219 q 277 132 259 153 q 323 98 296 109 q 385 86 351 86 z "},"þ":{"ha":836,"x_min":-1,"x_max":765,"o":"m 261 1063 l 386 1063 l 309 663 q 408 748 350 718 q 534 778 467 778 q 630 761 586 778 q 705 707 674 744 q 750 621 736 672 q 765 505 765 570 q 759 413 765 461 q 739 315 752 364 q 705 219 724 263 q 664 143 685 176 q 608 73 638 102 q 544 22 578 43 q 392 -20 475 -20 q 277 9 324 -20 q 199 96 228 38 l 123 -289 l -1 -289 l 261 1063 m 385 86 q 439 94 414 86 q 487 117 465 102 q 528 154 510 132 q 562 204 547 175 q 592 272 578 235 q 614 345 606 309 q 629 423 624 385 q 633 496 633 462 q 624 577 633 545 q 599 629 615 610 q 554 662 581 652 q 494 672 527 672 q 391 642 437 672 q 347 604 366 625 q 311 551 328 582 q 281 485 294 520 q 259 414 268 450 q 245 337 250 376 q 240 266 240 298 q 250 186 240 219 q 277 132 259 153 q 323 98 296 109 q 385 86 351 86 z "},"q":{"ha":836,"x_min":66,"x_max":778,"o":"m 525 96 q 428 9 483 39 q 302 -20 372 -20 q 204 -2 248 -20 q 129 50 160 15 q 83 133 99 83 q 66 252 66 183 q 74 345 66 296 q 94 442 81 393 q 127 534 108 490 q 171 616 146 578 q 227 687 197 658 q 293 737 257 717 q 450 778 364 778 q 516 770 488 778 q 566 749 545 763 q 635 663 612 720 l 667 760 l 778 760 l 575 -289 l 450 -289 l 525 96 m 336 86 q 441 117 394 86 q 486 157 465 134 q 521 207 506 181 q 573 345 553 264 q 588 423 583 385 q 593 496 593 462 q 584 572 593 538 q 557 628 576 605 q 452 672 521 672 q 349 642 395 672 q 307 605 326 627 q 272 553 288 583 q 242 486 255 522 q 220 412 229 450 q 200 262 200 332 q 235 130 200 173 q 336 86 269 86 z "},"r":{"ha":836,"x_min":127,"x_max":806,"o":"m 274 760 l 385 760 l 372 611 q 490 735 417 692 q 652 778 562 778 q 699 775 675 778 q 741 766 722 772 q 775 751 758 760 q 806 729 792 741 l 783 603 q 749 629 767 618 q 712 648 731 640 q 669 659 692 655 q 622 663 646 663 q 517 644 566 663 q 429 586 469 625 q 363 493 390 547 q 324 372 337 439 l 252 0 l 127 0 l 274 760 z "},"ŕ":{"ha":836,"x_min":147,"x_max":857,"o":"m 709 1135 l 857 1135 l 589 880 l 484 880 l 709 1135 m 294 760 l 406 760 l 392 611 q 509 735 437 693 q 673 778 581 778 q 827 729 772 778 l 803 603 q 732 648 772 633 q 643 663 692 663 q 536 642 585 663 q 449 584 487 622 q 384 493 411 547 q 345 372 357 439 l 272 0 l 147 0 l 294 760 z "},"ř":{"ha":836,"x_min":147,"x_max":829,"o":"m 401 1135 l 490 1135 l 570 970 l 723 1135 l 829 1135 l 612 880 l 512 880 l 401 1135 m 294 760 l 406 760 l 392 611 q 509 735 437 693 q 673 778 581 778 q 827 729 772 778 l 803 603 q 732 648 772 633 q 643 663 692 663 q 536 642 585 663 q 449 584 487 622 q 384 493 411 547 q 345 372 357 439 l 272 0 l 147 0 l 294 760 z "},"ŗ":{"ha":836,"x_min":35,"x_max":827,"o":"m 294 760 l 406 760 l 392 611 q 509 735 437 693 q 673 778 581 778 q 827 729 772 778 l 803 603 q 732 648 772 633 q 643 663 692 663 q 536 642 585 663 q 449 584 487 622 q 384 493 411 547 q 345 372 357 439 l 272 0 l 147 0 l 294 760 m 144 -135 l 307 -135 l 134 -369 l 35 -369 l 144 -135 z "},"s":{"ha":836,"x_min":78,"x_max":730,"o":"m 323 -20 q 261 -17 291 -20 q 205 -8 231 -14 q 142 7 174 -2 q 78 28 111 16 l 103 157 q 166 125 136 139 q 227 103 197 112 q 286 89 258 94 q 344 85 314 85 q 490 125 433 85 q 533 171 519 146 q 547 223 547 197 q 541 256 547 241 q 518 284 534 271 q 477 309 503 298 q 414 330 452 320 l 395 335 l 350 347 q 274 375 306 359 q 222 412 243 391 q 180 529 180 456 q 202 629 180 583 q 269 710 224 675 q 372 760 311 743 q 512 778 433 778 q 570 775 541 778 q 626 767 598 772 q 680 753 654 762 q 730 733 705 745 l 707 611 q 656 638 683 627 q 606 658 629 650 q 496 673 553 673 q 418 665 454 673 q 356 639 382 656 q 317 596 329 621 q 304 548 304 572 q 316 507 304 524 q 349 477 328 490 q 396 456 369 465 q 454 437 423 446 q 465 434 465 434 q 469 433 466 435 l 518 421 q 584 397 553 412 q 637 359 615 381 q 666 312 656 338 q 676 250 676 286 q 651 142 676 193 q 578 56 626 92 q 464 -1 530 18 q 323 -20 398 -20 z "},"ś":{"ha":836,"x_min":78,"x_max":759,"o":"m 610 1139 l 759 1139 l 491 884 l 385 884 l 610 1139 m 323 -20 q 205 -8 264 -20 q 78 28 146 4 l 103 157 q 342 85 230 85 q 426 96 388 85 q 490 125 463 106 q 532 169 517 144 q 547 220 547 193 q 414 330 547 298 l 395 335 l 350 347 q 222 412 263 370 q 180 528 180 454 q 203 631 180 585 q 270 710 227 677 q 374 760 313 743 q 511 778 435 778 q 730 733 631 778 l 707 611 q 606 657 658 642 q 496 673 553 673 q 415 664 451 673 q 355 638 380 654 q 317 598 330 621 q 304 549 304 576 q 312 514 304 530 q 338 485 320 498 q 384 460 355 471 q 454 437 412 448 q 469 433 465 434 l 518 421 q 638 358 600 401 q 676 248 676 315 q 651 142 676 191 q 579 57 625 93 q 467 1 532 21 q 323 -20 402 -20 z "},"š":{"ha":836,"x_min":78,"x_max":747,"o":"m 319 1135 l 408 1135 l 489 970 l 642 1135 l 747 1135 l 530 880 l 431 880 l 319 1135 m 323 -20 q 261 -17 291 -20 q 205 -8 231 -14 q 142 7 174 -2 q 78 28 111 16 l 103 157 q 166 125 136 139 q 227 103 197 112 q 286 89 258 94 q 344 85 314 85 q 490 125 433 85 q 533 171 519 146 q 547 223 547 197 q 541 256 547 241 q 518 284 534 271 q 477 309 503 298 q 414 330 452 320 l 395 335 l 350 347 q 274 375 306 359 q 222 412 243 391 q 180 529 180 456 q 202 629 180 583 q 269 710 224 675 q 372 760 311 743 q 512 778 433 778 q 570 775 541 778 q 626 767 598 772 q 680 753 654 762 q 730 733 705 745 l 707 611 q 656 638 683 627 q 606 658 629 650 q 496 673 553 673 q 418 665 454 673 q 356 639 382 656 q 317 596 329 621 q 304 548 304 572 q 316 507 304 524 q 349 477 328 490 q 396 456 369 465 q 454 437 423 446 q 465 434 465 434 q 469 433 466 435 l 518 421 q 584 397 553 412 q 637 359 615 381 q 666 312 656 338 q 676 250 676 286 q 651 142 676 193 q 578 56 626 92 q 464 -1 530 18 q 323 -20 398 -20 z "},"ş":{"ha":836,"x_min":78,"x_max":730,"o":"m 356 639 q 317 596 329 621 q 304 548 304 572 q 316 507 304 524 q 349 477 328 490 q 396 456 369 465 q 454 437 423 446 q 465 434 465 434 q 469 433 466 435 l 518 421 q 584 397 553 412 q 637 359 615 381 q 666 312 656 338 q 676 250 676 286 q 651 142 676 193 q 578 56 626 92 q 491 8 540 26 q 386 -16 441 -10 q 402 -48 395 -33 q 414 -75 408 -62 q 425 -134 425 -106 q 413 -188 425 -163 q 378 -231 401 -212 q 248 -268 331 -268 q 219 -267 235 -268 q 187 -263 203 -266 q 123 -248 157 -258 l 140 -160 q 169 -172 154 -167 q 193 -180 183 -177 q 239 -186 216 -186 q 279 -181 260 -186 q 310 -165 297 -176 q 329 -141 323 -155 q 335 -111 335 -127 q 332 -86 335 -99 q 326 -63 330 -74 q 318 -45 323 -57 q 306 -20 313 -33 q 205 -8 250 -18 q 142 7 174 -2 q 78 28 111 16 l 103 157 q 166 125 136 139 q 227 103 197 112 q 286 89 258 94 q 344 85 314 85 q 490 125 433 85 q 533 171 519 146 q 547 223 547 197 q 541 256 547 241 q 518 284 534 271 q 477 309 503 298 q 414 330 452 320 l 395 335 l 350 347 q 274 375 306 359 q 222 412 243 391 q 180 529 180 456 q 202 629 180 583 q 269 710 224 675 q 372 760 311 743 q 512 778 433 778 q 570 775 541 778 q 626 767 598 772 q 680 753 654 762 q 730 733 705 745 l 707 611 q 656 638 683 627 q 606 658 629 650 q 496 673 553 673 q 418 665 454 673 q 356 639 382 656 z "},"ș":{"ha":836,"x_min":78,"x_max":730,"o":"m 323 -20 q 205 -8 264 -20 q 78 28 146 4 l 103 157 q 342 85 230 85 q 426 96 388 85 q 490 125 463 106 q 532 169 517 144 q 547 220 547 193 q 414 330 547 298 l 395 335 l 350 347 q 222 412 263 370 q 180 528 180 454 q 203 631 180 585 q 270 710 227 677 q 374 760 313 743 q 511 778 435 778 q 730 733 631 778 l 707 611 q 606 657 658 642 q 496 673 553 673 q 415 664 451 673 q 355 638 380 654 q 317 598 330 621 q 304 549 304 576 q 312 514 304 530 q 338 485 320 498 q 384 460 355 471 q 454 437 412 448 q 469 433 465 434 l 518 421 q 638 358 600 401 q 676 248 676 315 q 651 142 676 191 q 579 57 625 93 q 467 1 532 21 q 323 -20 402 -20 m 264 -134 l 426 -134 l 254 -368 l 155 -368 l 264 -134 z "},"ß":{"ha":836,"x_min":37,"x_max":764,"o":"m 406 -20 q 359 -18 380 -20 q 313 -11 338 -16 q 266 0 286 -6 q 224 14 246 5 l 244 125 q 330 92 283 103 q 422 81 376 81 q 563 123 511 81 q 601 172 587 144 q 614 236 614 200 q 609 273 614 257 q 595 302 605 288 q 566 335 584 319 q 519 372 548 351 l 478 404 q 430 444 449 427 q 398 481 410 462 q 379 556 379 513 q 448 709 379 644 q 526 763 480 740 q 637 799 572 786 q 640 809 639 804 q 641 819 640 814 q 642 827 642 824 q 642 832 642 831 q 634 883 642 859 q 607 923 627 906 q 566 945 591 937 q 507 953 541 953 q 435 942 468 953 q 378 907 402 930 q 339 852 357 886 q 313 768 322 819 l 164 0 l 37 0 l 187 771 q 229 896 201 842 q 297 985 256 950 q 395 1039 340 1022 q 514 1055 450 1055 q 623 1041 576 1055 q 700 1001 669 1027 q 764 844 764 947 q 763 823 764 834 q 761 800 762 811 q 757 776 760 788 q 751 751 755 764 q 566 692 633 737 q 497 581 497 646 q 500 556 497 567 q 511 534 504 545 q 533 510 521 521 q 566 484 545 499 l 600 457 q 664 405 637 429 q 706 355 690 380 q 733 247 733 311 q 712 141 733 190 q 646 54 691 92 q 544 -1 603 18 q 406 -20 484 -20 z "},"t":{"ha":836,"x_min":132,"x_max":762,"o":"m 463 -3 q 362 7 402 -3 q 296 35 322 18 q 256 82 269 54 q 243 151 243 110 q 243 170 243 159 q 245 193 244 181 q 249 216 247 201 q 254 248 251 230 l 335 663 l 132 663 l 151 760 l 354 760 l 396 975 l 521 975 l 479 760 l 762 760 l 743 663 l 460 663 l 379 248 q 376 230 377 236 q 374 220 375 224 q 374 215 374 217 q 373 210 374 214 q 371 178 371 193 q 397 115 371 133 q 493 97 424 97 l 633 97 l 614 -3 l 463 -3 l 463 -3 z "},"ŧ":{"ha":836,"x_min":121,"x_max":753,"o":"m 452 -3 q 336 11 382 -3 q 266 54 290 24 q 243 99 250 73 q 236 157 236 125 q 238 201 236 179 q 245 248 241 222 l 276 408 l 121 408 l 140 505 l 295 505 l 326 663 l 123 663 l 142 760 l 345 760 l 387 975 l 511 975 l 469 760 l 753 760 l 734 663 l 450 663 l 420 505 l 575 505 l 556 408 l 401 408 l 370 248 q 364 189 364 214 q 379 130 364 150 q 484 97 404 97 l 625 97 l 605 -3 l 452 -3 l 452 -3 z "},"ť":{"ha":836,"x_min":132,"x_max":869,"o":"m 721 1139 l 869 1139 l 728 884 l 623 884 l 721 1139 m 463 -3 q 362 7 402 -3 q 296 35 322 18 q 256 82 269 54 q 243 151 243 110 q 243 170 243 159 q 245 193 244 181 q 249 216 247 201 q 254 248 251 230 l 335 663 l 132 663 l 151 760 l 354 760 l 396 975 l 521 975 l 479 760 l 762 760 l 743 663 l 460 663 l 379 248 q 376 230 377 236 q 374 220 375 224 q 374 215 374 217 q 373 210 374 214 q 371 178 371 193 q 397 115 371 133 q 493 97 424 97 l 633 97 l 614 -3 l 463 -3 z "},"ț":{"ha":836,"x_min":132,"x_max":762,"o":"m 379 248 q 376 230 377 236 q 374 220 375 224 q 374 215 374 217 q 373 210 374 214 q 371 178 371 193 q 397 115 371 133 q 493 97 424 97 l 633 97 l 614 -3 l 476 -3 q 510 -73 499 -43 q 521 -126 521 -102 q 508 -183 521 -158 q 473 -226 496 -208 q 418 -254 450 -244 q 345 -263 385 -263 q 219 -243 283 -263 l 236 -155 q 334 -181 291 -181 q 405 -161 380 -181 q 431 -104 431 -140 q 393 1 431 -68 q 337 15 361 6 q 296 35 314 23 q 256 82 269 54 q 243 151 243 110 q 243 170 243 159 q 245 193 244 181 q 249 216 247 201 q 254 248 251 230 l 335 663 l 132 663 l 151 760 l 354 760 l 396 975 l 521 975 l 479 760 l 762 760 l 743 663 l 460 663 l 379 248 l 379 248 z "},"u":{"ha":836,"x_min":85,"x_max":768,"o":"m 277 -18 q 198 -6 233 -18 q 136 31 162 6 q 97 92 110 57 q 85 168 85 127 q 86 195 85 180 q 88 225 87 210 q 92 259 90 245 q 97 289 94 272 l 187 760 l 313 760 l 221 289 q 219 278 220 285 q 217 264 218 271 q 215 251 216 257 q 214 241 214 245 q 212 219 212 229 q 211 202 211 209 q 218 156 211 177 q 243 119 226 134 q 281 97 258 104 q 332 90 304 90 q 410 105 372 90 q 477 153 447 121 q 528 230 508 185 q 559 330 549 275 l 643 760 l 768 760 l 621 0 l 509 0 l 518 114 q 408 15 468 47 q 344 -11 376 -3 q 277 -18 312 -18 z "},"ú":{"ha":836,"x_min":85,"x_max":768,"o":"m 612 1118 l 761 1118 l 493 863 l 387 863 l 612 1118 m 277 -18 q 198 -6 233 -18 q 136 31 162 6 q 97 92 110 57 q 85 168 85 127 q 86 195 85 180 q 88 225 87 210 q 92 259 90 245 q 97 289 94 272 l 187 760 l 313 760 l 221 289 q 219 278 220 285 q 217 264 218 271 q 215 251 216 257 q 214 241 214 245 q 212 219 212 229 q 211 202 211 209 q 218 156 211 177 q 243 119 226 134 q 281 97 258 104 q 332 90 304 90 q 410 105 372 90 q 477 153 447 121 q 528 230 508 185 q 559 330 549 275 l 643 760 l 768 760 l 621 0 l 509 0 l 518 114 q 408 15 468 47 q 344 -11 376 -3 q 277 -18 312 -18 z "},"û":{"ha":836,"x_min":85,"x_max":768,"o":"m 484 1118 l 583 1118 l 694 863 l 604 863 l 525 1026 l 372 863 l 267 863 l 484 1118 m 277 -18 q 198 -6 233 -18 q 136 31 162 6 q 97 92 110 57 q 85 168 85 127 q 86 195 85 180 q 88 225 87 210 q 92 259 90 245 q 97 289 94 272 l 187 760 l 313 760 l 221 289 q 219 278 220 285 q 217 264 218 271 q 215 251 216 257 q 214 241 214 245 q 212 219 212 229 q 211 202 211 209 q 218 156 211 177 q 243 119 226 134 q 281 97 258 104 q 332 90 304 90 q 410 105 372 90 q 477 153 447 121 q 528 230 508 185 q 559 330 549 275 l 643 760 l 768 760 l 621 0 l 509 0 l 518 114 q 408 15 468 47 q 344 -11 376 -3 q 277 -18 312 -18 z "},"ü":{"ha":836,"x_min":85,"x_max":768,"o":"m 315 916 q 300 922 305 916 q 297 938 295 928 l 316 1034 q 338 1053 319 1053 l 435 1053 q 450 1046 445 1053 q 453 1030 455 1040 l 434 934 q 412 916 431 916 l 315 916 m 581 916 q 565 922 570 916 q 562 938 560 928 l 581 1034 q 603 1053 584 1053 l 700 1053 q 715 1046 710 1053 q 718 1030 720 1040 l 699 934 q 677 916 696 916 l 581 916 m 277 -18 q 198 -6 233 -18 q 136 31 162 6 q 97 92 110 57 q 85 168 85 127 q 86 195 85 180 q 88 225 87 210 q 92 259 90 245 q 97 289 94 272 l 187 760 l 313 760 l 221 289 q 219 278 220 285 q 217 264 218 271 q 215 251 216 257 q 214 241 214 245 q 212 219 212 229 q 211 202 211 209 q 218 156 211 177 q 243 119 226 134 q 281 97 258 104 q 332 90 304 90 q 410 105 372 90 q 477 153 447 121 q 528 230 508 185 q 559 330 549 275 l 643 760 l 768 760 l 621 0 l 509 0 l 518 114 q 408 15 468 47 q 344 -11 376 -3 q 277 -18 312 -18 z "},"ù":{"ha":836,"x_min":85,"x_max":768,"o":"m 304 1118 l 439 1118 l 572 863 l 475 863 l 304 1118 m 277 -18 q 198 -6 233 -18 q 136 31 162 6 q 97 92 110 57 q 85 168 85 127 q 86 195 85 180 q 88 225 87 210 q 92 259 90 245 q 97 289 94 272 l 187 760 l 313 760 l 221 289 q 219 278 220 285 q 217 264 218 271 q 215 251 216 257 q 214 241 214 245 q 212 219 212 229 q 211 202 211 209 q 218 156 211 177 q 243 119 226 134 q 281 97 258 104 q 332 90 304 90 q 410 105 372 90 q 477 153 447 121 q 528 230 508 185 q 559 330 549 275 l 643 760 l 768 760 l 621 0 l 509 0 l 518 114 q 408 15 468 47 q 344 -11 376 -3 q 277 -18 312 -18 z "},"ư":{"ha":836,"x_min":13,"x_max":856,"o":"m 854 771 q 856 753 855 762 q 856 738 856 745 q 854 705 856 720 q 850 679 852 691 q 800 560 836 602 q 702 518 764 518 q 651 527 675 518 l 549 0 l 437 0 l 446 114 q 205 -18 349 -18 q 125 -6 161 -18 q 64 31 90 7 q 26 91 39 56 q 13 172 13 126 q 16 225 13 193 q 25 289 19 256 l 115 760 l 241 760 l 149 289 q 142 243 145 267 q 139 201 139 218 q 171 119 139 148 q 260 90 202 90 q 404 152 344 90 q 488 330 465 213 l 571 760 l 696 760 l 669 616 q 694 612 682 612 q 742 631 723 612 q 768 686 761 650 q 772 721 772 705 q 764 771 772 745 l 854 771 l 854 771 z "},"ű":{"ha":836,"x_min":85,"x_max":831,"o":"m 467 1118 l 595 1118 l 390 863 l 298 863 l 467 1118 m 697 1118 l 831 1118 l 611 863 l 519 863 l 697 1118 m 277 -18 q 197 -6 233 -18 q 136 31 161 7 q 98 91 111 56 q 85 172 85 126 q 88 225 85 193 q 97 289 91 256 l 187 760 l 313 760 l 221 289 q 214 243 217 267 q 211 201 211 218 q 242 119 211 148 q 332 90 274 90 q 476 152 416 90 q 559 330 536 213 l 643 760 l 768 760 l 621 0 l 509 0 l 518 114 q 277 -18 420 -18 z "},"ū":{"ha":836,"x_min":85,"x_max":768,"o":"m 318 996 l 724 996 l 704 896 l 298 896 l 318 996 m 277 -18 q 197 -6 233 -18 q 136 31 161 7 q 98 91 111 56 q 85 172 85 126 q 88 225 85 193 q 97 289 91 256 l 187 760 l 313 760 l 221 289 q 214 243 217 267 q 211 201 211 218 q 242 119 211 148 q 332 90 274 90 q 476 152 416 90 q 559 330 536 213 l 643 760 l 768 760 l 621 0 l 509 0 l 518 114 q 277 -18 420 -18 z "},"ų":{"ha":836,"x_min":85,"x_max":768,"o":"m 277 -18 q 197 -6 233 -18 q 136 31 161 7 q 98 91 111 56 q 85 172 85 126 q 88 225 85 193 q 97 289 91 256 l 187 760 l 313 760 l 221 289 q 214 243 217 267 q 211 201 211 218 q 242 119 211 148 q 332 90 274 90 q 476 152 416 90 q 559 330 536 213 l 643 760 l 768 760 l 621 0 l 509 0 l 518 114 q 277 -18 420 -18 m 576 -269 q 474 -242 510 -269 q 437 -168 437 -215 q 463 -89 437 -130 q 541 -1 488 -49 l 621 -1 q 558 -75 580 -41 q 536 -137 536 -109 q 553 -173 536 -161 q 602 -186 569 -186 q 644 -181 621 -186 q 688 -165 666 -176 l 671 -256 q 576 -269 624 -269 z "},"ů":{"ha":836,"x_min":85,"x_max":768,"o":"m 500 804 q 428 819 462 804 q 369 859 394 833 q 329 918 344 884 q 315 991 315 951 q 329 1064 315 1030 q 369 1123 344 1098 q 428 1162 394 1148 q 500 1177 462 1177 q 573 1162 539 1177 q 633 1123 608 1148 q 672 1064 658 1098 q 687 991 687 1030 q 672 918 687 951 q 633 859 658 884 q 573 819 608 833 q 500 804 539 804 m 500 888 q 541 896 522 888 q 573 918 559 904 q 595 950 587 931 q 604 990 604 968 q 595 1030 604 1012 q 573 1063 587 1049 q 541 1085 559 1077 q 500 1093 522 1093 q 460 1085 479 1093 q 428 1064 441 1078 q 406 1031 414 1050 q 398 991 398 1013 q 406 950 398 969 q 428 917 414 931 q 460 896 441 903 q 500 888 479 888 m 277 -18 q 197 -6 233 -18 q 136 31 161 7 q 98 91 111 56 q 85 172 85 126 q 88 225 85 193 q 97 289 91 256 l 187 760 l 313 760 l 221 289 q 214 243 217 267 q 211 201 211 218 q 242 119 211 148 q 332 90 274 90 q 476 152 416 90 q 559 330 536 213 l 643 760 l 768 760 l 621 0 l 509 0 l 518 114 q 277 -18 420 -18 z "},"ũ":{"ha":836,"x_min":85,"x_max":768,"o":"m 598 861 q 551 870 575 861 q 500 908 528 880 l 468 941 q 418 966 444 966 q 374 939 389 966 q 354 863 359 912 l 269 863 q 318 1004 281 954 q 420 1054 356 1054 q 471 1043 448 1054 q 519 1007 494 1033 l 551 975 q 575 955 565 962 q 599 949 585 949 q 665 1054 654 949 l 750 1054 q 700 910 738 959 q 598 861 663 861 m 277 -18 q 197 -6 233 -18 q 136 31 161 7 q 98 91 111 56 q 85 172 85 126 q 88 225 85 193 q 97 289 91 256 l 187 760 l 313 760 l 221 289 q 214 243 217 267 q 211 201 211 218 q 242 119 211 148 q 332 90 274 90 q 476 152 416 90 q 559 330 536 213 l 643 760 l 768 760 l 621 0 l 509 0 l 518 114 q 277 -18 420 -18 z "},"v":{"ha":836,"x_min":123,"x_max":823,"o":"m 123 760 l 244 760 l 349 111 l 689 760 l 823 760 l 407 0 l 245 0 l 123 760 z "},"w":{"ha":836,"x_min":62,"x_max":892,"o":"m 62 760 l 182 760 l 192 146 l 374 538 l 484 538 l 517 146 l 762 760 l 892 760 l 562 0 l 450 0 l 410 422 l 208 0 l 96 0 l 62 760 z "},"ẃ":{"ha":836,"x_min":62,"x_max":892,"o":"m 628 1116 l 777 1116 l 509 861 l 403 861 l 628 1116 m 62 760 l 182 760 l 192 146 l 374 538 l 484 538 l 517 146 l 762 760 l 892 760 l 562 0 l 450 0 l 410 422 l 208 0 l 96 0 l 62 760 z "},"ŵ":{"ha":836,"x_min":62,"x_max":892,"o":"m 500 1116 l 600 1116 l 711 861 l 621 861 l 541 1025 l 389 861 l 283 861 l 500 1116 m 62 760 l 182 760 l 192 146 l 374 538 l 484 538 l 517 146 l 762 760 l 892 760 l 562 0 l 450 0 l 410 422 l 208 0 l 96 0 l 62 760 z "},"ẅ":{"ha":836,"x_min":62,"x_max":892,"o":"m 318 895 q 303 901 308 895 q 300 918 298 907 l 319 1014 q 340 1032 321 1032 l 437 1032 q 456 1015 456 1032 q 456 1010 456 1012 l 437 913 q 415 895 433 895 l 318 895 m 583 895 q 568 901 573 895 q 565 918 563 907 l 584 1014 q 606 1032 587 1032 l 703 1032 q 722 1015 722 1032 q 721 1010 722 1012 l 702 913 q 680 895 699 895 l 583 895 m 62 760 l 182 760 l 192 146 l 374 538 l 484 538 l 517 146 l 762 760 l 892 760 l 562 0 l 450 0 l 410 422 l 208 0 l 96 0 l 62 760 z "},"ẁ":{"ha":836,"x_min":62,"x_max":892,"o":"m 292 1116 l 426 1116 l 559 861 l 463 861 l 292 1116 m 62 760 l 182 760 l 192 146 l 374 538 l 484 538 l 517 146 l 762 760 l 892 760 l 562 0 l 450 0 l 410 422 l 208 0 l 96 0 l 62 760 z "},"x":{"ha":836,"x_min":-27,"x_max":840,"o":"m 355 404 l 157 760 l 290 760 l 437 492 l 687 760 l 840 760 l 492 389 l 708 0 l 574 0 l 409 301 l 126 0 l -27 0 l 355 404 z "},"y":{"ha":836,"x_min":-6,"x_max":851,"o":"m 14 -184 l 87 -184 q 182 -153 143 -184 q 262 -45 224 -119 l 291 12 l 144 760 l 268 760 l 385 175 l 712 760 l 851 760 l 553 244 q 518 183 531 205 q 498 149 505 161 q 487 130 491 136 q 479 114 484 123 q 466 91 474 106 q 441 49 457 77 q 384 -52 407 -12 q 346 -116 361 -91 q 320 -157 331 -142 q 300 -186 310 -173 q 260 -230 281 -210 q 210 -264 239 -250 q 94 -289 160 -289 l -6 -289 l 14 -184 z "},"ý":{"ha":836,"x_min":-6,"x_max":851,"o":"m 642 1118 l 791 1118 l 523 863 l 417 863 l 642 1118 m 14 -184 l 87 -184 q 182 -153 143 -184 q 262 -45 224 -119 l 291 12 l 144 760 l 268 760 l 385 175 l 712 760 l 851 760 l 553 244 q 518 183 531 205 q 498 149 505 161 q 487 130 491 136 q 479 114 484 123 q 466 91 474 106 q 441 49 457 77 q 384 -52 407 -12 q 346 -116 361 -91 q 320 -157 331 -142 q 300 -186 310 -173 q 260 -230 281 -210 q 210 -264 239 -250 q 94 -289 160 -289 l -6 -289 l 14 -184 z "},"ŷ":{"ha":836,"x_min":-6,"x_max":851,"o":"m 527 1116 l 627 1116 l 738 861 l 648 861 l 568 1025 l 416 861 l 310 861 l 527 1116 m 14 -184 l 87 -184 q 139 -176 115 -184 q 184 -151 163 -168 q 224 -107 205 -134 q 262 -45 243 -81 l 291 12 l 144 760 l 268 760 l 385 175 l 712 760 l 851 760 l 553 244 q 520 186 536 215 q 488 131 503 157 q 461 83 473 104 q 441 49 449 62 q 354 -102 388 -45 q 300 -187 321 -159 q 208 -265 259 -241 q 94 -289 156 -289 l -6 -289 l 14 -184 z "},"ÿ":{"ha":836,"x_min":-6,"x_max":851,"o":"m 345 895 q 330 901 335 895 q 327 918 325 907 l 346 1014 q 368 1032 349 1032 l 465 1032 q 480 1026 475 1032 q 483 1010 485 1020 l 464 913 q 442 895 460 895 l 345 895 m 610 895 q 595 901 600 895 q 592 918 590 907 l 611 1014 q 633 1032 614 1032 l 730 1032 q 745 1026 740 1032 q 748 1010 750 1020 l 729 913 q 707 895 726 895 l 610 895 m 14 -184 l 87 -184 q 182 -153 143 -184 q 262 -45 224 -119 l 291 12 l 144 760 l 268 760 l 385 175 l 712 760 l 851 760 l 553 244 q 518 183 531 205 q 498 149 505 161 q 487 130 491 136 q 479 114 484 123 q 466 91 474 106 q 441 49 457 77 q 384 -52 407 -12 q 346 -116 361 -91 q 320 -157 331 -142 q 300 -186 310 -173 q 260 -230 281 -210 q 210 -264 239 -250 q 94 -289 160 -289 l -6 -289 l 14 -184 z "},"ỳ":{"ha":836,"x_min":-6,"x_max":851,"o":"m 319 1116 l 453 1116 l 587 861 l 490 861 l 319 1116 m 14 -184 l 87 -184 q 139 -176 115 -184 q 184 -151 163 -168 q 224 -107 205 -134 q 262 -45 243 -81 l 291 12 l 144 760 l 268 760 l 385 175 l 712 760 l 851 760 l 553 244 q 520 186 536 215 q 488 131 503 157 q 461 83 473 104 q 441 49 449 62 q 354 -102 388 -45 q 300 -187 321 -159 q 208 -265 259 -241 q 94 -289 156 -289 l -6 -289 l 14 -184 z "},"z":{"ha":836,"x_min":53,"x_max":768,"o":"m 75 114 l 607 660 l 197 660 l 216 760 l 768 760 l 746 646 l 214 100 l 640 100 l 621 0 l 53 0 l 75 114 z "},"ź":{"ha":836,"x_min":53,"x_max":786,"o":"m 637 1116 l 786 1116 l 518 861 l 412 861 l 637 1116 m 75 114 l 607 660 l 197 660 l 216 760 l 768 760 l 746 646 l 214 100 l 640 100 l 621 0 l 53 0 l 75 114 z "},"ž":{"ha":836,"x_min":53,"x_max":768,"o":"m 340 1116 l 429 1116 l 509 951 l 662 1116 l 768 1116 l 551 861 l 451 861 l 340 1116 m 75 114 l 607 660 l 197 660 l 216 760 l 768 760 l 746 646 l 214 100 l 640 100 l 621 0 l 53 0 l 75 114 z "},"ż":{"ha":836,"x_min":53,"x_max":768,"o":"m 471 895 q 452 911 452 895 q 453 918 452 916 l 473 1015 q 494 1034 475 1034 l 593 1034 q 611 1017 611 1034 q 610 1011 611 1013 l 591 913 q 569 895 587 895 l 471 895 m 75 114 l 607 660 l 197 660 l 216 760 l 768 760 l 746 646 l 214 100 l 640 100 l 621 0 l 53 0 l 75 114 z "},"ª":{"ha":836,"x_min":151,"x_max":703,"o":"m 362 473 q 291 485 321 473 q 243 514 262 496 q 200 625 200 555 q 220 710 200 673 q 275 773 239 747 q 486 827 351 827 l 604 827 q 605 833 604 829 q 607 849 606 840 q 607 863 607 858 q 601 900 607 882 q 576 930 594 917 q 539 947 562 942 q 482 953 517 953 q 435 950 458 953 q 389 942 412 947 q 342 927 366 937 q 294 907 319 918 l 310 993 q 410 1021 361 1013 q 458 1028 435 1026 q 505 1031 481 1031 q 653 989 604 1031 q 703 863 703 947 q 702 844 703 854 q 701 827 702 834 q 699 810 701 823 q 696 790 697 797 l 637 486 l 541 486 l 555 562 q 515 524 538 541 q 469 496 493 507 q 416 479 443 484 q 362 473 389 473 m 394 554 q 459 565 427 554 q 517 600 491 576 q 562 658 545 624 q 586 729 578 692 l 590 749 l 494 749 q 347 722 393 749 q 312 686 323 708 q 300 638 300 665 q 325 576 300 598 q 354 559 337 565 q 394 554 370 554 m 167 401 l 625 401 l 610 318 l 151 318 l 167 401 z "},"º":{"ha":836,"x_min":151,"x_max":722,"o":"m 427 473 q 335 490 374 473 q 267 535 296 506 q 223 608 237 566 q 208 699 208 650 q 214 762 208 730 q 230 822 220 793 q 259 884 242 856 q 290 928 277 911 q 335 971 310 952 q 387 1004 359 991 q 443 1024 414 1018 q 505 1031 472 1031 q 664 969 605 1031 q 707 898 692 940 q 722 803 722 856 q 717 744 722 774 q 701 680 712 713 q 675 624 690 650 q 642 576 660 598 q 597 533 621 552 q 546 500 573 513 q 427 473 492 473 m 437 551 q 507 569 473 551 q 566 624 540 587 q 605 706 591 660 q 618 800 618 752 q 585 912 618 872 q 543 943 567 934 q 494 953 519 953 q 423 934 455 953 q 366 880 391 915 q 327 799 340 844 q 314 706 314 753 q 322 640 314 667 q 348 592 331 612 q 388 562 365 572 q 437 551 411 551 m 167 401 l 625 401 l 610 318 l 151 318 l 167 401 z "},"А":{"ha":836,"x_min":-68,"x_max":716,"o":"m 437 1013 l 604 1013 l 716 0 l 580 0 l 556 264 l 203 264 l 79 0 l -68 0 l 437 1013 m 547 374 l 502 899 l 255 374 l 547 374 z "},"Б":{"ha":836,"x_min":14,"x_max":823,"o":"m 211 1013 l 823 1013 l 801 900 l 327 900 l 267 595 l 427 595 q 627 556 552 589 q 725 455 702 522 q 734 415 731 437 q 737 368 737 393 q 730 290 737 331 q 705 209 722 249 q 662 133 688 169 q 596 71 635 97 q 474 18 545 35 q 314 0 402 0 l 14 0 l 211 1013 m 336 113 q 439 123 395 113 q 514 154 484 133 q 563 210 545 176 q 591 292 582 243 q 597 348 597 322 q 551 451 597 419 q 408 484 505 484 l 245 484 l 174 113 l 336 113 z "},"В":{"ha":836,"x_min":16,"x_max":791,"o":"m 212 1013 l 513 1013 q 721 959 651 1013 q 791 799 791 905 q 775 703 791 747 q 729 626 759 659 q 656 570 699 592 q 561 542 614 549 q 694 469 653 524 q 736 327 736 414 q 708 192 736 252 q 627 89 680 132 q 497 23 574 46 q 322 0 420 0 l 16 0 l 212 1013 m 433 595 q 525 607 484 595 q 594 644 566 620 q 638 702 623 668 q 653 779 653 736 q 615 871 653 842 q 493 900 578 900 l 328 900 l 268 595 l 433 595 m 343 113 q 453 128 406 113 q 534 172 501 143 q 583 242 566 201 q 600 334 600 283 q 556 448 600 412 q 411 484 512 484 l 248 484 l 175 113 l 343 113 z "},"Г":{"ha":836,"x_min":61,"x_max":884,"o":"m 258 1013 l 884 1013 l 862 897 l 373 897 l 199 0 l 61 0 l 258 1013 z "},"Ѓ":{"ha":836,"x_min":61,"x_max":884,"o":"m 661 1265 l 802 1265 l 593 1086 l 485 1086 l 661 1265 m 258 1013 l 884 1013 l 862 897 l 373 897 l 199 0 l 61 0 l 258 1013 z "},"Ґ":{"ha":836,"x_min":68,"x_max":932,"o":"m 264 1013 l 776 1013 l 819 1220 l 932 1220 l 869 897 l 380 897 l 205 0 l 68 0 l 264 1013 z "},"Д":{"ha":836,"x_min":-113,"x_max":835,"o":"m 661 115 l 743 115 l 678 -218 l 563 -218 l 605 0 l 44 0 l 2 -218 l -113 -218 l -49 115 l 3 115 q 98 315 35 115 q 126 410 113 361 q 153 508 140 459 q 177 605 166 557 q 196 696 188 653 l 257 1013 l 835 1013 l 661 115 m 675 897 l 372 897 l 334 696 q 296 529 320 623 q 241 328 272 435 q 195 175 212 228 q 178 127 178 121 q 208 115 178 115 l 523 115 l 675 897 z "},"Е":{"ha":836,"x_min":36,"x_max":833,"o":"m 233 1013 l 833 1013 l 811 897 l 347 897 l 289 597 l 732 597 l 710 482 l 267 482 l 196 115 l 672 115 l 650 0 l 36 0 l 233 1013 z "},"Ѐ":{"ha":836,"x_min":36,"x_max":833,"o":"m 391 1267 l 514 1267 l 614 1088 l 519 1088 l 391 1267 m 233 1013 l 833 1013 l 811 897 l 347 897 l 289 597 l 732 597 l 710 482 l 267 482 l 196 115 l 672 115 l 650 0 l 36 0 l 233 1013 z "},"Ё":{"ha":836,"x_min":36,"x_max":833,"o":"m 377 1118 q 362 1124 367 1118 q 359 1140 357 1130 l 378 1236 q 399 1255 380 1255 l 496 1255 q 515 1238 515 1255 q 515 1232 515 1234 l 496 1136 q 474 1118 492 1118 l 377 1118 m 642 1118 q 627 1124 632 1118 q 624 1140 622 1130 l 643 1236 q 665 1255 646 1255 l 762 1255 q 781 1238 781 1255 q 780 1232 781 1234 l 761 1136 q 739 1118 758 1118 l 642 1118 m 233 1013 l 833 1013 l 811 897 l 347 897 l 289 597 l 732 597 l 710 482 l 267 482 l 196 115 l 672 115 l 650 0 l 36 0 l 233 1013 z "},"Ж":{"ha":836,"x_min":-79,"x_max":922,"o":"m 244 604 l 129 1013 l 269 1013 l 383 609 l 462 1013 l 589 1013 l 510 609 l 781 1013 l 922 1013 l 648 604 l 736 0 l 603 0 l 538 441 l 453 315 l 392 0 l 265 0 l 326 315 l 290 441 l 54 0 l -79 0 l 244 604 z "},"З":{"ha":836,"x_min":8,"x_max":768,"o":"m 279 -20 q 144 -7 215 -20 q 8 31 74 5 l 34 167 q 160 114 96 132 q 289 96 224 96 q 403 112 352 96 q 491 159 454 129 q 547 231 527 189 q 566 324 566 273 q 518 444 566 404 q 376 485 470 485 l 272 485 l 294 597 l 398 597 q 495 611 452 597 q 568 648 538 624 q 615 707 599 673 q 631 784 631 741 q 590 884 631 852 q 461 916 548 916 q 339 902 404 916 q 197 861 274 888 l 222 987 q 371 1020 306 1010 q 490 1031 437 1031 q 607 1016 555 1031 q 694 972 659 1001 q 749 901 730 943 q 768 804 768 859 q 752 711 768 754 q 706 634 736 668 q 633 576 676 600 q 537 542 591 553 q 657 474 613 528 q 701 326 701 420 q 671 185 701 249 q 587 76 642 122 q 454 5 532 31 q 279 -20 376 -20 z "},"И":{"ha":836,"x_min":-3,"x_max":841,"o":"m 193 1013 l 326 1013 l 163 179 l 667 1013 l 841 1013 l 644 0 l 512 0 l 674 833 l 170 0 l -3 0 l 193 1013 z "},"Й":{"ha":836,"x_min":-3,"x_max":841,"o":"m 539 1090 q 358 1230 358 1090 q 358 1242 358 1236 q 359 1255 359 1248 l 440 1255 q 471 1199 441 1218 q 558 1179 500 1179 q 704 1255 669 1179 l 785 1255 q 699 1132 761 1173 q 539 1090 637 1090 m 193 1013 l 326 1013 l 163 179 l 667 1013 l 841 1013 l 644 0 l 512 0 l 674 833 l 170 0 l -3 0 l 193 1013 z "},"Ѝ":{"ha":836,"x_min":-3,"x_max":841,"o":"m 377 1256 l 500 1256 l 600 1077 l 506 1077 l 377 1256 m 193 1013 l 326 1013 l 163 179 l 667 1013 l 841 1013 l 644 0 l 512 0 l 674 833 l 170 0 l -3 0 l 193 1013 z "},"К":{"ha":836,"x_min":-5,"x_max":918,"o":"m 192 1013 l 329 1013 l 243 574 l 746 1013 l 918 1013 l 441 593 l 732 0 l 583 0 l 339 503 l 208 389 l 132 0 l -5 0 l 192 1013 z "},"Ќ":{"ha":836,"x_min":51,"x_max":975,"o":"m 681 1256 l 822 1256 l 614 1077 l 505 1077 l 681 1256 m 248 1013 l 385 1013 l 299 574 l 802 1013 l 975 1013 l 498 593 l 788 0 l 640 0 l 395 503 l 264 389 l 189 0 l 51 0 l 248 1013 z "},"Л":{"ha":836,"x_min":-72,"x_max":833,"o":"m -50 111 q 5 115 -18 111 q 47 130 29 119 q 77 158 64 140 q 101 202 90 176 q 123 265 113 229 q 146 351 133 302 q 161 415 153 380 q 179 494 170 450 q 200 595 189 539 q 225 724 211 652 l 281 1013 l 833 1013 l 637 0 l 499 0 l 673 897 l 397 897 l 363 728 q 322 516 341 616 q 280 334 302 416 q 227 187 257 251 q 153 81 197 123 q 111 46 132 61 q 64 20 90 31 q 5 5 38 10 q -72 0 -27 0 l -50 111 z "},"М":{"ha":836,"x_min":-35,"x_max":882,"o":"m 161 1013 l 343 1013 l 418 500 l 699 1013 l 882 1013 l 684 0 l 558 0 l 733 900 l 439 361 l 343 361 l 265 900 l 92 0 l -35 0 l 161 1013 z "},"Н":{"ha":836,"x_min":-5,"x_max":842,"o":"m 192 1013 l 329 1013 l 249 597 l 624 597 l 704 1013 l 842 1013 l 644 0 l 507 0 l 602 482 l 225 482 l 132 0 l -5 0 l 192 1013 z "},"О":{"ha":836,"x_min":62,"x_max":787,"o":"m 332 -20 q 62 311 62 -20 q 78 490 62 398 q 120 661 94 581 q 165 777 141 727 q 213 863 189 826 q 345 989 270 947 q 516 1031 419 1031 q 720 950 652 1031 q 787 703 787 869 q 783 618 787 663 q 771 528 779 574 q 753 438 764 483 q 728 350 742 393 q 684 236 708 286 q 635 149 661 186 q 503 21 578 62 q 332 -20 427 -20 m 344 92 q 405 101 377 92 q 456 127 433 110 q 498 169 479 144 q 534 226 517 194 q 566 296 551 258 q 593 377 581 335 q 616 464 606 420 q 633 553 626 509 q 643 640 640 597 q 647 719 647 682 q 641 801 647 764 q 618 864 634 838 q 575 905 602 890 q 505 920 547 920 q 444 910 471 920 q 394 884 416 901 q 352 842 371 867 q 315 786 332 817 q 269 676 290 738 q 233 548 248 614 q 210 415 218 481 q 201 293 201 349 q 208 209 201 246 q 231 145 215 171 q 275 105 248 119 q 344 92 302 92 z "},"П":{"ha":836,"x_min":-5,"x_max":842,"o":"m 192 1013 l 842 1013 l 646 0 l 508 0 l 682 897 l 307 897 l 133 0 l -5 0 l 192 1013 z "},"Р":{"ha":836,"x_min":35,"x_max":817,"o":"m 232 1013 l 530 1013 q 743 951 669 1013 q 817 761 817 889 q 788 616 817 682 q 708 505 760 551 q 580 432 655 458 q 410 407 505 407 l 252 407 l 172 0 l 35 0 l 232 1013 m 432 519 q 533 536 488 519 q 611 584 578 553 q 660 658 643 615 q 677 753 677 701 q 636 864 677 829 q 505 900 595 900 l 347 900 l 273 519 l 432 519 z "},"С":{"ha":836,"x_min":73,"x_max":817,"o":"m 400 -20 q 261 2 322 -20 q 158 69 200 24 q 95 181 117 114 q 73 338 73 248 q 85 480 73 408 q 120 620 98 552 q 175 749 143 688 q 245 859 207 810 q 404 988 314 945 q 600 1031 494 1031 q 710 1017 658 1031 q 817 975 762 1004 l 789 835 q 594 920 703 920 q 473 891 528 920 q 372 808 418 863 q 309 712 338 767 q 259 596 280 658 q 227 470 239 535 q 216 345 216 406 q 268 153 216 215 q 419 92 321 92 q 540 113 479 92 q 661 176 602 135 l 635 36 q 400 -20 522 -20 z "},"Т":{"ha":836,"x_min":129,"x_max":924,"o":"m 447 897 l 129 897 l 151 1013 l 924 1013 l 902 897 l 584 897 l 410 0 l 272 0 l 447 897 z "},"У":{"ha":836,"x_min":40,"x_max":894,"o":"m 62 117 l 136 117 q 186 125 163 117 q 228 148 209 133 q 265 184 248 163 q 298 232 282 205 q 313 256 305 243 q 328 282 321 269 l 182 1013 l 330 1013 l 431 450 l 749 1013 l 894 1013 l 474 288 q 411 186 443 234 q 351 106 380 139 q 315 68 335 87 q 270 34 295 50 q 212 9 244 19 q 140 0 180 0 l 40 0 l 62 117 z "},"Ў":{"ha":836,"x_min":40,"x_max":894,"o":"m 552 1094 q 371 1233 371 1094 q 371 1245 371 1239 q 372 1258 372 1251 l 453 1258 q 484 1202 454 1221 q 571 1183 513 1183 q 717 1258 682 1183 l 798 1258 q 712 1135 774 1177 q 552 1094 650 1094 m 62 117 l 136 117 q 186 125 163 117 q 228 148 209 133 q 265 184 248 163 q 298 232 282 205 q 313 256 305 243 q 328 282 321 269 l 182 1013 l 330 1013 l 431 450 l 749 1013 l 894 1013 l 474 288 q 411 186 443 234 q 351 106 380 139 q 315 68 335 87 q 270 34 295 50 q 212 9 244 19 q 140 0 180 0 l 40 0 l 62 117 z "},"Ф":{"ha":836,"x_min":37,"x_max":814,"o":"m 275 103 q 196 113 229 106 q 138 131 162 119 q 99 160 115 143 q 73 201 83 178 q 58 240 64 219 q 47 285 52 262 q 40 333 42 309 q 37 379 37 357 q 41 444 37 408 q 52 517 45 479 q 98 682 68 607 q 174 811 127 757 q 286 897 221 866 q 436 930 351 928 l 452 1013 l 590 1013 l 574 930 q 674 915 633 928 q 742 881 715 901 q 784 834 769 860 q 805 780 798 808 q 813 724 812 752 q 814 671 814 696 q 798 517 814 599 q 752 353 781 427 q 678 223 724 278 q 567 137 632 169 q 413 103 502 106 l 393 0 l 256 0 l 275 103 m 415 819 q 319 785 356 809 q 259 725 282 762 q 223 641 236 688 q 199 536 210 593 q 187 472 191 497 q 180 429 182 446 q 177 398 178 411 q 176 374 176 386 q 175 353 175 363 q 174 333 174 342 q 178 293 174 312 q 195 259 182 275 q 232 233 208 244 q 297 214 256 221 l 415 819 m 435 214 q 523 243 486 221 q 585 302 559 266 q 626 388 610 339 q 653 497 642 437 q 662 553 659 526 q 668 601 666 580 q 672 638 671 623 q 674 660 673 653 q 675 679 675 669 q 675 696 675 688 q 670 741 675 721 q 652 776 665 761 q 614 802 638 791 q 553 819 590 812 l 435 214 z "},"Х":{"ha":836,"x_min":-86,"x_max":907,"o":"m 359 541 l 164 1013 l 300 1013 l 452 652 l 750 1013 l 907 1013 l 503 525 l 722 0 l 586 0 l 414 415 l 71 0 l -86 0 l 359 541 z "},"Ч":{"ha":836,"x_min":113,"x_max":839,"o":"m 591 446 q 519 417 551 428 q 457 400 486 406 q 401 393 428 395 q 347 391 375 391 q 269 395 302 391 q 213 406 237 398 q 173 426 190 414 q 143 458 157 439 q 121 503 128 479 q 113 563 113 527 q 116 611 113 583 q 123 665 118 639 l 191 1013 l 329 1013 l 264 682 q 258 640 260 661 q 256 603 256 618 q 262 564 256 576 q 275 545 267 552 q 322 523 293 528 q 402 517 351 517 q 459 519 433 517 q 509 529 484 522 q 559 549 533 536 q 618 584 585 562 l 701 1013 l 839 1013 l 642 0 l 505 0 l 591 446 z "},"Ц":{"ha":836,"x_min":-23,"x_max":824,"o":"m 603 0 l -23 0 l 174 1013 l 311 1013 l 137 115 l 512 115 l 686 1013 l 824 1013 l 650 115 l 741 115 l 676 -218 l 561 -218 l 603 0 z "},"Ш":{"ha":836,"x_min":-16,"x_max":863,"o":"m 181 1013 l 307 1013 l 133 115 l 285 115 l 459 1013 l 585 1013 l 411 115 l 563 115 l 737 1013 l 863 1013 l 667 0 l -16 0 l 181 1013 z "},"Щ":{"ha":836,"x_min":-18,"x_max":861,"o":"m 640 0 l -18 0 l 178 1013 l 304 1013 l 130 115 l 282 115 l 456 1013 l 583 1013 l 408 115 l 560 115 l 734 1013 l 861 1013 l 686 115 l 777 115 l 713 -218 l 597 -218 l 640 0 z "},"Џ":{"ha":836,"x_min":2,"x_max":849,"o":"m 269 0 l 2 0 l 199 1013 l 336 1013 l 162 115 l 537 115 l 711 1013 l 849 1013 l 652 0 l 385 0 l 343 -218 l 227 -218 l 269 0 z "},"Я":{"ha":836,"x_min":-67,"x_max":846,"o":"m 271 452 q 162 529 203 478 q 121 650 121 580 q 129 720 121 678 q 176 846 142 791 q 261 938 210 901 q 380 994 313 975 q 530 1013 448 1013 l 846 1013 l 650 0 l 512 0 l 595 428 l 399 428 l 78 0 l -67 0 l 271 452 m 617 541 l 687 900 l 509 900 q 350 854 410 900 q 273 720 290 808 q 269 693 271 706 q 268 668 268 680 q 433 541 268 541 l 617 541 z "},"Ь":{"ha":836,"x_min":35,"x_max":743,"o":"m 232 1013 l 369 1013 l 290 606 l 448 606 q 669 548 596 606 q 743 382 743 491 q 734 302 743 345 q 686 170 720 227 q 601 75 652 113 q 481 19 549 37 q 331 0 414 0 l 35 0 l 232 1013 m 353 113 q 511 162 449 113 q 591 302 574 212 q 596 350 596 326 q 552 456 596 418 q 427 493 509 493 l 268 493 l 194 113 l 353 113 z "},"Ъ":{"ha":836,"x_min":104,"x_max":749,"o":"m 281 897 l 104 897 l 126 1013 l 440 1013 l 361 606 l 454 606 q 675 548 602 606 q 749 382 749 491 q 741 302 749 345 q 692 170 726 227 q 607 75 658 113 q 488 19 555 37 q 337 0 420 0 l 106 0 l 281 897 m 359 113 q 517 162 455 113 q 597 302 580 212 q 602 350 602 326 q 558 456 602 418 q 433 493 515 493 l 339 493 l 265 113 l 359 113 z "},"Ы":{"ha":836,"x_min":-54,"x_max":868,"o":"m 143 1013 l 280 1013 l 201 606 l 262 606 q 369 591 321 606 q 449 547 416 576 q 499 475 481 517 q 517 378 517 433 q 516 341 517 360 q 510 302 514 322 q 460 171 495 227 q 377 76 426 114 q 269 19 328 38 q 145 0 210 0 l -54 0 l 143 1013 m 730 1013 l 868 1013 l 671 0 l 534 0 l 730 1013 m 167 113 q 234 123 202 113 q 292 158 266 134 q 338 217 319 181 q 367 302 357 252 q 373 361 373 334 q 340 459 373 425 q 241 493 307 493 l 179 493 l 105 113 l 167 113 z "},"Љ":{"ha":836,"x_min":-87,"x_max":783,"o":"m -66 111 q -11 115 -34 111 q 29 130 12 119 q 58 158 45 140 q 80 202 70 176 q 99 265 90 229 q 122 351 109 302 q 138 415 130 380 q 155 494 146 450 q 176 595 165 539 q 201 724 187 652 l 258 1013 l 627 1013 l 547 606 l 562 606 q 641 592 602 606 q 712 550 681 579 q 764 475 744 521 q 783 366 783 430 q 780 316 783 349 q 763 243 777 283 q 721 159 749 203 q 644 77 692 116 q 542 19 594 39 q 444 0 490 0 l 304 0 l 478 897 l 361 897 l 328 728 q 302 595 315 661 q 276 466 290 529 q 247 346 262 404 q 212 239 231 288 q 170 149 193 189 q 118 81 146 109 q 76 44 96 60 q 32 19 55 29 q -21 5 8 9 q -87 0 -50 0 l -66 111 m 466 113 q 526 125 496 113 q 579 161 555 137 q 622 219 604 184 q 648 297 640 253 q 653 334 651 315 q 654 366 654 354 q 648 413 654 390 q 628 453 642 435 q 593 482 614 471 q 540 493 571 493 l 526 493 l 452 113 l 466 113 z "},"Њ":{"ha":836,"x_min":-54,"x_max":823,"o":"m 143 1013 l 269 1013 l 189 597 l 456 597 l 537 1013 l 663 1013 l 584 606 l 598 606 q 702 589 659 606 q 771 545 744 573 q 810 480 798 517 q 823 401 823 443 q 820 356 823 381 q 812 304 817 330 q 760 170 795 227 q 679 75 724 113 q 581 19 633 37 q 481 0 530 0 l 340 0 l 434 482 l 166 482 l 73 0 l -54 0 l 143 1013 m 503 113 q 562 125 533 113 q 616 161 591 137 q 658 219 640 184 q 684 297 676 253 q 689 334 688 315 q 691 365 691 353 q 685 411 691 388 q 666 452 680 434 q 631 482 652 471 q 576 493 609 493 l 562 493 l 488 113 l 503 113 z "},"Ѕ":{"ha":836,"x_min":17,"x_max":778,"o":"m 295 -20 q 153 -4 220 -20 q 17 41 85 11 l 45 183 q 182 113 113 134 q 318 92 252 92 q 426 107 378 92 q 507 152 473 123 q 557 220 540 180 q 575 307 575 259 q 568 354 575 334 q 544 390 562 374 q 498 419 527 406 q 425 447 469 433 l 357 469 q 251 511 294 490 q 181 559 208 533 q 143 618 155 585 q 132 693 132 650 q 162 829 132 767 q 245 936 192 891 q 371 1006 298 981 q 530 1031 444 1031 q 649 1018 589 1031 q 778 978 709 1005 l 751 839 q 515 920 641 920 q 412 905 458 920 q 333 864 366 890 q 281 802 299 838 q 262 723 262 766 q 270 678 262 697 q 295 644 277 659 q 343 615 313 629 q 416 587 372 602 l 498 561 q 597 519 557 542 q 664 467 638 496 q 700 402 689 438 q 711 320 711 366 q 682 182 711 244 q 599 75 653 119 q 468 5 545 30 q 295 -20 391 -20 z "},"Є":{"ha":836,"x_min":76,"x_max":819,"o":"m 399 -20 q 286 -5 335 -20 q 201 34 237 9 q 141 92 165 58 q 103 165 117 126 q 82 247 88 204 q 76 333 76 290 q 94 505 76 411 q 166 729 119 631 q 279 894 214 827 q 428 996 345 961 q 606 1031 511 1031 q 819 975 726 1031 l 791 835 q 578 920 705 920 q 464 897 513 920 q 376 830 415 875 q 308 719 338 786 q 252 564 277 652 l 677 564 l 655 448 l 227 448 q 218 387 221 418 q 216 330 216 355 q 219 278 216 305 q 230 224 222 251 q 252 174 237 198 q 289 132 266 150 q 344 102 312 113 q 421 92 376 92 q 545 114 484 92 q 664 176 607 136 l 636 36 q 399 -20 522 -20 z "},"Э":{"ha":836,"x_min":14,"x_max":758,"o":"m 228 -20 q 14 36 107 -20 l 42 176 q 139 113 85 134 q 251 92 193 92 q 372 118 318 92 q 468 193 427 145 q 539 306 510 241 q 585 448 568 371 l 157 448 l 179 564 l 604 564 q 608 630 607 596 q 610 690 610 665 q 607 744 610 717 q 598 797 605 772 q 578 845 591 823 q 544 884 565 867 q 491 910 522 901 q 416 920 460 920 q 170 835 290 920 l 197 975 q 433 1031 311 1031 q 546 1017 497 1031 q 631 977 595 1002 q 691 918 667 952 q 730 845 715 884 q 751 762 745 805 q 758 675 758 719 q 739 505 758 597 q 668 282 715 380 q 556 117 621 184 q 408 15 490 50 q 228 -20 325 -20 z "},"І":{"ha":836,"x_min":39,"x_max":798,"o":"m 61 115 l 273 115 l 425 897 l 212 897 l 235 1013 l 798 1013 l 775 897 l 562 897 l 411 115 l 624 115 l 602 0 l 39 0 l 61 115 z "},"Ї":{"ha":836,"x_min":39,"x_max":798,"o":"m 355 1118 q 339 1124 345 1118 q 336 1140 334 1130 l 355 1236 q 377 1255 358 1255 l 474 1255 q 493 1238 493 1255 q 492 1232 493 1234 l 473 1136 q 452 1118 470 1118 l 355 1118 m 620 1118 q 605 1124 610 1118 q 602 1140 600 1130 l 621 1236 q 642 1255 623 1255 l 739 1255 q 758 1238 758 1255 q 758 1232 758 1234 l 739 1136 q 717 1118 735 1118 l 620 1118 m 61 115 l 273 115 l 425 897 l 212 897 l 235 1013 l 798 1013 l 775 897 l 562 897 l 411 115 l 624 115 l 602 0 l 39 0 l 61 115 z "},"Ј":{"ha":836,"x_min":-17,"x_max":747,"o":"m 258 -20 q 117 -4 184 -20 q -17 41 51 12 l 14 201 q 128 118 66 144 q 262 92 190 92 q 344 104 309 92 q 404 144 378 116 q 446 217 429 172 q 476 330 463 263 l 587 897 l 329 897 l 351 1013 l 747 1013 l 614 330 q 567 168 595 235 q 496 59 538 101 q 395 -1 454 18 q 258 -20 337 -20 z "},"Ћ":{"ha":836,"x_min":24,"x_max":748,"o":"m 198 899 l 31 899 l 54 1014 l 660 1014 l 637 899 l 336 899 l 267 543 q 284 557 276 551 q 300 569 292 564 q 316 578 308 574 q 334 587 324 583 q 356 598 345 593 q 369 605 366 604 q 430 626 395 618 q 519 637 465 633 q 536 638 529 637 q 553 638 543 638 q 644 625 605 638 q 709 581 683 611 q 717 572 713 576 q 723 562 720 567 q 748 444 748 517 q 736 331 748 393 l 671 0 l 534 0 l 595 313 q 601 355 599 336 q 604 392 604 374 q 574 483 604 454 q 480 512 544 512 q 414 505 447 512 q 348 484 380 497 q 317 468 329 475 q 296 450 306 460 q 247 377 268 423 q 214 272 226 330 l 161 0 l 24 0 l 198 899 z "},"Ю":{"ha":836,"x_min":-30,"x_max":850,"o":"m 448 -20 q 299 51 347 -20 q 252 252 252 121 q 257 346 252 296 q 271 452 262 395 l 196 452 l 108 0 l -30 0 l 168 1013 l 305 1013 l 218 567 l 294 567 q 352 761 318 675 q 429 906 385 846 q 529 999 473 966 q 653 1031 584 1031 q 769 997 725 1031 q 833 901 814 963 q 846 834 842 871 q 850 755 850 798 q 844 645 850 703 q 827 527 838 587 q 801 408 817 467 q 767 294 786 349 q 726 193 748 240 q 680 111 704 146 q 579 15 637 49 q 448 -20 521 -20 m 471 92 q 540 116 508 92 q 595 187 572 140 q 626 260 610 216 q 655 356 641 304 q 681 465 669 408 q 702 577 693 522 q 716 684 711 633 q 722 776 722 735 q 721 802 722 789 q 719 824 720 814 q 692 894 713 869 q 632 920 671 920 q 566 897 597 920 q 509 824 535 873 q 478 749 494 793 q 448 651 463 704 q 422 542 434 599 q 401 430 410 486 q 388 325 393 375 q 382 235 382 274 q 383 209 382 221 q 385 187 384 197 q 412 117 391 142 q 471 92 433 92 z "},"Ђ":{"ha":836,"x_min":54,"x_max":779,"o":"m 317 -319 q 300 -319 309 -319 q 284 -318 292 -319 q 270 -318 276 -318 q 261 -317 264 -317 q 283 -195 262 -317 l 334 -206 q 342 -207 338 -207 q 357 -208 347 -208 q 438 -196 404 -208 q 497 -156 472 -184 q 539 -82 522 -128 q 570 31 557 -37 l 625 313 q 634 393 634 357 q 604 484 634 456 q 511 512 574 512 q 447 505 479 512 q 379 484 414 498 q 349 468 360 475 q 327 450 337 460 q 278 376 300 423 q 245 272 256 330 l 192 0 l 54 0 l 229 899 l 62 899 l 85 1014 l 691 1014 l 669 899 l 367 899 l 298 543 q 313 556 306 550 q 327 567 319 562 q 343 576 334 572 q 364 587 352 581 q 367 589 366 588 q 371 591 368 589 q 381 596 374 593 q 400 605 388 599 q 426 616 412 611 q 458 625 440 621 q 498 632 475 629 q 551 637 521 635 q 567 638 559 637 q 584 638 574 638 q 675 625 636 638 q 741 581 714 611 q 748 572 745 576 q 754 562 751 567 q 779 447 779 517 q 776 392 779 421 q 766 331 772 363 l 708 31 q 659 -133 689 -66 q 581 -241 628 -199 q 469 -300 534 -282 q 317 -319 404 -319 z "},"Ѣ":{"ha":836,"x_min":69,"x_max":743,"o":"m 246 749 l 69 749 l 91 861 l 268 861 l 297 1013 l 434 1013 l 405 861 l 655 861 l 633 749 l 383 749 l 355 606 l 448 606 q 669 548 596 606 q 743 382 743 491 q 734 302 743 345 q 686 170 720 227 q 601 75 652 113 q 481 19 549 37 q 331 0 414 0 l 100 0 l 246 749 m 353 113 q 439 125 399 113 q 510 162 479 138 q 562 221 541 186 q 591 302 583 256 q 596 349 596 326 q 552 456 596 419 q 427 493 508 493 l 333 493 l 259 113 l 353 113 z "},"Ѳ":{"ha":836,"x_min":55,"x_max":781,"o":"m 315 -20 q 120 55 186 -20 q 55 286 55 130 q 79 505 55 380 q 238 899 130 766 q 520 1031 346 1031 q 717 954 653 1031 q 781 724 781 878 q 757 505 781 629 q 596 111 705 241 q 315 -20 487 -20 m 624 562 q 636 653 632 611 q 641 731 641 695 q 608 873 641 826 q 498 920 574 920 q 406 897 446 920 q 335 830 366 875 q 279 718 303 785 q 234 562 254 651 l 624 562 m 338 92 q 430 114 389 92 q 501 179 470 136 q 556 287 532 222 q 600 437 580 351 l 210 437 q 199 353 203 392 q 195 279 195 313 q 228 140 195 188 q 338 92 260 92 z "},"Ғ":{"ha":836,"x_min":63,"x_max":886,"o":"m 172 563 l 84 563 l 106 678 l 195 678 l 260 1013 l 886 1013 l 864 897 l 375 897 l 332 678 l 703 678 l 681 563 l 310 563 l 201 0 l 63 0 l 172 563 z "},"Ҕ":{"ha":836,"x_min":24,"x_max":847,"o":"m 273 -163 l 315 -163 q 393 -152 359 -163 q 452 -113 427 -140 q 495 -41 477 -86 q 526 71 513 3 l 564 267 q 572 345 572 310 q 438 482 572 482 l 255 482 l 161 0 l 24 0 l 220 1013 l 847 1013 l 825 897 l 336 897 l 277 597 l 488 597 q 599 577 552 597 q 675 517 646 556 q 715 378 715 463 q 705 278 715 332 l 664 71 q 615 -88 646 -22 q 541 -196 585 -154 q 437 -258 496 -239 q 302 -278 378 -278 l 250 -278 l 273 -163 z "},"Җ":{"ha":836,"x_min":-88,"x_max":913,"o":"m 612 0 l 594 0 l 529 441 l 444 315 l 383 0 l 256 0 l 317 315 l 281 441 l 45 0 l -88 0 l 235 604 l 120 1013 l 260 1013 l 375 609 l 453 1013 l 580 1013 l 502 609 l 772 1013 l 913 1013 l 639 604 l 711 115 l 750 115 l 685 -218 l 570 -218 l 612 0 z "},"Ҙ":{"ha":836,"x_min":-12,"x_max":747,"o":"m 517 542 q 637 474 593 528 q 681 326 681 420 q 657 199 681 257 q 588 96 633 140 q 479 23 543 52 q 336 -16 416 -6 q 367 -82 357 -54 q 376 -134 376 -109 q 363 -189 376 -164 q 328 -231 351 -213 q 272 -258 305 -248 q 199 -268 239 -268 q 138 -263 170 -268 q 74 -248 106 -258 l 91 -160 q 143 -179 118 -173 q 191 -186 168 -186 q 260 -165 235 -186 q 286 -110 286 -144 q 278 -71 286 -92 q 256 -20 271 -49 q 123 -7 193 -20 q -12 31 54 5 l 14 167 q 139 114 75 132 q 269 96 203 96 q 383 112 332 96 q 470 159 434 129 q 526 231 507 189 q 546 324 546 273 q 498 444 546 404 q 355 485 450 485 l 252 485 l 273 597 l 378 597 q 474 611 431 597 q 548 648 517 624 q 595 707 578 673 q 611 784 611 741 q 569 884 611 852 q 441 916 528 916 q 319 902 384 916 q 176 861 254 888 l 201 987 q 351 1020 286 1010 q 470 1031 416 1031 q 587 1016 535 1031 q 674 972 638 1001 q 728 901 709 943 q 747 804 747 859 q 731 711 747 754 q 686 634 715 668 q 613 576 656 600 q 517 542 570 553 z "},"Қ":{"ha":836,"x_min":-12,"x_max":911,"o":"m 589 0 l 561 0 l 329 507 l 203 396 l 126 0 l -12 0 l 185 1013 l 323 1013 l 235 562 l 751 1013 l 911 1013 l 437 599 l 670 115 l 749 115 l 686 -212 l 548 -212 l 589 0 z "},"Ң":{"ha":836,"x_min":-12,"x_max":835,"o":"m 637 0 l 500 0 l 595 482 l 218 482 l 125 0 l -12 0 l 185 1013 l 322 1013 l 242 597 l 617 597 l 697 1013 l 835 1013 l 660 115 l 798 115 l 734 -212 l 596 -212 l 637 0 z "},"Ҫ":{"ha":836,"x_min":66,"x_max":810,"o":"m 587 920 q 467 891 522 920 q 366 808 412 863 q 302 712 331 767 q 253 596 273 658 q 220 470 232 535 q 209 345 209 406 q 261 153 209 215 q 412 92 314 92 q 533 113 472 92 q 654 176 595 135 l 628 36 q 441 -18 537 -9 q 472 -82 463 -56 q 481 -134 481 -109 q 468 -189 481 -164 q 433 -231 456 -213 q 377 -258 410 -248 q 304 -268 345 -268 q 243 -263 275 -268 q 179 -248 212 -258 l 196 -160 q 248 -179 223 -173 q 296 -186 273 -186 q 366 -165 340 -186 q 391 -110 391 -144 q 361 -19 391 -76 q 143 79 220 -10 q 66 338 66 168 q 78 480 66 408 q 114 620 91 552 q 168 749 136 688 q 238 859 200 810 q 397 988 307 945 q 593 1031 487 1031 q 703 1017 651 1031 q 810 975 755 1004 l 782 835 q 587 920 696 920 z "},"Ҭ":{"ha":836,"x_min":109,"x_max":904,"o":"m 390 0 l 252 0 l 427 897 l 109 897 l 131 1013 l 904 1013 l 882 897 l 564 897 l 412 115 l 550 115 l 486 -212 l 349 -212 l 390 0 z "},"Ү":{"ha":836,"x_min":132,"x_max":914,"o":"m 345 454 l 132 1013 l 269 1013 l 429 571 l 766 1013 l 914 1013 l 484 454 l 396 0 l 256 0 l 345 454 z "},"Ұ":{"ha":836,"x_min":132,"x_max":918,"o":"m 315 285 l 136 285 l 158 400 l 337 400 l 347 454 l 132 1013 l 278 1013 l 438 566 l 771 1013 l 918 1013 l 485 454 l 475 400 l 655 400 l 633 285 l 452 285 l 397 0 l 259 0 l 315 285 z "},"Ҳ":{"ha":836,"x_min":-85,"x_max":901,"o":"m 588 0 l 578 0 l 415 436 l 62 0 l -85 0 l 358 536 l 157 1013 l 304 1013 l 453 631 l 753 1013 l 901 1013 l 505 536 l 678 115 l 748 115 l 685 -212 l 547 -212 l 588 0 z "},"Һ":{"ha":836,"x_min":16,"x_max":741,"o":"m 212 1014 l 350 1014 l 260 551 q 291 575 275 564 q 327 595 307 585 l 362 613 q 394 625 376 620 q 432 635 412 631 q 473 642 452 639 q 513 645 494 644 l 546 646 q 703 589 653 646 q 711 578 708 584 q 717 570 715 573 q 735 519 728 549 q 741 453 741 490 q 729 339 741 403 l 663 0 l 526 0 l 588 321 q 597 401 597 365 q 567 491 597 463 q 474 520 538 520 q 408 513 441 520 q 341 492 374 506 q 290 458 306 477 q 208 280 230 397 l 153 0 l 16 0 l 212 1014 z "},"Ӏ":{"ha":836,"x_min":39,"x_max":798,"o":"m 61 115 l 273 115 l 425 897 l 212 897 l 235 1013 l 798 1013 l 775 897 l 562 897 l 411 115 l 624 115 l 602 0 l 39 0 l 61 115 z "},"Ӂ":{"ha":836,"x_min":-88,"x_max":913,"o":"m 530 1098 q 349 1237 349 1098 q 350 1249 349 1243 q 351 1262 350 1255 l 431 1262 q 462 1206 432 1225 q 549 1187 492 1187 q 695 1262 660 1187 l 776 1262 q 690 1139 752 1181 q 530 1098 629 1098 m 235 604 l 120 1013 l 260 1013 l 374 609 l 453 1013 l 580 1013 l 501 609 l 772 1013 l 913 1013 l 639 604 l 728 0 l 594 0 l 529 441 l 444 315 l 383 0 l 256 0 l 317 315 l 281 441 l 45 0 l -88 0 l 235 604 z "},"Ӄ":{"ha":836,"x_min":5,"x_max":928,"o":"m 254 -163 l 296 -163 q 377 -151 343 -163 q 436 -112 411 -139 q 478 -40 460 -84 q 508 71 495 5 l 547 267 q 555 343 555 309 q 420 482 555 482 l 317 482 l 220 396 l 143 0 l 5 0 l 202 1013 l 340 1013 l 252 562 l 768 1013 l 928 1013 l 454 597 l 470 597 q 564 584 522 597 q 635 542 606 570 q 681 472 665 514 q 696 373 696 430 q 686 278 696 330 l 646 71 q 597 -88 627 -22 q 523 -196 567 -154 q 419 -258 478 -239 q 283 -278 359 -278 l 232 -278 l 254 -163 z "},"Ӈ":{"ha":836,"x_min":-5,"x_max":842,"o":"m 267 -163 l 309 -163 q 391 -150 357 -163 q 450 -110 425 -138 q 492 -38 475 -83 q 521 71 509 6 l 601 482 l 226 482 l 132 0 l -5 0 l 191 1013 l 329 1013 l 248 597 l 623 597 l 704 1013 l 842 1013 l 659 71 q 610 -89 640 -23 q 535 -197 580 -155 q 432 -259 491 -239 q 296 -278 372 -278 l 245 -278 l 267 -163 z "},"Ӌ":{"ha":836,"x_min":35,"x_max":859,"o":"m 173 0 l 35 0 l 232 1013 l 859 1013 l 836 897 l 347 897 l 195 115 l 333 115 l 269 -212 l 132 -212 l 173 0 z "},"Ӑ":{"ha":836,"x_min":-68,"x_max":788,"o":"m 543 1094 q 361 1233 361 1094 q 362 1245 361 1239 q 363 1258 362 1251 l 444 1258 q 474 1202 444 1221 q 562 1183 504 1183 q 707 1258 672 1183 l 788 1258 q 703 1135 764 1177 q 543 1094 641 1094 m 437 1013 l 604 1013 l 717 0 l 581 0 l 557 264 l 204 264 l 79 0 l -68 0 l 437 1013 m 547 374 l 503 899 l 256 374 l 547 374 z "},"Ӓ":{"ha":836,"x_min":-68,"x_max":748,"o":"m 343 1117 q 328 1123 333 1117 q 325 1139 323 1129 l 344 1236 q 366 1255 347 1255 l 463 1255 q 481 1238 481 1255 q 481 1232 481 1234 l 461 1135 q 439 1117 457 1117 l 343 1117 m 608 1117 q 593 1123 598 1117 q 590 1139 588 1129 l 609 1236 q 631 1255 612 1255 l 728 1255 q 743 1249 738 1255 q 746 1232 748 1242 l 727 1135 q 705 1117 724 1117 l 608 1117 m 437 1013 l 604 1013 l 717 0 l 581 0 l 557 264 l 204 264 l 79 0 l -68 0 l 437 1013 m 547 374 l 503 899 l 256 374 l 547 374 z "},"Ӗ":{"ha":836,"x_min":22,"x_max":820,"o":"m 537 1093 q 356 1232 356 1093 q 356 1244 356 1238 q 357 1257 357 1251 l 438 1257 q 469 1201 439 1221 q 556 1182 498 1182 q 702 1257 667 1182 l 783 1257 q 697 1135 759 1176 q 537 1093 635 1093 m 220 1013 l 820 1013 l 798 897 l 334 897 l 275 597 l 718 597 l 696 482 l 253 482 l 182 115 l 659 115 l 636 0 l 22 0 l 220 1013 z "},"Ә":{"ha":836,"x_min":55,"x_max":781,"o":"m 315 -20 q 119 55 183 -20 q 55 285 55 130 q 79 505 55 380 l 90 562 l 624 562 q 636 654 632 612 q 641 732 641 696 q 607 873 641 827 q 495 920 574 920 q 378 898 441 920 q 258 835 316 876 l 286 975 q 401 1017 343 1004 q 517 1031 459 1031 q 716 955 652 1031 q 781 725 781 879 q 757 505 781 629 q 597 111 705 242 q 315 -20 488 -20 m 338 92 q 430 114 389 92 q 501 179 470 136 q 556 287 532 222 q 600 437 580 351 l 210 437 q 199 353 203 392 q 195 279 195 313 q 228 140 195 188 q 338 92 260 92 z "},"Ӛ":{"ha":836,"x_min":55,"x_max":781,"o":"m 334 1117 q 318 1123 323 1117 q 315 1139 313 1129 l 334 1236 q 356 1255 337 1255 l 454 1255 q 472 1238 472 1255 q 471 1232 472 1234 l 452 1135 q 430 1117 448 1117 l 334 1117 m 599 1117 q 584 1123 589 1117 q 581 1139 578 1129 l 600 1236 q 621 1255 602 1255 l 718 1255 q 733 1249 728 1255 q 736 1232 739 1242 l 718 1135 q 696 1117 714 1117 l 599 1117 m 315 -20 q 119 55 183 -20 q 55 285 55 130 q 79 505 55 380 l 90 562 l 624 562 q 636 654 632 612 q 641 732 641 696 q 607 873 641 827 q 495 920 574 920 q 378 898 441 920 q 258 835 316 876 l 286 975 q 401 1017 343 1004 q 517 1031 459 1031 q 716 955 652 1031 q 781 725 781 879 q 757 505 781 629 q 597 111 705 242 q 315 -20 488 -20 m 338 92 q 430 114 389 92 q 501 179 470 136 q 556 287 532 222 q 600 437 580 351 l 210 437 q 199 353 203 392 q 195 279 195 313 q 228 140 195 188 q 338 92 260 92 z "},"Ӝ":{"ha":836,"x_min":-88,"x_max":913,"o":"m 357 1117 q 341 1123 347 1117 q 338 1139 336 1129 l 357 1236 q 379 1255 360 1255 l 477 1255 q 495 1238 495 1255 q 494 1232 495 1234 l 475 1135 q 453 1117 471 1117 l 357 1117 m 622 1117 q 607 1123 612 1117 q 604 1139 602 1129 l 623 1236 q 644 1255 625 1255 l 741 1255 q 756 1249 751 1255 q 760 1232 762 1242 l 741 1135 q 719 1117 737 1117 l 622 1117 m 235 604 l 120 1013 l 260 1013 l 374 609 l 453 1013 l 580 1013 l 501 609 l 772 1013 l 913 1013 l 639 604 l 728 0 l 594 0 l 529 441 l 444 315 l 383 0 l 256 0 l 317 315 l 281 441 l 45 0 l -88 0 l 235 604 z "},"Ӟ":{"ha":836,"x_min":-12,"x_max":747,"o":"m 329 1117 q 314 1123 319 1117 q 311 1139 309 1129 l 330 1236 q 351 1255 332 1255 l 449 1255 q 467 1238 467 1255 q 467 1232 467 1234 l 447 1135 q 425 1117 443 1117 l 329 1117 m 594 1117 q 579 1123 584 1117 q 576 1139 574 1129 l 595 1236 q 616 1255 597 1255 l 713 1255 q 729 1249 724 1255 q 732 1232 734 1242 l 713 1135 q 691 1117 709 1117 l 594 1117 m 259 -20 q 124 -7 195 -20 q -12 31 54 5 l 14 167 q 139 114 75 132 q 269 96 203 96 q 383 112 332 96 q 470 159 434 129 q 526 231 507 189 q 546 324 546 273 q 498 444 546 404 q 355 485 450 485 l 252 485 l 273 597 l 378 597 q 474 611 431 597 q 548 648 517 624 q 595 707 578 673 q 611 784 611 741 q 569 884 611 852 q 441 916 528 916 q 319 902 384 916 q 176 861 254 888 l 201 987 q 351 1020 286 1010 q 470 1031 416 1031 q 587 1016 535 1031 q 674 972 638 1001 q 728 901 709 943 q 747 804 747 859 q 731 711 747 754 q 686 634 715 668 q 613 576 656 600 q 517 542 570 553 q 637 474 593 528 q 681 326 681 420 q 651 185 681 249 q 566 76 621 122 q 433 5 511 31 q 259 -20 355 -20 z "},"Ӡ":{"ha":836,"x_min":-28,"x_max":836,"o":"m 321 -19 q 62 43 152 -19 q -28 224 -28 105 q -26 259 -28 241 q -20 295 -24 276 l 116 295 q 113 272 114 283 q 111 250 111 261 q 168 136 111 176 q 340 96 224 96 q 455 109 404 96 q 546 146 507 121 q 609 208 585 171 q 644 295 634 245 q 648 336 648 316 q 596 447 648 408 q 443 486 544 486 l 325 486 l 347 598 l 656 897 l 156 897 l 178 1013 l 836 1013 l 814 899 l 500 600 q 578 589 540 600 q 651 561 617 579 q 713 516 686 542 q 757 459 741 490 q 784 341 784 409 q 775 268 784 306 q 749 194 767 231 q 702 124 730 158 q 632 63 673 91 q 321 -19 513 -19 z "},"Ӣ":{"ha":836,"x_min":-3,"x_max":841,"o":"m 361 1255 l 766 1255 l 747 1154 l 341 1154 l 361 1255 m 193 1013 l 326 1013 l 163 179 l 667 1013 l 841 1013 l 644 0 l 512 0 l 674 833 l 170 0 l -3 0 l 193 1013 z "},"Ӥ":{"ha":836,"x_min":-3,"x_max":841,"o":"m 348 1117 q 333 1123 338 1117 q 330 1139 328 1129 l 349 1236 q 370 1255 351 1255 l 468 1255 q 486 1238 486 1255 q 486 1232 486 1234 l 466 1135 q 444 1117 462 1117 l 348 1117 m 613 1117 q 598 1123 603 1117 q 595 1139 593 1129 l 614 1236 q 635 1255 616 1255 l 732 1255 q 748 1249 743 1255 q 751 1232 753 1242 l 732 1135 q 710 1117 728 1117 l 613 1117 m 193 1013 l 326 1013 l 163 179 l 667 1013 l 841 1013 l 644 0 l 512 0 l 674 833 l 170 0 l -3 0 l 193 1013 z "},"Ӧ":{"ha":836,"x_min":56,"x_max":781,"o":"m 334 1117 q 318 1123 323 1117 q 315 1139 313 1129 l 334 1236 q 356 1255 337 1255 l 454 1255 q 472 1238 472 1255 q 471 1232 472 1234 l 452 1135 q 430 1117 448 1117 l 334 1117 m 599 1117 q 584 1123 589 1117 q 581 1139 578 1129 l 600 1236 q 621 1255 602 1255 l 718 1255 q 733 1249 728 1255 q 736 1232 739 1242 l 718 1135 q 696 1117 714 1117 l 599 1117 m 326 -20 q 56 311 56 -20 q 72 490 56 398 q 113 661 87 581 q 158 777 134 727 q 206 863 182 826 q 338 989 263 947 q 509 1031 412 1031 q 713 950 646 1031 q 781 703 781 869 q 777 618 781 663 q 765 528 772 574 q 746 438 757 483 q 722 350 735 393 q 677 236 701 286 q 629 149 654 186 q 496 21 571 62 q 326 -20 420 -20 m 337 92 q 398 101 370 92 q 449 127 426 110 q 491 169 472 144 q 528 226 511 194 q 559 296 545 258 q 587 377 574 335 q 609 464 599 420 q 626 553 619 509 q 636 640 633 597 q 640 719 640 682 q 634 801 640 764 q 611 864 627 838 q 568 905 595 890 q 498 920 541 920 q 437 910 465 920 q 387 884 410 901 q 345 842 364 867 q 309 786 326 817 q 262 676 283 738 q 226 548 241 614 q 203 415 211 481 q 195 293 195 349 q 201 209 195 246 q 224 145 208 171 q 268 105 241 119 q 337 92 296 92 z "},"Ө":{"ha":836,"x_min":55,"x_max":781,"o":"m 315 -20 q 120 55 186 -20 q 55 286 55 130 q 79 505 55 380 q 238 899 130 766 q 520 1031 346 1031 q 717 954 653 1031 q 781 724 781 878 q 757 505 781 629 q 596 111 705 241 q 315 -20 487 -20 m 629 597 q 638 669 635 635 q 641 732 641 703 q 633 812 641 777 q 609 871 626 847 q 565 907 592 895 q 498 920 538 920 q 407 898 446 920 q 336 834 367 876 q 283 732 306 792 q 242 597 260 673 l 629 597 m 338 92 q 432 115 391 92 q 506 187 473 139 q 564 309 538 235 q 609 482 589 382 l 218 482 q 201 372 206 422 q 196 281 196 322 q 206 187 196 224 q 338 92 233 92 z "},"Ӫ":{"ha":836,"x_min":55,"x_max":781,"o":"m 334 1117 q 318 1123 323 1117 q 315 1139 313 1129 l 334 1236 q 356 1255 337 1255 l 454 1255 q 472 1238 472 1255 q 471 1232 472 1234 l 452 1135 q 430 1117 448 1117 l 334 1117 m 599 1117 q 584 1123 589 1117 q 581 1139 578 1129 l 600 1236 q 621 1255 602 1255 l 718 1255 q 733 1249 728 1255 q 736 1232 739 1242 l 718 1135 q 696 1117 714 1117 l 599 1117 m 315 -20 q 120 55 186 -20 q 55 286 55 130 q 79 505 55 380 q 238 899 130 766 q 520 1031 346 1031 q 717 954 653 1031 q 781 724 781 878 q 757 505 781 629 q 596 111 705 241 q 315 -20 487 -20 m 629 597 q 638 669 635 635 q 641 732 641 703 q 633 812 641 777 q 609 871 626 847 q 565 907 592 895 q 498 920 538 920 q 407 898 446 920 q 336 834 367 876 q 283 732 306 792 q 242 597 260 673 l 629 597 m 338 92 q 432 115 391 92 q 506 187 473 139 q 564 309 538 235 q 609 482 589 382 l 218 482 q 201 372 206 422 q 196 281 196 322 q 206 187 196 224 q 338 92 233 92 z "},"Ӭ":{"ha":836,"x_min":3,"x_max":746,"o":"m 300 1117 q 284 1123 290 1117 q 281 1139 279 1129 l 300 1236 q 322 1255 303 1255 l 420 1255 q 438 1238 438 1255 q 437 1232 438 1234 l 418 1135 q 396 1117 414 1117 l 300 1117 m 565 1117 q 550 1123 555 1117 q 547 1139 545 1129 l 566 1236 q 587 1255 568 1255 l 684 1255 q 700 1249 694 1255 q 703 1232 705 1242 l 684 1135 q 662 1117 680 1117 l 565 1117 m 216 -20 q 3 36 96 -20 l 31 176 q 127 113 73 134 q 239 92 181 92 q 361 118 307 92 q 457 193 415 145 q 528 306 498 241 q 574 448 557 371 l 145 448 l 168 564 l 593 564 q 597 630 595 596 q 598 690 598 665 q 596 744 598 717 q 586 797 593 772 q 566 845 579 823 q 532 884 553 867 q 479 910 511 901 q 405 920 448 920 q 158 835 279 920 l 186 975 q 422 1031 300 1031 q 534 1017 486 1031 q 620 977 583 1002 q 680 918 656 952 q 719 845 704 884 q 740 762 734 805 q 746 675 746 719 q 728 505 746 597 q 656 282 703 380 q 544 117 610 184 q 396 15 479 50 q 216 -20 313 -20 z "},"Ӯ":{"ha":836,"x_min":37,"x_max":890,"o":"m 370 1255 l 776 1255 l 756 1154 l 351 1154 l 370 1255 m 59 117 l 133 117 q 183 125 160 117 q 225 148 205 133 q 261 184 244 163 q 295 232 279 205 q 310 256 302 243 q 325 282 317 269 l 179 1013 l 326 1013 l 428 450 l 746 1013 l 890 1013 l 471 288 q 408 186 439 234 q 348 106 376 139 q 312 68 332 87 q 266 34 292 50 q 209 9 241 19 q 137 0 177 0 l 37 0 l 59 117 z "},"Ӱ":{"ha":836,"x_min":37,"x_max":890,"o":"m 351 1117 q 335 1123 340 1117 q 332 1139 330 1129 l 351 1236 q 373 1255 354 1255 l 471 1255 q 489 1238 489 1255 q 488 1232 489 1234 l 469 1135 q 447 1117 465 1117 l 351 1117 m 616 1117 q 601 1123 606 1117 q 597 1139 595 1129 l 616 1236 q 638 1255 619 1255 l 735 1255 q 750 1249 745 1255 q 753 1232 755 1242 l 734 1135 q 713 1117 731 1117 l 616 1117 m 59 117 l 133 117 q 183 125 160 117 q 225 148 205 133 q 261 184 244 163 q 295 232 279 205 q 310 256 302 243 q 325 282 317 269 l 179 1013 l 326 1013 l 428 450 l 746 1013 l 890 1013 l 471 288 q 408 186 439 234 q 348 106 376 139 q 312 68 332 87 q 266 34 292 50 q 209 9 241 19 q 137 0 177 0 l 37 0 l 59 117 z "},"Ӳ":{"ha":836,"x_min":37,"x_max":890,"o":"m 530 1256 l 656 1256 l 466 1077 l 361 1077 l 530 1256 m 746 1256 l 872 1256 l 682 1077 l 578 1077 l 746 1256 m 59 117 l 133 117 q 183 125 160 117 q 225 148 205 133 q 261 184 244 163 q 295 232 279 205 q 310 256 302 243 q 325 282 317 269 l 179 1013 l 326 1013 l 428 450 l 746 1013 l 890 1013 l 471 288 q 408 186 439 234 q 348 106 376 139 q 312 68 332 87 q 266 34 292 50 q 209 9 241 19 q 137 0 177 0 l 37 0 l 59 117 z "},"Ӵ":{"ha":836,"x_min":109,"x_max":835,"o":"m 330 1117 q 314 1123 319 1117 q 311 1139 309 1129 l 330 1236 q 352 1255 333 1255 l 450 1255 q 468 1238 468 1255 q 467 1232 468 1234 l 448 1135 q 426 1117 444 1117 l 330 1117 m 595 1117 q 579 1123 585 1117 q 576 1139 574 1129 l 595 1236 q 617 1255 598 1255 l 714 1255 q 729 1249 724 1255 q 732 1232 734 1242 l 713 1135 q 692 1117 710 1117 l 595 1117 m 587 446 q 515 417 547 428 q 453 400 482 406 q 397 393 424 395 q 343 391 371 391 q 265 395 298 391 q 209 406 233 398 q 169 426 186 414 q 139 458 153 439 q 117 503 124 479 q 109 563 109 527 q 112 611 109 583 q 119 665 114 639 l 187 1013 l 325 1013 l 260 682 q 254 640 256 661 q 252 603 252 618 q 258 564 252 576 q 271 545 263 552 q 318 523 289 528 q 398 517 347 517 q 455 519 429 517 q 505 529 480 522 q 555 549 529 536 q 614 584 581 562 l 697 1013 l 835 1013 l 638 0 l 500 0 l 587 446 z "},"Ӷ":{"ha":836,"x_min":115,"x_max":836,"o":"m 386 115 l 524 115 l 595 487 q 566 464 582 475 q 529 442 551 453 l 493 425 q 430 404 469 413 q 342 393 391 395 l 310 391 q 153 448 201 391 q 144 459 148 454 q 139 468 141 465 q 121 518 127 489 q 115 585 115 547 q 127 699 115 634 l 188 1014 l 326 1014 l 268 716 q 259 637 259 673 q 289 546 259 575 q 382 517 318 517 q 449 525 416 517 q 514 546 481 532 q 546 563 534 555 q 566 579 557 570 q 617 656 597 610 q 648 758 637 702 l 698 1014 l 836 1014 l 639 0 l 501 0 l 460 -212 l 322 -212 l 386 115 z "},"Ӹ":{"ha":836,"x_min":-54,"x_max":868,"o":"m 334 1117 q 319 1123 324 1117 q 316 1139 314 1129 l 335 1236 q 357 1255 338 1255 l 454 1255 q 473 1238 473 1255 q 472 1232 473 1234 l 452 1135 q 431 1117 448 1117 l 334 1117 m 600 1117 q 584 1123 589 1117 q 581 1139 579 1129 l 600 1236 q 622 1255 603 1255 l 719 1255 q 734 1249 729 1255 q 737 1232 739 1242 l 718 1135 q 696 1117 715 1117 l 600 1117 m 143 1013 l 280 1013 l 201 606 l 262 606 q 369 591 321 606 q 449 547 416 576 q 499 475 481 517 q 517 378 517 433 q 516 341 517 360 q 510 302 514 322 q 460 171 495 227 q 377 76 426 114 q 269 19 328 38 q 145 0 210 0 l -54 0 l 143 1013 m 730 1013 l 868 1013 l 671 0 l 534 0 l 730 1013 m 167 113 q 234 123 202 113 q 292 158 266 134 q 338 217 319 181 q 367 302 357 252 q 373 361 373 334 q 340 459 373 425 q 241 493 307 493 l 179 493 l 105 113 l 167 113 z "},"Ԑ":{"ha":836,"x_min":42,"x_max":795,"o":"m 347 -20 q 217 -4 274 -20 q 121 41 160 12 q 62 114 83 71 q 42 212 42 157 q 49 279 42 245 q 134 448 68 380 q 305 542 199 515 q 197 604 233 562 q 161 710 161 646 q 162 734 161 722 q 166 760 163 747 q 211 871 178 821 q 294 957 244 921 q 406 1011 343 992 q 541 1031 469 1031 q 655 1020 594 1031 q 795 987 717 1009 l 770 861 q 642 902 705 889 q 528 916 580 916 q 372 873 430 916 q 300 754 313 830 q 298 722 298 739 q 343 628 298 659 q 470 597 388 597 l 574 597 l 553 485 l 448 485 q 355 472 398 485 q 277 435 311 460 q 220 375 243 411 q 187 293 197 340 q 182 245 182 266 q 232 135 182 175 q 384 96 283 96 q 519 113 449 96 q 666 167 590 130 l 640 31 q 489 -7 564 6 q 347 -20 414 -20 z "},"Ԛ":{"ha":836,"x_min":56,"x_max":781,"o":"m 342 -18 l 335 -18 q 124 61 192 -18 q 56 310 56 141 q 72 490 56 398 q 113 661 87 581 q 157 775 134 725 q 206 863 181 825 q 339 990 264 949 q 509 1031 414 1031 q 713 949 646 1031 q 781 705 781 867 q 770 569 781 640 q 743 427 760 498 q 700 290 723 349 q 652 186 676 230 q 567 73 613 115 q 468 7 521 30 l 572 -121 l 468 -183 l 342 -18 m 337 92 q 398 101 370 92 q 449 127 426 110 q 491 169 472 144 q 528 226 511 194 q 559 296 545 258 q 587 377 574 335 q 609 464 599 420 q 626 553 619 509 q 636 640 633 597 q 640 719 640 682 q 634 801 640 764 q 611 864 627 838 q 568 905 595 890 q 498 920 541 920 q 437 910 465 920 q 387 884 410 901 q 345 842 364 867 q 309 786 326 817 q 262 676 283 738 q 226 548 241 614 q 203 415 211 481 q 195 293 195 349 q 201 209 195 246 q 224 145 208 171 q 268 105 241 119 q 337 92 296 92 z "},"Ԝ":{"ha":836,"x_min":61,"x_max":939,"o":"m 104 1013 l 233 1013 l 172 192 l 395 734 l 538 734 l 549 191 l 804 1013 l 939 1013 l 593 0 l 461 0 l 440 590 l 189 0 l 61 0 l 104 1013 z "},"а":{"ha":836,"x_min":49,"x_max":737,"o":"m 274 -20 q 181 -5 223 -20 q 110 37 140 9 q 65 104 81 64 q 49 192 49 143 q 76 309 49 256 q 154 399 103 361 q 276 458 204 437 q 437 479 348 479 l 604 479 l 612 521 q 614 534 614 527 q 615 547 615 541 q 573 642 615 611 q 451 672 530 672 q 182 603 332 672 l 205 725 q 345 765 279 751 q 470 778 410 778 q 583 763 533 778 q 667 722 633 749 q 719 656 701 695 q 737 569 737 618 q 733 511 737 546 q 721 433 729 476 l 636 0 l 525 0 l 533 113 q 419 15 484 50 q 274 -20 354 -20 m 313 85 q 401 103 358 85 q 479 155 444 121 q 541 239 515 189 q 581 354 568 290 l 586 382 l 469 382 q 402 381 431 382 q 352 377 374 380 q 312 370 330 374 q 281 359 295 366 q 207 300 235 340 q 179 208 179 261 q 214 118 179 151 q 313 85 248 85 z "},"б":{"ha":836,"x_min":81,"x_max":805,"o":"m 342 -20 q 213 4 263 -20 q 133 65 162 27 q 92 152 104 103 q 81 250 81 200 q 83 304 81 276 q 92 358 86 332 q 101 404 98 389 q 104 421 104 418 l 121 534 q 139 631 130 588 q 159 711 148 675 q 183 777 170 747 q 212 833 196 806 q 285 922 244 885 q 371 985 326 960 q 463 1026 416 1010 q 555 1049 510 1041 q 642 1061 601 1058 q 715 1067 683 1065 q 732 1068 724 1067 q 746 1070 739 1069 q 760 1073 753 1071 q 776 1079 767 1076 l 805 983 q 774 975 789 977 q 744 970 760 972 l 578 954 q 516 943 545 951 q 454 918 488 935 q 334 834 380 882 q 271 735 288 786 l 258 694 q 368 757 306 736 q 502 778 430 778 q 629 755 579 778 q 708 695 680 732 q 749 609 737 657 q 760 511 760 562 q 756 445 760 479 q 747 378 753 411 q 693 209 728 283 q 607 84 658 134 q 489 7 555 33 q 342 -20 422 -20 m 362 86 q 449 104 408 86 q 522 158 489 122 q 578 250 554 195 q 615 379 602 304 q 624 445 621 412 q 627 502 627 478 q 591 628 627 584 q 479 672 554 672 q 320 599 387 672 q 228 379 254 526 q 219 316 222 348 q 216 258 216 283 q 221 199 216 229 q 242 143 227 168 q 287 102 258 119 q 362 86 316 86 z "},"в":{"ha":836,"x_min":81,"x_max":718,"o":"m 229 760 l 498 760 q 597 747 556 760 q 666 713 639 734 q 705 666 692 692 q 718 611 718 639 q 716 595 718 603 q 714 578 715 587 q 658 459 701 503 q 549 407 615 416 q 620 384 593 398 q 660 352 646 370 q 677 314 673 334 q 682 271 682 293 q 656 151 682 201 q 587 66 631 100 q 485 16 543 33 q 361 0 427 0 l 81 0 l 229 760 m 448 451 q 502 460 477 451 q 546 485 527 469 q 575 524 564 500 q 586 575 586 547 q 582 606 586 591 q 567 632 578 621 q 537 651 556 644 q 488 658 518 658 l 334 658 l 294 451 l 448 451 m 388 102 q 434 108 411 102 q 478 127 458 114 q 515 162 499 140 q 541 214 532 183 q 549 264 549 241 q 545 296 549 281 q 530 323 540 311 q 519 333 526 328 q 502 341 512 338 q 476 347 491 345 q 439 349 460 349 l 274 349 l 226 102 l 388 102 z "},"г":{"ha":836,"x_min":119,"x_max":777,"o":"m 267 760 l 777 760 l 758 658 l 372 658 l 244 0 l 119 0 l 267 760 z "},"ѓ":{"ha":836,"x_min":110,"x_max":814,"o":"m 666 1116 l 814 1116 l 547 861 l 441 861 l 666 1116 m 258 760 l 768 760 l 748 658 l 363 658 l 235 0 l 110 0 l 258 760 z "},"ґ":{"ha":836,"x_min":120,"x_max":820,"o":"m 268 760 l 653 760 l 694 972 l 820 972 l 753 635 l 368 635 l 245 0 l 120 0 l 268 760 z "},"д":{"ha":836,"x_min":-28,"x_max":770,"o":"m 30 102 l 75 102 q 101 124 87 102 q 128 180 115 146 q 154 258 141 215 q 177 342 166 300 q 195 420 187 384 q 208 477 203 456 l 262 760 l 770 760 l 642 102 l 724 102 l 666 -194 l 564 -194 l 602 0 l 112 0 l 74 -194 l -28 -194 l 30 102 m 516 102 l 624 658 l 366 658 l 331 475 q 325 446 330 468 q 312 393 319 425 q 294 321 304 361 q 273 239 284 282 q 261 199 267 218 q 251 164 256 179 q 243 139 247 149 q 239 130 240 130 q 231 110 231 116 q 253 102 231 102 l 516 102 z "},"е":{"ha":836,"x_min":66,"x_max":764,"o":"m 377 -20 q 145 56 223 -20 q 66 276 66 131 q 77 382 66 329 q 107 484 87 435 q 155 578 127 534 q 220 660 184 623 q 344 749 277 719 q 488 779 412 779 q 601 759 550 779 q 688 702 652 739 q 744 612 724 665 q 764 496 764 559 q 760 437 764 471 q 749 350 757 403 l 201 350 q 195 311 197 328 q 193 275 193 293 q 245 136 193 185 q 396 86 296 86 q 528 105 457 86 q 676 163 598 124 l 652 39 q 512 -5 580 9 q 377 -20 445 -20 m 636 447 q 642 477 640 465 q 643 501 643 490 q 631 573 643 541 q 598 627 620 605 q 547 661 577 649 q 479 672 517 672 q 396 656 435 672 q 323 611 356 640 q 265 539 290 581 q 225 447 240 498 l 636 447 z "},"ѐ":{"ha":836,"x_min":66,"x_max":764,"o":"m 307 1136 l 441 1136 l 575 881 l 478 881 l 307 1136 m 377 -20 q 145 56 223 -20 q 66 276 66 131 q 77 382 66 329 q 107 484 87 435 q 155 578 127 534 q 220 660 184 623 q 344 749 277 719 q 488 779 412 779 q 601 759 550 779 q 688 702 652 739 q 744 612 724 665 q 764 496 764 559 q 760 437 764 471 q 749 350 757 403 l 201 350 q 195 311 197 328 q 193 275 193 293 q 245 136 193 185 q 396 86 296 86 q 528 105 457 86 q 676 163 598 124 l 652 39 q 512 -5 580 9 q 377 -20 445 -20 m 636 447 q 642 477 640 465 q 643 501 643 490 q 631 573 643 541 q 598 627 620 605 q 547 661 577 649 q 479 672 517 672 q 396 656 435 672 q 323 611 356 640 q 265 539 290 581 q 225 447 240 498 l 636 447 z "},"ё":{"ha":836,"x_min":66,"x_max":764,"o":"m 335 915 q 320 921 325 915 q 317 937 315 927 l 336 1034 q 357 1052 338 1052 l 454 1052 q 473 1035 473 1052 q 473 1029 473 1031 l 454 933 q 432 915 450 915 l 335 915 m 600 915 q 585 921 590 915 q 582 937 580 927 l 601 1034 q 623 1052 604 1052 l 720 1052 q 739 1035 739 1052 q 738 1029 739 1031 l 719 933 q 697 915 715 915 l 600 915 m 377 -20 q 145 56 223 -20 q 66 276 66 131 q 77 382 66 329 q 107 484 87 435 q 155 578 127 534 q 220 660 184 623 q 344 749 277 719 q 488 779 412 779 q 601 759 550 779 q 688 702 652 739 q 744 612 724 665 q 764 496 764 559 q 760 437 764 471 q 749 350 757 403 l 201 350 q 195 311 197 328 q 193 275 193 293 q 245 136 193 185 q 396 86 296 86 q 528 105 457 86 q 676 163 598 124 l 652 39 q 512 -5 580 9 q 377 -20 445 -20 m 636 447 q 642 477 640 465 q 643 501 643 490 q 631 573 643 541 q 598 627 620 605 q 547 661 577 649 q 479 672 517 672 q 396 656 435 672 q 323 611 356 640 q 265 539 290 581 q 225 447 240 498 l 636 447 z "},"ж":{"ha":836,"x_min":-34,"x_max":857,"o":"m 236 486 l 127 760 l 262 760 l 378 467 l 435 760 l 549 760 l 492 467 l 722 760 l 857 760 l 642 486 l 723 0 l 602 0 l 542 358 l 448 238 l 401 0 l 288 0 l 334 238 l 287 358 l 87 0 l -34 0 l 236 486 z "},"з":{"ha":836,"x_min":45,"x_max":742,"o":"m 289 -15 q 166 -5 225 -15 q 45 23 106 4 l 68 140 q 174 105 115 117 q 300 94 233 94 q 414 104 364 94 q 499 136 465 115 q 552 184 534 156 q 570 247 570 212 q 521 330 570 298 q 377 361 472 361 l 270 361 l 289 458 l 401 458 q 484 466 448 458 q 547 488 521 474 q 589 519 573 501 q 610 559 605 538 q 613 578 613 568 q 568 643 613 618 q 434 667 523 667 q 326 659 386 667 q 191 632 265 650 l 213 745 q 468 778 362 778 q 583 767 532 778 q 669 734 633 755 q 723 683 704 713 q 742 614 742 652 q 739 580 742 599 q 673 471 725 514 q 537 412 621 429 q 653 358 613 397 q 694 257 694 319 q 693 240 694 249 q 690 222 692 231 q 650 126 682 170 q 568 51 619 82 q 447 2 517 20 q 289 -15 376 -15 z "},"и":{"ha":836,"x_min":58,"x_max":786,"o":"m 206 760 l 331 760 l 224 211 l 661 760 l 786 760 l 638 0 l 513 0 l 620 549 l 183 0 l 58 0 l 206 760 z "}}}
